<?xml version="1.0" encoding="UTF-8"?>
<svg width="250px" height="245px" viewBox="0 0 250 245" version="1.1" xmlns="http://www.w3.org/2000/svg" xmlns:xlink="http://www.w3.org/1999/xlink">
    <!-- Generator: Sketch 51.3 (57544) - http://www.bohemiancoding.com/sketch -->
    <title>Group 3</title>
    <desc>Created with Sketch.</desc>
    <defs></defs>
    <g id="Page-1" stroke="none" stroke-width="1" fill="none" fill-rule="evenodd" stroke-linecap="square">
        <g id="Group-3">
            <polygon id="Line" stroke="#F5A623" points="112.795532 47.7442322 110.592377 104.098526 45.7880617 94.8641052 90.8811035 137.052887 54.6300659 172.595917 96.6333618 176.372147 110.592377 244.772278 137.509583 167.940689 179.827545 194.342804 167.335971 149.372681 202.916138 127.455002 165.572937 115.845886 183.682526 68.9033585 143.614532 91.356781"></polygon>
            <polygon id="Line" stroke="#FFFFFF" points="125.017761 83.7860107 119.002563 111.199615 83.5974426 109.742761 104.661356 137.715576 83.5974426 157.627411 105.94931 166.14037 114.633911 194.340668 132.665955 157.627411 157.072174 166.14037 154.243729 142.383614 182.909515 131.072006 151.738068 117.903595 162.777557 99.0677555 139.157775 99.0677555"></polygon>
            <polygon id="Line" stroke="#D0021B" points="129.738983 95.6978149 121.940613 114.536194 99.2927246 116.52244 109.4216 138.392838 93.8132201 153.163476 104.968323 159.038956 115.901764 177.160416 135.030678 154.438077 151.653636 157.093367 151.653636 140.184479 172.621826 131.817063 149.624695 118.685759 153.034851 104.888031 139.607147 104.888031"></polygon>
            <path d="M77.35,64.3888889 L65.65,54.6111111" id="Line-2" stroke="#F5A623"></path>
            <path d="M217.318182,161.333333 L203.681818,158.666667" id="Line-2" stroke="#F5A623"></path>
            <path d="M42.5,141.5 L0.5,150.5" id="Line-2" stroke="#F5A623"></path>
            <path d="M153.5,43.5 L163.333333,18.6315789" id="Line-2" stroke="#F5A623"></path>
            <path d="M141.5,37.5 L141.5,0.5" id="Line-2" stroke="#D0021B"></path>
            <path d="M207.5,90.5 L249.5,59.5" id="Line-2" stroke="#D0021B"></path>
            <path d="M61.6666667,238.368421 L70.5,215.5" id="Line-2" stroke="#D0021B"></path>
            <path d="M150.5,216.5 L148.5,200.5" id="Line-2" stroke="#F5A623"></path>
        </g>
    </g>
</svg>