<?xml version="1.0" encoding="UTF-8"?>
<svg width="250px" height="236px" viewBox="0 0 250 236" version="1.1" xmlns="http://www.w3.org/2000/svg" xmlns:xlink="http://www.w3.org/1999/xlink">
    <!-- Generator: Sketch 51.3 (57544) - http://www.bohemiancoding.com/sketch -->
    <title>Group 2</title>
    <desc>Created with Sketch.</desc>
    <defs></defs>
    <g id="Page-1" stroke="none" stroke-width="1" fill="none" fill-rule="evenodd" stroke-linecap="square">
        <g id="Group-2">
            <polygon id="Line" stroke="#F5A623" points="112.795532 38.7442322 110.592377 95.098526 45.7880617 85.8641052 90.8811035 128.052887 54.6300659 163.595917 96.6333618 167.372147 110.592377 235.772278 137.509583 158.940689 179.827545 185.342804 167.335971 140.372681 202.916138 118.455002 165.572937 106.845886 183.682526 59.9033585 143.614532 82.356781"></polygon>
            <polygon id="Line" stroke="#D0021B" points="129.738983 86.6978149 121.940613 105.536194 99.2927246 107.52244 109.4216 129.392838 93.8132201 144.163476 104.968323 150.038956 115.901764 168.160416 135.030678 145.438077 151.653636 148.093367 151.653636 131.184479 172.621826 122.817063 149.624695 109.685759 153.034851 95.888031 139.607147 95.888031"></polygon>
            <path d="M61.0197374,44.2377673 L38,25" id="Line-2" stroke="#F5A623"></path>
            <path d="M233.498084,157.181848 L207,152" id="Line-2" stroke="#F5A623"></path>
            <path d="M42.5,132.5 L0.5,141.5" id="Line-2" stroke="#F5A623"></path>
            <path d="M165,46.4969926 L183.385583,0" id="Line-2" stroke="#F5A623"></path>
            <path d="M155.5,37.5 L163.5,0.5" id="Line-2" stroke="#D0021B"></path>
            <path d="M207.5,81.5 L249.5,50.5" id="Line-2" stroke="#D0021B"></path>
            <path d="M61.6666667,229.368421 L70.5,206.5" id="Line-2" stroke="#D0021B"></path>
            <path d="M164.5,220.5 L151.5,191.5" id="Line-2" stroke="#F5A623"></path>
        </g>
    </g>
</svg>