<?xml version="1.0" encoding="UTF-8"?>
<svg width="97px" height="81px" viewBox="0 0 97 81" version="1.1" xmlns="http://www.w3.org/2000/svg" xmlns:xlink="http://www.w3.org/1999/xlink">
    <!-- Generator: Sketch 51.3 (57544) - http://www.bohemiancoding.com/sketch -->
    <title>Group 0</title>
    <desc>Created with Sketch.</desc>
    <defs></defs>
    <g id="Page-1" stroke="none" stroke-width="1" fill="none" fill-rule="evenodd" stroke-linecap="square">
        <g id="Group-0">
            <polygon id="Line" stroke="#F8E71C" points="45.0773138 30 43.62021 40.415177 34 40.415177 39.7628475 46.646696 34 52.1910173 42.4612556 53.0534353 44.5186833 60 49.2411793 53.7519267 56.9820218 56.9262871 55.6509837 49.1403444 61 45.4223993 56.0749465 42.7184279 56.9820218 34.2659337 51.3694376 36.6873433"></polygon>
            <polygon id="Line" stroke="#FFFFFF" points="44.0485448 13.5 40.174473 35.4437506 24.5269826 33.86217 32.4715141 46.0876388 22 57.4932524 35.9683564 57.4932524 40.174473 69.5 51.6156588 57.4932524 65.8350552 64.5052529 63.7039255 52.1755848 72 42.8075346 63.7039255 39.7564394 63.7039255 22.8542763 54.8142917 28.4636222"></polygon>
            <path d="M26.5,13.5 L22.0155441,9.51381697" id="Line-2" stroke="#FFFFFF"></path>
            <path d="M96.5,64.5 L91.5970966,63.5194193" id="Line-2" stroke="#FFFFFF"></path>
            <path d="M10.5,50.5 L0.694193243,52.4611614" id="Line-2" stroke="#FFFFFF"></path>
            <path d="M62.5,9.5 L64.9087948,0.828338813" id="Line-2" stroke="#FFFFFF"></path>
            <path d="M59.2135944,80.6407831 L57,74" id="Line-2" stroke="#FFFFFF"></path>
        </g>
    </g>
</svg>