<?xml version="1.0" encoding="UTF-8"?>
<svg width="320px" height="312px" viewBox="0 0 320 312" version="1.1" xmlns="http://www.w3.org/2000/svg" xmlns:xlink="http://www.w3.org/1999/xlink">
    <!-- Generator: Sketch 51.3 (57544) - http://www.bohemiancoding.com/sketch -->
    <title>Group 6</title>
    <desc>Created with Sketch.</desc>
    <defs></defs>
    <g id="Page-1" stroke="none" stroke-width="1" fill="none" fill-rule="evenodd" stroke-linecap="square">
        <g id="Group-6">
            <path d="M169.208333,295.675 L173.5,311.5" id="Line-3" stroke="#F5A623"></path>
            <path d="M0.5,73.5 L11.5,79.5" id="Line-3" stroke="#D0021B"></path>
            <polyline id="Line-3" stroke="#D0021B" points="111.5 205.5 115.2276 220.404221 129.4328 220.404221"></polyline>
            <polyline id="Line-3" stroke="#D0021B" points="135.985168 233.506927 151.900299 238.297623 159.67038 227.45211"></polyline>
            <polyline id="Line-3" stroke="#D0021B" points="163.17981 215.520203 173.285919 218.59993 181.640503 215.520203 192.354095 202.87619"></polyline>
            <polyline id="Line-3" stroke="#D0021B" points="126.048157 127.64003 142.143677 132.096268 149.948456 125.229111 151.866577 113.769318"></polyline>
            <polyline id="Line-3" stroke="#F8E71C" points="82.2493591 130.414673 82.2493591 119.032013 92.5 108"></polyline>
            <polyline id="Line-3" stroke="#F8E71C" points="158.461853 199.763641 167.39447 189.937622 180.63858 185.487793"></polyline>
            <polyline id="Line-3" stroke="#F8E71C" points="109.378632 88.4728241 120.783447 71.4485016 137.158752 69"></polyline>
            <path d="M50.5,235.5 L27.5,258.5" id="Line-3" stroke="#F5A623"></path>
            <path d="M270.5,93.25 L319.5,71.5" id="Line-3" stroke="#F5A623"></path>
            <path d="M203.5,0.5 L196.703704,16.3571429" id="Line-3" stroke="#D0021B"></path>
            <polyline id="Line-3" stroke="#D0021B" points="213.155975 153.120056 228.008911 164.654449 229.352081 188.488403 221.098358 203.03595 209.127808 210.159988 197.445587 210.159988 186.026001 215.186859 177.94339 238.650238 164.498322 245.209167 152.398951 240.792404 147.083694 246.586914 137.794403 249.934341 128.748611 249.934341 117.028183 238.650238 115.767181 222.487782 94.76474 225.264236 85.1503879 222.487782 74.4104614 201.527199 83.1135101 181.527374"></polyline>
            <polyline id="Line-7" stroke="#F8E71C" points="121.5 175.5 135.5 170.5 147.119431 173 156.372681 181.094055 165.773926 186.970596 175.304688 175.5 180.270905 162.48941 194.520477 153.789429 208.74054 151.937378 213.585938 153.789429"></polyline>
            <polyline id="Line-8" stroke="#D0021B" points="68.5 169.5 87.5 169.5 101.424545 157.537323 104.68338 144.757553 121.215637 148.659668 137.357208 141.894485 142.751709 134.376221 159.025528 139.988235 176.820404 136.55925 185.506226 127.007126 190.479004 113.506607"></polyline>
            <polyline id="Line-4" stroke="#F8E71C" transform="translate(114.851876, 101.512327) rotate(-26.000000) translate(-114.851876, -101.512327) " points="43.1353954 141.311832 37.4750835 124.860996 41.4749872 111.397786 59.2158096 100.35977 74.7565575 99.9572727 75.9644719 87.9904063 83.0423104 73.4786869 96.0674327 61.7128228 116.013011 61.7128228 133.324923 75.1360247 149.940324 66.1942502 164.355153 66.3913346 180.682276 74.3546044 192.228668 94.1452962 189.455345 115.921553"></polyline>
            <polyline id="Line-5" stroke="#F8E71C" points="209.5 89.5 202.5 97.5 202.5 107.768097 207.975677 115.462616 207.975677 128.348785 213.799469 140.435593 226.766968 146.326874 241.399292 144.129822"></polyline>
            <polyline id="Line-6" stroke="#D0021B" points="210.5 89.5 221.5 87.5 232.127106 94.9396667 234.630432 105.959991 244.508636 110.200592 250.285217 122.536194 248.733215 134.446243 241.273651 144.270905"></polyline>
            <polygon id="Line-9" stroke="#F5A623" points="113.681 72 101.070297 72 87.43396 77.2466431 79.0441437 88.2451782 77.5178223 102.175293 82.0551453 111.010239 76.0465546 124.287292 61.3815155 136.145309 58.8896027 150.649567 69.8751984 164.983322 82.0551453 164.983322 96.1882019 156.510605 99.6522827 145.278351 106.268707 141.428894 124.76741 142.893341 135.034393 136.145309 154.548615 132.295288 166.452148 134.65329 178.824127 129.173676 189.890045 113.018402 189.890045 105.792801 183.407654 93.6882553 188.047546 81.85746 178.824127 66.5 166.452148 56.3381653 149.385956 52.8574829 135.034393 56.3381653 127.068787 66.5"></polygon>
            <polygon id="Line-10" stroke="#F5A623" points="121.5 176.5 116.5 179.5 106.266144 176.5 92.5695801 178 84.5081482 181.849167 78.4753876 201.127655 87.1468658 218.07074 102.819916 222.492645 112.694305 220.113831 118.83316 226.588135 121.5 238.061127 129.890564 245.199066 138.844238 246.832306 146.924744 242.888306 158.471634 238.061127 164.64856 242.888306 174.842773 238.061127 180.610535 224.792358 186.901245 212.146301 200.020477 207.102722 214.100372 203.336975 223.968689 185.805252 223.968689 165.957779 212.233093 155.857224 193.526367 158.709381 181.951874 171.238617 179.276886 178 166.005066 187.629852 151.222038 181.849167 136.335327 176.5"></polygon>
            <polygon id="Line-11" stroke="#F5A623" points="210.5 92.5 220.5 92.5 228.545135 99.9841766 231.695282 107.786774 241.902161 114.804749 245.395996 125.835495 241.902161 137.262161 233.291992 142.512741 220.5 139.80661 212.759186 130.660324 210.5 121.799911 212.759186 113.258011 207.160126 107.786774 205.290405 99.9841766"></polygon>
        </g>
    </g>
</svg>