<?xml version="1.0" encoding="UTF-8"?>
<svg width="221px" height="212px" viewBox="0 0 221 212" version="1.1" xmlns="http://www.w3.org/2000/svg" xmlns:xlink="http://www.w3.org/1999/xlink">
    <!-- Generator: Sketch 51.3 (57544) - http://www.bohemiancoding.com/sketch -->
    <title>Group 4</title>
    <desc>Created with Sketch.</desc>
    <defs></defs>
    <g id="Page-1" stroke="none" stroke-width="1" fill="none" fill-rule="evenodd" stroke-linecap="square">
        <g id="Group-4">
            <path d="M102.25,172.5 L102.25,211.5" id="Line-3" stroke="#F5A623"></path>
            <path d="M41.5,47.5 L59.5,68.5" id="Line-3" stroke="#F5A623"></path>
            <path d="M220.5,90.5 L176.5,100.5" id="Line-3" stroke="#F5A623"></path>
            <path d="M47.5,148.5 L11.5,171.5" id="Line-3" stroke="#F5A623"></path>
            <path d="M0.5,102.5 L41.5,105.5" id="Line-3" stroke="#F5A623"></path>
            <path d="M179.5,53.5 L153.5,73.5" id="Line-3" stroke="#D0021B"></path>
            <polyline id="Line-3" stroke="#D0021B" points="142.156494 133.986298 133.680359 147.91449 119.761719 154.885437 104.03244 149.871918 91.5922241 157.097885 79.380188 157.097885 70.5747528 147.91449 68.4941825 135.721822 56.445282 131.217987 47.6030731 120.001801"></polyline>
            <polyline id="Line-3" stroke="#D0021B" points="113.465729 140.964233 101.458954 147.254089 92.2286835 143.085373 84.5 134.5"></polyline>
            <polyline id="Line-4" stroke="#FFFFFF" points="50.8955841 102 46.0487213 94.1634929 48.0051422 85.8847351 53.7215576 79.1327171 65.6992798 79.1327171 69.3355408 77.8703003 71.8551025 65.9050522 82.084137 56.2654343 96.084671 56.2654343 105.149231 62.8924255 111.968262 58.7796478 121.263153 56.2654343 133.628052 61.5738678 139.851349 71.7607727 139.851349 84.0451508 152.5 87.5 156.865737 94.1634929 160.963562 103.844727"></polyline>
            <path d="M102.25,0.5 L102.25,42.5" id="Line-3" stroke="#F5A623"></path>
            <polygon id="Line-3" stroke="#F5A623" points="54.25 106.5 47.3100891 120.184097 50.7077332 133.999672 63.9487 139.888168 63.9487 151.201767 73.3788757 160.236969 91.9696045 161.499344 103.152893 153.149399 120.393127 160.236969 136.730682 153.149399 142.540833 133.999672 158.264404 122.380112 160.975098 103.391571 151.969208 93.3188934 138.899658 91.3961792 134.930145 87.1141129 132.951904 73.6803131 120.393127 64.1752625 106.595123 68.0195465 98.7785645 70.7851639 90.0962372 64.1752625 77.5421753 68.0195465 73.3788757 79.0929184 70.8627472 83.711853 58.290863 85.3127747 50.7077332 93.3188934 50.7077332 100.983749"></polygon>
            <polyline id="Line-15" stroke="#FFFFFF" points="68.5 96.5 73.0328369 88.7680511 82.3225555 85.5050049"></polyline>
            <polyline id="Line-14" stroke="#FFFFFF" points="138.610535 103.931046 132.334198 94.6257019 117.775269 91.0758057"></polyline>
            <polyline id="Line-14" stroke="#FFFFFF" points="113.612213 81.0972443 101.724571 77 91.060318 81.0972443"></polyline>
            <path d="M155.5,137.5 L173.5,156.5" id="Line-3" stroke="#F5A623"></path>
            <path d="M143.5,30.5 L148.5,34.5" id="Line-3" stroke="#F5A623"></path>
            <polyline id="Line-3" stroke="#F5A623" points="57.5 169.5 63.6565247 176.707764 74.9597473 178.399521"></polyline>
            <polyline id="Line-3" stroke="#F5A623" points="129 41 138.635284 43.5040588 143.436554 51.8572235"></polyline>
            <path d="M52.5,186.5 L61.5,191.5" id="Line-3" stroke="#F5A623"></path>
        </g>
    </g>
</svg>