<?xml version="1.0" encoding="UTF-8"?>
<svg width="248px" height="265px" viewBox="0 0 248 265" version="1.1" xmlns="http://www.w3.org/2000/svg" xmlns:xlink="http://www.w3.org/1999/xlink">
    <!-- Generator: Sketch 51.3 (57544) - http://www.bohemiancoding.com/sketch -->
    <title>Group 5</title>
    <desc>Created with Sketch.</desc>
    <defs></defs>
    <g id="Page-1" stroke="none" stroke-width="1" fill="none" fill-rule="evenodd" stroke-linecap="square">
        <g id="Group-5">
            <path d="M135.208333,216.675 L144.5,264.5" id="Line-3" stroke="#F5A623"></path>
            <path d="M16.5,27.5 L56.3157895,74.3409091" id="Line-3" stroke="#F5A623"></path>
            <path d="M46.5,223.5 L37.5,232.5" id="Line-3" stroke="#F5A623"></path>
            <path d="M0.5,145.5 L31.5,145.5" id="Line-3" stroke="#F5A623"></path>
            <path d="M226.5,52.5 L190.703704,85.3571429" id="Line-3" stroke="#D0021B"></path>
            <polyline id="Line-3" stroke="#D0021B" points="199.89566 153.950134 194.685181 161.22319 182.990402 165.110199 184.495239 176.939198 179.467224 194.739532 160.547119 204.385757 139.053406 202.444305 130.185699 193.159882 123.398453 206.06311 106.319977 213.451416 88.9294281 209.807831 74.9328918 194.739532 74.9328918 180.364349 66.3232727 182.015442 57.051633 176.939198 46.9012451 158.391296"></polyline>
            <polyline id="Line-13" stroke="#D0021B" points="72.9558258 159.806107 77.5479584 177.18486 96.0548248 180.664154"></polyline>
            <polyline id="Line-13" stroke="#D0021B" points="112.011459 182.689972 130.391876 189.926453 145.418777 179.532104"></polyline>
            <polyline id="Line-13" stroke="#D0021B" points="170.84967 172.444763 181.854446 164.275467 181.854446 147.562134"></polyline>
            <polyline id="Line-4" stroke="#9B9B9B" points="45.5305634 116.508087 51.1945038 104.160142 63.434906 99.5521219 78.8325275 104.160142 75.3340801 91.3162095 78.8325275 75.3571614 94.6446838 65.8534161 111.833618 65.8534161 122.513939 78.6049194 133.660919 62.5 149.545868 61.179718 165.975433 68.4949188 173.246283 83.1674236 173.246283 99.5521219 185.228882 99.5521219 199.497314 106.337158"></polyline>
            <path d="M118.5,18.5 L122.5,54.3255814" id="Line-3" stroke="#F5A623"></path>
            <polygon id="Line-3" stroke="#F5A623" points="114.5 132.5 123.5 132.5 126.954529 140.331894 133.388 144.800995 126.954529 153.397278 118.775299 149.59967 111.902649 149.59967 108.131241 142.347162"></polygon>
            <path d="M181.5,0.5 L163.5,48.3255814" id="Line-3" stroke="#9B9B9B"></path>
            <path d="M85.5,220.5 L73.5,258.5" id="Line-3" stroke="#9B9B9B"></path>
            <polygon id="Line-3" stroke="#F5A623" points="56.9514771 136.749321 47 157.237944 61.7969666 174.334839 75.9000219 177.682312 81.1307678 192.196625 90.353241 203.412415 108.686037 203.412415 130.062805 190.504395 142.595612 198.697968 156.146332 201.208069 176.001007 192.196625 182.087082 165.099594 199.91272 153.848862 208.218048 130.158112 199.91272 107.33783 170.529343 102.415115 168.025362 86.7189102 162.238281 77.7319794 149.378082 70.0862274 137.218048 70.0862274 121.723145 77.7319794 102.40744 74.712738 84.7701721 84.9211884 79.5978394 104.868073 58.6360779 104.868073 45.1741333 116.918289 49.1543884 132.248993"></polygon>
            <polyline id="Line-14" stroke="#9B9B9B" points="96.4491425 104.454773 90.3865356 106.139084 84.3239288 107.823395 77 121"></polyline>
            <polyline id="Line-14" stroke="#9B9B9B" points="143.289886 86.2364655 132.956284 81 123.671173 81 113.753098 84.0478439 108 90.8108673"></polyline>
            <polyline id="Line-14" stroke="#9B9B9B" points="174.705841 120.718201 170.652786 106.735229 163.352921 99.4178772 152 96"></polyline>
            <path d="M196.684211,174.65 L229.5,194.5" id="Line-3" stroke="#F5A623"></path>
            <path d="M245.666667,127.6 L247.5,138.5" id="Line-3" stroke="#F5A623"></path>
            <polyline id="Line-3" stroke="#D0021B" points="42.0177307 185.299362 48.5 194.157837 58.2329254 196.412231"></polyline>
            <polyline id="Line-3" stroke="#F5A623" points="221 121 226.94104 134.461899 223.002441 147.923798"></polyline>
            <path d="M32.5,199.5 L43.3,207.333333" id="Line-3" stroke="#D0021B"></path>
            <polyline id="Line-3" stroke="#D0021B" points="138.468475 134.460464 138.468475 148.708679 127.359985 160.304398 115.936218 153.482029 100.909271 153.482029"></polyline>
        </g>
    </g>
</svg>