<?xml version="1.0" encoding="UTF-8"?>
<svg width="54px" height="58px" viewBox="0 0 54 58" version="1.1" xmlns="http://www.w3.org/2000/svg" xmlns:xlink="http://www.w3.org/1999/xlink">
    <!-- Generator: Sketch 51.3 (57544) - http://www.bohemiancoding.com/sketch -->
    <title>Group 1</title>
    <desc>Created with Sketch.</desc>
    <defs></defs>
    <g id="Page-1" stroke="none" stroke-width="1" fill="none" fill-rule="evenodd" stroke-linecap="square">
        <g id="Group-1" transform="translate(1.000000, 0.000000)">
            <polygon id="Line" stroke="#F5A623" points="21.4377365 0.259658813 18.6178284 20.1077576 0 20.1077576 11.1527405 31.9831009 0 42.5488586 16.3749237 44.1923599 20.3566284 57.4303589 29.4959946 45.523468 44.4767151 51.5728149 41.9007797 36.7352219 52.2526398 29.649971 42.7212677 24.4970398 44.4767151 8.38920593 33.6147766 13.0036621"></polygon>
            <polygon id="Line" stroke="#FFFFFF" points="23.810791 10.5405121 21.2084394 25.1854443 10.697464 24.129921 16.0340881 32.2890167 9 39.9009533 18.3830414 39.9009533 21.2084394 47.9140778 28.8938904 39.9009533 38.4455643 44.580658 37.0140087 36.3520212 42.5867767 30.099924 37.0140087 28.0636686 37.0140087 16.7834167 31.0425258 20.5270106"></polygon>
        </g>
    </g>
</svg>