<?xml version="1.0" encoding="UTF-8"?>
<svg width="164px" height="163px" viewBox="0 0 164 163" version="1.1" xmlns="http://www.w3.org/2000/svg" xmlns:xlink="http://www.w3.org/1999/xlink">
    <!-- Generator: Sketch 51.3 (57544) - http://www.bohemiancoding.com/sketch -->
    <title>Group 1</title>
    <desc>Created with Sketch.</desc>
    <defs></defs>
    <g id="Page-1" stroke="none" stroke-width="1" fill="none" fill-rule="evenodd" stroke-linecap="square">
        <g id="Group-1">
            <polygon id="Line" stroke="#F8E71C" points="78.3783875 20.9985046 78.3783875 65.7333679 39.5550995 67.8787231 61.7707571 92.3612332 31.3266296 123.518097 69.0745239 119.05598 79.7372479 148 102.22821 119.05598 135.306885 141.670181 124.636169 103.910416 141.815186 88.1665649 121.792605 76.7554626 135.306885 39.5713501 106.225128 56.462616"></polygon>
            <polygon id="Line" stroke="#F5A623" points="88.4267578 50.1279564 86.7941284 72.8450546 64.8653643 74.9392833 73.5640869 93.032959 57.0469666 110.716141 74.8653259 114.031982 83.9584656 126.74295 97.3648987 110.716141 115.528931 117.448883 111.768616 98.6601028 125.454773 90.4428406 111.768616 80.9436874 118.218323 62.9271088 100.540405 64.4023895"></polygon>
            <path d="M49.5,34.5 L40.5,26.5" id="Line-2" stroke="#FFFFFF" fill="#D8D8D8"></path>
            <path d="M163.5,114.5 L153.5,112.5" id="Line-2" stroke="#FFFFFF" fill="#D8D8D8"></path>
            <path d="M20.5,98.5 L0.5,102.5" id="Line-2" stroke="#FFFFFF" fill="#D8D8D8"></path>
            <path d="M113.5,18.5 L118.5,0.5" id="Line-2" stroke="#FFFFFF"></path>
            <path d="M110.5,157.5 L106.5,145.5" id="Line-2" stroke="#FFFFFF" fill="#D8D8D8"></path>
            <path d="M116,30.3433224 L126,12.3433224" id="Line-2" stroke="#F8E71C"></path>
            <path d="M149,63.3433224 L161.5,55.5" id="Line-2" stroke="#F8E71C"></path>
            <path d="M48,162.343322 L58,144.343322" id="Line-2" stroke="#F8E71C"></path>
        </g>
    </g>
</svg>