<?xml version="1.0" encoding="UTF-8"?>
<svg width="328px" height="319px" viewBox="0 0 328 319" version="1.1" xmlns="http://www.w3.org/2000/svg" xmlns:xlink="http://www.w3.org/1999/xlink">
    <!-- Generator: Sketch 51.3 (57544) - http://www.bohemiancoding.com/sketch -->
    <title>Group 3</title>
    <desc>Created with Sketch.</desc>
    <defs></defs>
    <g id="Page-1" stroke="none" stroke-width="1" fill="none" fill-rule="evenodd" stroke-linecap="square">
        <g id="Group-3" transform="translate(0.000000, 1.000000)">
            <polygon id="Line" stroke="#D0021B" points="158.558167 79.9388428 131.425232 128.185547 75.1292114 128.185547 104.213074 184.969421 70 232.263073 123.253363 224.736572 131.425232 294.491211 174.004578 241.718438 220.600464 241.718438 209.447702 201.03545 260 180.903346 204.556119 149.30927 220.600464 110.262482 180.404772 116.111771"></polygon>
            <polyline id="Line-14" stroke="#9B9B9B" transform="translate(131.437036, 157.379468) rotate(-14.000000) translate(-131.437036, -157.379468) " points="141.161607 149.106855 135.099001 150.791166 129.036394 152.475477 121.712465 165.652082"></polyline>
            <polyline id="Line-14" stroke="#9B9B9B" transform="translate(190.756196, 180.505952) rotate(142.000000) translate(-190.756196, -180.505952) " points="200.480767 172.233339 194.418161 173.91765 186.584776 177.246881 181.031625 188.778566"></polyline>
            <polyline id="Line-14" stroke="#9B9B9B" transform="translate(154.064875, 204.902908) rotate(203.000000) translate(-154.064875, -204.902908) " points="171.709819 205.23394 152.091105 199.997474 136.419932 209.808342"></polyline>
            <polyline id="Line-14" stroke="#9B9B9B" transform="translate(171.826280, 145.242311) rotate(-28.000000) translate(-171.826280, -145.242311) " points="183.179201 157.601412 179.126146 143.61844 171.82628 136.301088 160.473359 132.883211"></polyline>
            <path d="M79.0197374,85.2377673 L46.5,60.5" id="Line-2" stroke="#F5A623"></path>
            <path d="M295.5,224.5 L254,213" id="Line-2" stroke="#F5A623"></path>
            <path d="M62.2241931,187 L0.5,201.5" id="Line-2" stroke="#F5A623"></path>
            <path d="M204,79.3568724 L223.121007,31" id="Line-2" stroke="#F5A623"></path>
            <path d="M189,73 L206.5,9.5" id="Line-2" stroke="#D0021B"></path>
            <path d="M247,126.38523 L327.457408,67" id="Line-2" stroke="#D0021B"></path>
            <path d="M82.5,306.5 L96.5,264.5" id="Line-2" stroke="#D0021B"></path>
            <path d="M205.5,292.5 L187,259" id="Line-2" stroke="#F5A623"></path>
            <path d="M31.5,43.5 L27.5,48.5" id="Line-12" stroke="#FFFFFF"></path>
            <path d="M212.247455,1.40332045 L206,0" id="Line-12" stroke="#FFFFFF"></path>
            <path d="M80.2474548,317.40332 L74,316" id="Line-12" stroke="#FFFFFF"></path>
            <path d="M305.569608,225 L303,230.864905" id="Line-12" stroke="#FFFFFF"></path>
        </g>
    </g>
</svg>