<?xml version="1.0" encoding="UTF-8"?>
<svg width="164px" height="158px" viewBox="0 0 164 158" version="1.1" xmlns="http://www.w3.org/2000/svg" xmlns:xlink="http://www.w3.org/1999/xlink">
    <!-- Generator: Sketch 51.3 (57544) - http://www.bohemiancoding.com/sketch -->
    <title>Group 2</title>
    <desc>Created with Sketch.</desc>
    <defs></defs>
    <g id="Page-1" stroke="none" stroke-width="1" fill="none" fill-rule="evenodd" stroke-linecap="square">
        <g id="Group-2">
            <polygon id="Line" stroke="#F5A623" points="78.3783875 20.9985046 78.3783875 65.7333679 39.5550995 67.8787231 61.7707571 92.3612332 31.3266296 123.518097 69.0745239 119.05598 79.7372479 148 102.22821 119.05598 135.306885 141.670181 124.636169 103.910416 141.815186 88.1665649 121.792605 76.7554626 135.306885 39.5713501 106.225128 56.462616"></polygon>
            <polygon id="Line" stroke="#FFFFFF" points="88.4267578 50.1279564 86.7941284 72.8450546 64.8653643 74.9392833 73.5640869 93.032959 57.0469666 110.716141 74.8653259 114.031982 83.9584656 126.74295 97.3648987 110.716141 115.528931 117.448883 111.768616 98.6601028 125.454773 90.4428406 111.768616 80.9436874 118.218323 62.9271088 100.540405 64.4023895"></polygon>
            <polygon id="Line" stroke="#D0021B" points="91.6414185 59.8707886 88.2503967 76.1144409 71.8741608 77.9025955 77.5146027 93.6591988 66.9483337 106.401169 79.1558838 109.649536 86.1653137 118.612091 97.625764 107.454728 109.99794 109.649536 109.99794 96.2823257 118.496552 89.8060455 108.718613 81.6092148 111.974503 67.8201542 100.634293 67.8201542"></polygon>
            <path d="M49.5,34.5 L40.5,26.5" id="Line-2" stroke="#F8E71C"></path>
            <path d="M163.5,114.5 L153.5,112.5" id="Line-2" stroke="#F8E71C"></path>
            <path d="M20.5,98.5 L0.5,102.5" id="Line-2" stroke="#F8E71C"></path>
            <path d="M113.5,18.5 L118.5,0.5" id="Line-2" stroke="#F8E71C"></path>
            <path d="M110.5,157.5 L106.5,145.5" id="Line-2" stroke="#F8E71C"></path>
        </g>
    </g>
</svg>