<?xml version="1.0" encoding="utf-8"?>
<svg xmlns="http://www.w3.org/2000/svg" width="330.000" height="319.000" viewBox="-173.000 -161.000 330.000 319.000" xmlns:bx="https://boxy-svg.com"><defs><bx:export><bx:file format="svg" path="smokes2.svg"/></bx:export></defs><rect x="-200.73" y="-171.79" width="393.086" height="381.844" style="stroke: rgb(0, 0, 0);"/><path fill="none" stroke-width="2.0" stroke-linecap="round" stroke-linejoin="round" d="M 21.45 -101.125 L 41.299 -107.38 C 41.299 -107.38 56.571 -105.691 60.691 -101.178 C 62.507 -99.188 69.254 -93.07 70.473 -89.784 C 71.927 -85.867 72.791 -80.932 72.791 -80.932 M 64.621 -64.147 L 90.851 -53.447 L 113.863 -32.433 L 127.06 -5.481 L 128.637 28.269 L 118.853 58.2 L 98.249 78.081 L 74.055 83.195 M 88.666 96.309 L 83.311 117.811 L 67.39 133.908 L 40.475 136.418 L 21.135 127.882 M 16.643 113.151 C 16.643 113.264 -1.869 144.231 -1.869 144.118 L -41.05 163.682 C -34.725 164.23 -76.108 153.054 -76.258 153.042 L -97.99 127.009 L -109.544 87.734 L -95.97 56.552 M -119.874 66.409 C -118.974 71.828 -137.683 58.384 -137.703 58.256 L -152.594 39.092 L -154.753 15.997 L -145.245 -2.827 L -124.595 -15.117 M -102.963 -3.54 L -111.726 -43.169 L -104.233 -78.795 L -69.23 -102.969 L -25.975 -107.553 L -1.16 -97.993 L 18.675 -80.183" style="stroke: rgb(62, 62, 62);"/><path fill="none" stroke-width="2.0" stroke-linecap="round" stroke-linejoin="round" d="M 4.141 -37.327 L 13.692 -40.337 C 13.692 -40.337 21.041 -39.524 23.024 -37.353 C 23.898 -36.395 27.145 -33.451 27.731 -31.87 C 28.431 -29.985 28.847 -27.61 28.847 -27.61 M 24.915 -19.533 L 37.538 -14.384 L 48.611 -4.272 L 54.962 8.698 L 55.721 24.939 L 51.013 39.343 L 41.098 48.91 L 29.455 51.371 M 36.486 57.681 L 33.909 68.028 L 26.248 75.774 L 13.296 76.982 L 3.989 72.875 M 1.827 65.786 C 1.827 65.84 -7.081 80.742 -7.081 80.688 L -25.935 90.102 C -22.892 90.366 -42.807 84.988 -42.879 84.982 L -53.337 72.455 L -58.897 53.555 L -52.365 38.549 M -63.868 43.293 C -63.435 45.901 -72.438 39.431 -72.447 39.369 L -79.613 30.147 L -80.652 19.034 L -76.077 9.975 L -66.139 4.061 M -55.73 9.632 L -59.947 -9.438 L -56.341 -26.582 L -39.497 -38.215 L -18.681 -40.42 L -6.74 -35.82 L 2.805 -27.25" style="stroke: rgb(62, 62, 62); transform-box: fill-box; transform-origin: 50% 50%;" transform="matrix(0.707107, 0.707107, -0.707107, 0.707107, 0.000002, -0.000001)"/></svg>