<?xml version="1.0" ?><!DOCTYPE svg  PUBLIC '-//W3C//DTD SVG 1.1//EN'  'http://www.w3.org/Graphics/SVG/1.1/DTD/svg11.dtd'><svg xmlns="http://www.w3.org/2000/svg" width="41.000" height="143.000" viewBox="-19.000 -124.000 41.000 143.000"><line x1="0.0" y1="0.0" x2="0.0" y2="0.0" stroke="none" fill="none" stroke-width="2.0" stroke-linecap="round"/><line x1="0.0" y1="-0.0" x2="0.0" y2="-0.0" stroke="#808080" fill="none" stroke-width="8.0" stroke-linecap="round"/><polyline points="0.0,-0.0 0.0,-0.0 0.0,-0.0 0.0,-0.0 0.0,-0.0 0.0,-0.0 0.0,-0.0 0.0,-0.0 0.0,-0.0 0.0,-0.0 0.0,-0.0 0.0,-0.0 0.0,-0.0 0.0,-0.0 0.0,-0.0 0.0,-0.0 0.0,-0.0 0.0,-0.0 0.0,-0.0 0.0,-0.0 0.0,-0.0 0.0,-0.0 0.0,-0.0 0.0,-0.0 0.0,-0.0 0.0,-0.0 0.0,-0.0" stroke="#d3d3d3" fill="none" stroke-width="2.0" stroke-linecap="round" stroke-linejoin="round"/><text x="-1.0" y="-2" fill="#d3d3d3" stroke-width="0.0" font-family="Arial" font-size="8.0pt">0</text><text x="-1.0" y="-2" fill="#d3d3d3" stroke-width="0.0" font-family="Arial" font-size="8.0pt">1</text><text x="-1.0" y="-2" fill="#d3d3d3" stroke-width="0.0" font-family="Arial" font-size="8.0pt">2</text><text x="-1.0" y="-2" fill="#d3d3d3" stroke-width="0.0" font-family="Arial" font-size="8.0pt">3</text><text x="-1.0" y="-2" fill="#d3d3d3" stroke-width="0.0" font-family="Arial" font-size="8.0pt">4</text><text x="-1.0" y="-2" fill="#d3d3d3" stroke-width="0.0" font-family="Arial" font-size="8.0pt">5</text><text x="-1.0" y="-2" fill="#d3d3d3" stroke-width="0.0" font-family="Arial" font-size="8.0pt">6</text><text x="-1.0" y="-2" fill="#d3d3d3" stroke-width="0.0" font-family="Arial" font-size="8.0pt">7</text><text x="-1.0" y="-2" fill="#d3d3d3" stroke-width="0.0" font-family="Arial" font-size="8.0pt">8</text><text x="-1.0" y="-2" fill="#d3d3d3" stroke-width="0.0" font-family="Arial" font-size="8.0pt">9</text><text x="-1.0" y="-2" fill="#d3d3d3" stroke-width="0.0" font-family="Arial" font-size="8.0pt">10</text><text x="-1.0" y="-2" fill="#d3d3d3" stroke-width="0.0" font-family="Arial" font-size="8.0pt">11</text><text x="-1.0" y="-2" fill="#d3d3d3" stroke-width="0.0" font-family="Arial" font-size="8.0pt">12</text><polyline points="0.0,-0.0 2.930813549604858,-55.92325394625613 5.861627099209716,-111.84650789251226" stroke="#800040" fill="none" stroke-width="2.0" stroke-linecap="round" stroke-linejoin="round"/><text x="1.9308135496048582" y="-58" fill="#800040" stroke-width="0.0" font-family="Arial" font-size="8.0pt">13</text><polygon points="5.861627099209716,-111.84650789251226 0.3974558192503519,-103.12052186093582 5.495275405509109,-104.85610114923024 10.38375116679609,-102.59716229850638" stroke="#800040" fill="#800040" fill-rule="evenodd" stroke-linejoin="round"/></svg>