<?xml version="1.0" ?><!DOCTYPE svg  PUBLIC '-//W3C//DTD SVG 1.1//EN'  'http://www.w3.org/Graphics/SVG/1.1/DTD/svg11.dtd'><svg xmlns="http://www.w3.org/2000/svg" width="46.000" height="235.000" viewBox="-19.000 -216.000 46.000 235.000"><line x1="0.0" y1="0.0" x2="0.0" y2="0.0" stroke="none" fill="none" stroke-width="2.0" stroke-linecap="round"/><line x1="0.0" y1="-0.0" x2="0.0" y2="-0.0" stroke="#808080" fill="none" stroke-width="8.0" stroke-linecap="round"/><polyline points="0.0,-0.0 0.0,-0.0 0.0,-0.0 0.0,-0.0 0.0,-0.0 0.0,-0.0 0.0,-0.0 0.0,-0.0 0.0,-0.0 0.0,-0.0 0.0,-0.0 0.0,-0.0 0.0,-0.0 0.0,-0.0 0.0,-0.0 0.0,-0.0 0.0,-0.0 0.0,-0.0 0.0,-0.0 0.0,-0.0 0.0,-0.0" stroke="#d3d3d3" fill="none" stroke-width="2.0" stroke-linecap="round" stroke-linejoin="round"/><text x="-1.0" y="-2" fill="#d3d3d3" stroke-width="0.0" font-family="Arial" font-size="8.0pt">0</text><text x="-1.0" y="-2" fill="#d3d3d3" stroke-width="0.0" font-family="Arial" font-size="8.0pt">1</text><text x="-1.0" y="-2" fill="#d3d3d3" stroke-width="0.0" font-family="Arial" font-size="8.0pt">2</text><text x="-1.0" y="-2" fill="#d3d3d3" stroke-width="0.0" font-family="Arial" font-size="8.0pt">3</text><text x="-1.0" y="-2" fill="#d3d3d3" stroke-width="0.0" font-family="Arial" font-size="8.0pt">4</text><text x="-1.0" y="-2" fill="#d3d3d3" stroke-width="0.0" font-family="Arial" font-size="8.0pt">5</text><text x="-1.0" y="-2" fill="#d3d3d3" stroke-width="0.0" font-family="Arial" font-size="8.0pt">6</text><text x="-1.0" y="-2" fill="#d3d3d3" stroke-width="0.0" font-family="Arial" font-size="8.0pt">7</text><text x="-1.0" y="-2" fill="#d3d3d3" stroke-width="0.0" font-family="Arial" font-size="8.0pt">8</text><text x="-1.0" y="-2" fill="#d3d3d3" stroke-width="0.0" font-family="Arial" font-size="8.0pt">9</text><polyline points="0.0,-0.0 5.338267536780277,-101.86021254496653 10.676535073560554,-203.72042508993306" stroke="#800040" fill="none" stroke-width="2.0" stroke-linecap="round" stroke-linejoin="round"/><text x="4.338267536780277" y="-104" fill="#800040" stroke-width="0.0" font-family="Arial" font-size="8.0pt">10</text><polygon points="10.676535073560554,-203.72042508993306 5.21236379360119,-194.99443905835662 10.310183379859946,-196.73001834665104 15.198659141146928,-194.47107949592717" stroke="#800040" fill="#800040" fill-rule="evenodd" stroke-linejoin="round"/></svg>