<?xml version="1.0" ?><!DOCTYPE svg  PUBLIC '-//W3C//DTD SVG 1.1//EN'  'http://www.w3.org/Graphics/SVG/1.1/DTD/svg11.dtd'><svg xmlns="http://www.w3.org/2000/svg" width="352.000" height="389.000" viewBox="-180.000 -211.000 352.000 389.000"><line x1="0.0" y1="0.0" x2="0.0" y2="0.0" stroke="none" fill="none" stroke-width="2.0" stroke-linecap="round"/><line x1="0.0" y1="-0.0" x2="0.0" y2="-0.0" stroke="#808080" fill="none" stroke-width="8.0" stroke-linecap="round"/><line x1="-3.2139380484326963" y1="-3.83022221559489" x2="-6.4278760968653925" y2="-7.66044443118978" stroke="#d3d3d3" fill="none" stroke-width="2.0" stroke-linecap="round"/><line x1="-9.641814145298088" y1="-11.49066664678467" x2="-12.855752193730785" y2="-15.32088886237956" stroke="#d3d3d3" fill="none" stroke-width="2.0" stroke-linecap="round"/><line x1="-16.06969024216348" y1="-19.15111107797445" x2="-19.283628290596177" y2="-22.98133329356934" stroke="#d3d3d3" fill="none" stroke-width="2.0" stroke-linecap="round"/><line x1="-22.49756633902887" y1="-26.81155550916423" x2="-25.711504387461567" y2="-30.64177772475912" stroke="#d3d3d3" fill="none" stroke-width="2.0" stroke-linecap="round"/><line x1="-28.92544243589426" y1="-34.47199994035401" x2="-32.139380484326956" y2="-38.3022221559489" stroke="#d3d3d3" fill="none" stroke-width="2.0" stroke-linecap="round"/><line x1="-35.35331853275965" y1="-42.132444371543784" x2="-38.567256581192346" y2="-45.96266658713867" stroke="#d3d3d3" fill="none" stroke-width="2.0" stroke-linecap="round"/><line x1="-41.78119462962504" y1="-49.79288880273356" x2="-44.995132678057736" y2="-53.623111018328444" stroke="#d3d3d3" fill="none" stroke-width="2.0" stroke-linecap="round"/><line x1="-48.20907072649043" y1="-57.45333323392333" x2="-51.423008774923126" y2="-61.28355544951822" stroke="#d3d3d3" fill="none" stroke-width="2.0" stroke-linecap="round"/><line x1="-54.63694682335582" y1="-65.1137776651131" x2="-57.850884871788516" y2="-68.94399988070799" stroke="#d3d3d3" fill="none" stroke-width="2.0" stroke-linecap="round"/><line x1="-61.06482292022121" y1="-72.77422209630288" x2="-64.27876096865391" y2="-76.60444431189777" stroke="#d3d3d3" fill="none" stroke-width="2.0" stroke-linecap="round"/><line x1="-67.49269901708661" y1="-80.43466652749265" x2="-70.7066370655193" y2="-84.26488874308754" stroke="#d3d3d3" fill="none" stroke-width="2.0" stroke-linecap="round"/><line x1="-73.920575113952" y1="-88.09511095868243" x2="-77.13451316238469" y2="-91.92533317427731" stroke="#d3d3d3" fill="none" stroke-width="2.0" stroke-linecap="round"/><line x1="-80.34845121081739" y1="-95.7555553898722" x2="-83.56238925925008" y2="-99.58577760546709" stroke="#d3d3d3" fill="none" stroke-width="2.0" stroke-linecap="round"/><text x="-84.56238925925008" y="-102" fill="#d3d3d3" stroke-width="0.0" font-family="Arial" font-size="8.0pt">0</text><line x1="-86.77632730768278" y1="-103.41599982106197" x2="-89.99026535611547" y2="-107.24622203665686" stroke="#d3d3d3" fill="none" stroke-width="2.0" stroke-linecap="round"/><line x1="-93.20420340454817" y1="-111.07644425225175" x2="-96.41814145298086" y2="-114.90666646784663" stroke="#d3d3d3" fill="none" stroke-width="2.0" stroke-linecap="round"/><line x1="-99.63207950141356" y1="-118.73688868344152" x2="-102.84601754984625" y2="-122.56711089903641" stroke="#d3d3d3" fill="none" stroke-width="2.0" stroke-linecap="round"/><line x1="-106.05995559827895" y1="-126.3973331146313" x2="-109.27389364671164" y2="-130.22755533022618" stroke="#d3d3d3" fill="none" stroke-width="2.0" stroke-linecap="round"/><line x1="-112.48783169514434" y1="-134.05777754582107" x2="-115.70176974357703" y2="-137.88799976141595" stroke="#d3d3d3" fill="none" stroke-width="2.0" stroke-linecap="round"/><line x1="-118.91570779200973" y1="-141.71822197701084" x2="-122.12964584044242" y2="-145.54844419260573" stroke="#d3d3d3" fill="none" stroke-width="2.0" stroke-linecap="round"/><line x1="-125.34358388887512" y1="-149.37866640820062" x2="-128.55752193730783" y2="-153.2088886237955" stroke="#d3d3d3" fill="none" stroke-width="2.0" stroke-linecap="round"/><line x1="-131.77145998574053" y1="-157.0391108393904" x2="-134.98539803417324" y2="-160.86933305498528" stroke="#d3d3d3" fill="none" stroke-width="2.0" stroke-linecap="round"/><line x1="-138.19933608260595" y1="-164.69955527058016" x2="-141.41327413103866" y2="-168.52977748617505" stroke="#d3d3d3" fill="none" stroke-width="2.0" stroke-linecap="round"/><line x1="-144.62721217947137" y1="-172.35999970176994" x2="-147.84115022790408" y2="-176.19022191736482" stroke="#d3d3d3" fill="none" stroke-width="2.0" stroke-linecap="round"/><line x1="-151.0550882763368" y1="-180.0204441329597" x2="-154.2690263247695" y2="-183.8506663485546" stroke="#d3d3d3" fill="none" stroke-width="2.0" stroke-linecap="round"/><line x1="-157.4829643732022" y1="-187.68088856414948" x2="-160.69690242163492" y2="-191.51111077974437" stroke="#d3d3d3" fill="none" stroke-width="2.0" stroke-linecap="round"/><line x1="-163.91084047006763" y1="-195.34133299533926" x2="-167.12477851850034" y2="-199.17155521093414" stroke="#d3d3d3" fill="none" stroke-width="2.0" stroke-linecap="round"/><line x1="-167.12477851850034" y1="-194.17155521093414" x2="-167.12477851850034" y2="-189.17155521093414" stroke="#d3d3d3" fill="none" stroke-width="2.0" stroke-linecap="round"/><line x1="-167.12477851850034" y1="-184.17155521093414" x2="-167.12477851850034" y2="-179.17155521093414" stroke="#d3d3d3" fill="none" stroke-width="2.0" stroke-linecap="round"/><line x1="-167.12477851850034" y1="-174.17155521093414" x2="-167.12477851850034" y2="-169.17155521093414" stroke="#d3d3d3" fill="none" stroke-width="2.0" stroke-linecap="round"/><text x="-168.12477851850034" y="-171" fill="#d3d3d3" stroke-width="0.0" font-family="Arial" font-size="8.0pt">1</text><line x1="-167.12477851850034" y1="-164.17155521093414" x2="-167.12477851850034" y2="-159.17155521093414" stroke="#d3d3d3" fill="none" stroke-width="2.0" stroke-linecap="round"/><line x1="-167.12477851850034" y1="-154.17155521093414" x2="-167.12477851850034" y2="-149.17155521093414" stroke="#d3d3d3" fill="none" stroke-width="2.0" stroke-linecap="round"/><line x1="-167.12477851850034" y1="-144.17155521093414" x2="-167.12477851850034" y2="-139.17155521093414" stroke="#d3d3d3" fill="none" stroke-width="2.0" stroke-linecap="round"/><polyline points="-167.12477851850034,-139.17155521093414 -127.12477851850034,-139.17155521093414 -87.12477851850034,-139.17155521093414" stroke="#004000" fill="none" stroke-width="2.0" stroke-linecap="round" stroke-linejoin="round"/><text x="-128.12477851850034" y="-141" fill="#004000" stroke-width="0.0" font-family="Arial" font-size="8.0pt">2</text><line x1="-82.12477851850034" y1="-139.17155521093414" x2="-77.12477851850034" y2="-139.17155521093414" stroke="#d3d3d3" fill="none" stroke-width="2.0" stroke-linecap="round"/><line x1="-72.12477851850034" y1="-139.17155521093414" x2="-67.12477851850034" y2="-139.17155521093414" stroke="#d3d3d3" fill="none" stroke-width="2.0" stroke-linecap="round"/><line x1="-62.124778518500335" y1="-139.17155521093414" x2="-57.124778518500335" y2="-139.17155521093414" stroke="#d3d3d3" fill="none" stroke-width="2.0" stroke-linecap="round"/><line x1="-52.124778518500335" y1="-139.17155521093414" x2="-47.124778518500335" y2="-139.17155521093414" stroke="#d3d3d3" fill="none" stroke-width="2.0" stroke-linecap="round"/><line x1="-42.124778518500335" y1="-139.17155521093414" x2="-37.124778518500335" y2="-139.17155521093414" stroke="#d3d3d3" fill="none" stroke-width="2.0" stroke-linecap="round"/><line x1="-32.124778518500335" y1="-139.17155521093414" x2="-27.124778518500335" y2="-139.17155521093414" stroke="#d3d3d3" fill="none" stroke-width="2.0" stroke-linecap="round"/><line x1="-22.124778518500335" y1="-139.17155521093414" x2="-17.124778518500335" y2="-139.17155521093414" stroke="#d3d3d3" fill="none" stroke-width="2.0" stroke-linecap="round"/><line x1="-12.124778518500335" y1="-139.17155521093414" x2="-7.124778518500336" y2="-139.17155521093414" stroke="#d3d3d3" fill="none" stroke-width="2.0" stroke-linecap="round"/><text x="-8.124778518500335" y="-141" fill="#d3d3d3" stroke-width="0.0" font-family="Arial" font-size="8.0pt">3</text><line x1="-2.124778518500337" y1="-139.17155521093414" x2="2.875221481499662" y2="-139.17155521093414" stroke="#d3d3d3" fill="none" stroke-width="2.0" stroke-linecap="round"/><line x1="7.875221481499661" y1="-139.17155521093414" x2="12.875221481499661" y2="-139.17155521093414" stroke="#d3d3d3" fill="none" stroke-width="2.0" stroke-linecap="round"/><line x1="17.87522148149966" y1="-139.17155521093414" x2="22.87522148149966" y2="-139.17155521093414" stroke="#d3d3d3" fill="none" stroke-width="2.0" stroke-linecap="round"/><line x1="27.87522148149966" y1="-139.17155521093414" x2="32.87522148149966" y2="-139.17155521093414" stroke="#d3d3d3" fill="none" stroke-width="2.0" stroke-linecap="round"/><line x1="37.87522148149966" y1="-139.17155521093414" x2="42.87522148149966" y2="-139.17155521093414" stroke="#d3d3d3" fill="none" stroke-width="2.0" stroke-linecap="round"/><line x1="47.87522148149966" y1="-139.17155521093414" x2="52.87522148149966" y2="-139.17155521093414" stroke="#d3d3d3" fill="none" stroke-width="2.0" stroke-linecap="round"/><line x1="57.87522148149966" y1="-139.17155521093414" x2="62.87522148149966" y2="-139.17155521093414" stroke="#d3d3d3" fill="none" stroke-width="2.0" stroke-linecap="round"/><line x1="67.87522148149965" y1="-139.17155521093414" x2="72.87522148149965" y2="-139.17155521093414" stroke="#d3d3d3" fill="none" stroke-width="2.0" stroke-linecap="round"/><polyline points="72.87522148149965,-139.17155521093414 112.87522148149964,-139.17155521093414 152.87522148149964,-139.17155521093414" stroke="#004000" fill="none" stroke-width="2.0" stroke-linecap="round" stroke-linejoin="round"/><text x="111.87522148149964" y="-141" fill="#004000" stroke-width="0.0" font-family="Arial" font-size="8.0pt">4</text><line x1="152.87522148149964" y1="-134.17155521093414" x2="152.87522148149964" y2="-129.17155521093414" stroke="#d3d3d3" fill="none" stroke-width="2.0" stroke-linecap="round"/><line x1="152.87522148149964" y1="-124.17155521093414" x2="152.87522148149964" y2="-119.17155521093414" stroke="#d3d3d3" fill="none" stroke-width="2.0" stroke-linecap="round"/><line x1="152.87522148149964" y1="-114.17155521093414" x2="152.87522148149964" y2="-109.17155521093414" stroke="#d3d3d3" fill="none" stroke-width="2.0" stroke-linecap="round"/><text x="151.87522148149964" y="-111" fill="#d3d3d3" stroke-width="0.0" font-family="Arial" font-size="8.0pt">5</text><line x1="152.87522148149964" y1="-104.17155521093414" x2="152.87522148149964" y2="-99.17155521093414" stroke="#d3d3d3" fill="none" stroke-width="2.0" stroke-linecap="round"/><line x1="152.87522148149964" y1="-94.17155521093414" x2="152.87522148149964" y2="-89.17155521093414" stroke="#d3d3d3" fill="none" stroke-width="2.0" stroke-linecap="round"/><line x1="152.87522148149964" y1="-84.17155521093414" x2="152.87522148149964" y2="-79.17155521093414" stroke="#d3d3d3" fill="none" stroke-width="2.0" stroke-linecap="round"/><polyline points="152.87522148149964,-79.17155521093414 112.87522148149964,-79.17155521093414 72.87522148149964,-79.17155521093414" stroke="#004000" fill="none" stroke-width="2.0" stroke-linecap="round" stroke-linejoin="round"/><text x="111.87522148149964" y="-81" fill="#004000" stroke-width="0.0" font-family="Arial" font-size="8.0pt">6</text><line x1="67.87522148149964" y1="-79.17155521093414" x2="62.875221481499636" y2="-79.17155521093414" stroke="#d3d3d3" fill="none" stroke-width="2.0" stroke-linecap="round"/><line x1="57.875221481499636" y1="-79.17155521093414" x2="52.875221481499636" y2="-79.17155521093414" stroke="#d3d3d3" fill="none" stroke-width="2.0" stroke-linecap="round"/><line x1="47.875221481499636" y1="-79.17155521093414" x2="42.875221481499636" y2="-79.17155521093414" stroke="#d3d3d3" fill="none" stroke-width="2.0" stroke-linecap="round"/><line x1="37.875221481499636" y1="-79.17155521093414" x2="32.875221481499636" y2="-79.17155521093414" stroke="#d3d3d3" fill="none" stroke-width="2.0" stroke-linecap="round"/><line x1="27.875221481499636" y1="-79.17155521093414" x2="22.875221481499636" y2="-79.17155521093414" stroke="#d3d3d3" fill="none" stroke-width="2.0" stroke-linecap="round"/><line x1="17.875221481499636" y1="-79.17155521093414" x2="12.875221481499636" y2="-79.17155521093414" stroke="#d3d3d3" fill="none" stroke-width="2.0" stroke-linecap="round"/><line x1="7.875221481499637" y1="-79.17155521093414" x2="2.875221481499638" y2="-79.17155521093414" stroke="#d3d3d3" fill="none" stroke-width="2.0" stroke-linecap="round"/><line x1="-2.124778518500361" y1="-79.17155521093414" x2="-7.12477851850036" y2="-79.17155521093414" stroke="#d3d3d3" fill="none" stroke-width="2.0" stroke-linecap="round"/><text x="-8.12477851850036" y="-81" fill="#d3d3d3" stroke-width="0.0" font-family="Arial" font-size="8.0pt">7</text><line x1="-12.12477851850036" y1="-79.17155521093414" x2="-17.12477851850036" y2="-79.17155521093414" stroke="#d3d3d3" fill="none" stroke-width="2.0" stroke-linecap="round"/><line x1="-22.12477851850036" y1="-79.17155521093414" x2="-27.12477851850036" y2="-79.17155521093414" stroke="#d3d3d3" fill="none" stroke-width="2.0" stroke-linecap="round"/><line x1="-32.12477851850036" y1="-79.17155521093414" x2="-37.12477851850036" y2="-79.17155521093414" stroke="#d3d3d3" fill="none" stroke-width="2.0" stroke-linecap="round"/><line x1="-42.12477851850036" y1="-79.17155521093414" x2="-47.12477851850036" y2="-79.17155521093414" stroke="#d3d3d3" fill="none" stroke-width="2.0" stroke-linecap="round"/><line x1="-52.12477851850036" y1="-79.17155521093414" x2="-57.12477851850036" y2="-79.17155521093414" stroke="#d3d3d3" fill="none" stroke-width="2.0" stroke-linecap="round"/><line x1="-62.12477851850036" y1="-79.17155521093414" x2="-67.12477851850035" y2="-79.17155521093414" stroke="#d3d3d3" fill="none" stroke-width="2.0" stroke-linecap="round"/><line x1="-72.12477851850035" y1="-79.17155521093414" x2="-77.12477851850035" y2="-79.17155521093414" stroke="#d3d3d3" fill="none" stroke-width="2.0" stroke-linecap="round"/><line x1="-82.12477851850035" y1="-79.17155521093414" x2="-87.12477851850035" y2="-79.17155521093414" stroke="#d3d3d3" fill="none" stroke-width="2.0" stroke-linecap="round"/><polyline points="-87.12477851850035,-79.17155521093414 -127.12477851850034,-79.17155521093414 -167.12477851850034,-79.17155521093414" stroke="#004000" fill="none" stroke-width="2.0" stroke-linecap="round" stroke-linejoin="round"/><text x="-128.12477851850034" y="-81" fill="#004000" stroke-width="0.0" font-family="Arial" font-size="8.0pt">8</text><line x1="-167.12477851850034" y1="-74.17155521093414" x2="-167.12477851850034" y2="-69.17155521093414" stroke="#d3d3d3" fill="none" stroke-width="2.0" stroke-linecap="round"/><line x1="-167.12477851850034" y1="-64.17155521093414" x2="-167.12477851850034" y2="-59.171555210934144" stroke="#d3d3d3" fill="none" stroke-width="2.0" stroke-linecap="round"/><line x1="-167.12477851850034" y1="-54.171555210934144" x2="-167.12477851850034" y2="-49.171555210934144" stroke="#d3d3d3" fill="none" stroke-width="2.0" stroke-linecap="round"/><text x="-168.12477851850034" y="-51" fill="#d3d3d3" stroke-width="0.0" font-family="Arial" font-size="8.0pt">9</text><line x1="-167.12477851850034" y1="-44.171555210934144" x2="-167.12477851850034" y2="-39.171555210934144" stroke="#d3d3d3" fill="none" stroke-width="2.0" stroke-linecap="round"/><line x1="-167.12477851850034" y1="-34.171555210934144" x2="-167.12477851850034" y2="-29.171555210934144" stroke="#d3d3d3" fill="none" stroke-width="2.0" stroke-linecap="round"/><line x1="-167.12477851850034" y1="-24.171555210934144" x2="-167.12477851850034" y2="-19.171555210934144" stroke="#d3d3d3" fill="none" stroke-width="2.0" stroke-linecap="round"/><polyline points="-167.12477851850034,-19.171555210934144 -127.12477851850034,-19.171555210934134 -87.12477851850034,-19.171555210934123" stroke="#004000" fill="none" stroke-width="2.0" stroke-linecap="round" stroke-linejoin="round"/><text x="-128.12477851850034" y="-21" fill="#004000" stroke-width="0.0" font-family="Arial" font-size="8.0pt">10</text><line x1="-82.12477851850034" y1="-19.171555210934123" x2="-77.12477851850034" y2="-19.171555210934123" stroke="#d3d3d3" fill="none" stroke-width="2.0" stroke-linecap="round"/><line x1="-72.12477851850034" y1="-19.171555210934123" x2="-67.12477851850034" y2="-19.171555210934123" stroke="#d3d3d3" fill="none" stroke-width="2.0" stroke-linecap="round"/><line x1="-62.124778518500335" y1="-19.171555210934123" x2="-57.124778518500335" y2="-19.171555210934123" stroke="#d3d3d3" fill="none" stroke-width="2.0" stroke-linecap="round"/><line x1="-52.124778518500335" y1="-19.171555210934123" x2="-47.124778518500335" y2="-19.171555210934123" stroke="#d3d3d3" fill="none" stroke-width="2.0" stroke-linecap="round"/><line x1="-42.124778518500335" y1="-19.171555210934123" x2="-37.124778518500335" y2="-19.171555210934123" stroke="#d3d3d3" fill="none" stroke-width="2.0" stroke-linecap="round"/><line x1="-32.124778518500335" y1="-19.171555210934123" x2="-27.124778518500335" y2="-19.171555210934123" stroke="#d3d3d3" fill="none" stroke-width="2.0" stroke-linecap="round"/><line x1="-22.124778518500335" y1="-19.171555210934123" x2="-17.124778518500335" y2="-19.171555210934123" stroke="#d3d3d3" fill="none" stroke-width="2.0" stroke-linecap="round"/><line x1="-12.124778518500335" y1="-19.171555210934123" x2="-7.124778518500336" y2="-19.171555210934123" stroke="#d3d3d3" fill="none" stroke-width="2.0" stroke-linecap="round"/><text x="-8.124778518500335" y="-21" fill="#d3d3d3" stroke-width="0.0" font-family="Arial" font-size="8.0pt">11</text><line x1="-2.124778518500337" y1="-19.171555210934123" x2="2.875221481499662" y2="-19.171555210934123" stroke="#d3d3d3" fill="none" stroke-width="2.0" stroke-linecap="round"/><line x1="7.875221481499661" y1="-19.171555210934123" x2="12.875221481499661" y2="-19.171555210934123" stroke="#d3d3d3" fill="none" stroke-width="2.0" stroke-linecap="round"/><line x1="17.87522148149966" y1="-19.171555210934123" x2="22.87522148149966" y2="-19.171555210934123" stroke="#d3d3d3" fill="none" stroke-width="2.0" stroke-linecap="round"/><line x1="27.87522148149966" y1="-19.171555210934123" x2="32.87522148149966" y2="-19.171555210934123" stroke="#d3d3d3" fill="none" stroke-width="2.0" stroke-linecap="round"/><line x1="37.87522148149966" y1="-19.171555210934123" x2="42.87522148149966" y2="-19.171555210934123" stroke="#d3d3d3" fill="none" stroke-width="2.0" stroke-linecap="round"/><line x1="47.87522148149966" y1="-19.171555210934123" x2="52.87522148149966" y2="-19.171555210934123" stroke="#d3d3d3" fill="none" stroke-width="2.0" stroke-linecap="round"/><line x1="57.87522148149966" y1="-19.171555210934123" x2="62.87522148149966" y2="-19.171555210934123" stroke="#d3d3d3" fill="none" stroke-width="2.0" stroke-linecap="round"/><line x1="67.87522148149965" y1="-19.171555210934123" x2="72.87522148149965" y2="-19.171555210934123" stroke="#d3d3d3" fill="none" stroke-width="2.0" stroke-linecap="round"/><polyline points="72.87522148149965,-19.171555210934123 112.87522148149964,-19.171555210934113 152.87522148149964,-19.171555210934102" stroke="#004000" fill="none" stroke-width="2.0" stroke-linecap="round" stroke-linejoin="round"/><text x="111.87522148149964" y="-21" fill="#004000" stroke-width="0.0" font-family="Arial" font-size="8.0pt">12</text><line x1="152.87522148149964" y1="-14.171555210934102" x2="152.87522148149964" y2="-9.171555210934102" stroke="#d3d3d3" fill="none" stroke-width="2.0" stroke-linecap="round"/><line x1="152.87522148149964" y1="-4.171555210934103" x2="152.87522148149964" y2="0.8284447890658964" stroke="#d3d3d3" fill="none" stroke-width="2.0" stroke-linecap="round"/><line x1="152.87522148149964" y1="5.8284447890658955" x2="152.87522148149964" y2="10.828444789065895" stroke="#d3d3d3" fill="none" stroke-width="2.0" stroke-linecap="round"/><text x="151.87522148149964" y="9" fill="#d3d3d3" stroke-width="0.0" font-family="Arial" font-size="8.0pt">13</text><line x1="152.87522148149964" y1="15.828444789065895" x2="152.87522148149964" y2="20.828444789065895" stroke="#d3d3d3" fill="none" stroke-width="2.0" stroke-linecap="round"/><line x1="152.87522148149964" y1="25.828444789065895" x2="152.87522148149964" y2="30.828444789065895" stroke="#d3d3d3" fill="none" stroke-width="2.0" stroke-linecap="round"/><line x1="152.87522148149964" y1="35.82844478906589" x2="152.87522148149964" y2="40.82844478906589" stroke="#d3d3d3" fill="none" stroke-width="2.0" stroke-linecap="round"/><polyline points="152.87522148149964,40.82844478906589 112.87522148149964,40.828444789065884 72.87522148149964,40.82844478906588" stroke="#004000" fill="none" stroke-width="2.0" stroke-linecap="round" stroke-linejoin="round"/><text x="111.87522148149964" y="39" fill="#004000" stroke-width="0.0" font-family="Arial" font-size="8.0pt">14</text><line x1="67.87522148149964" y1="40.82844478906588" x2="62.875221481499636" y2="40.82844478906588" stroke="#d3d3d3" fill="none" stroke-width="2.0" stroke-linecap="round"/><line x1="57.875221481499636" y1="40.82844478906588" x2="52.875221481499636" y2="40.82844478906588" stroke="#d3d3d3" fill="none" stroke-width="2.0" stroke-linecap="round"/><line x1="47.875221481499636" y1="40.82844478906588" x2="42.875221481499636" y2="40.82844478906588" stroke="#d3d3d3" fill="none" stroke-width="2.0" stroke-linecap="round"/><line x1="37.875221481499636" y1="40.82844478906588" x2="32.875221481499636" y2="40.82844478906588" stroke="#d3d3d3" fill="none" stroke-width="2.0" stroke-linecap="round"/><line x1="27.875221481499636" y1="40.82844478906588" x2="22.875221481499636" y2="40.82844478906588" stroke="#d3d3d3" fill="none" stroke-width="2.0" stroke-linecap="round"/><line x1="17.875221481499636" y1="40.82844478906588" x2="12.875221481499636" y2="40.82844478906588" stroke="#d3d3d3" fill="none" stroke-width="2.0" stroke-linecap="round"/><line x1="7.875221481499637" y1="40.82844478906588" x2="2.875221481499638" y2="40.82844478906588" stroke="#d3d3d3" fill="none" stroke-width="2.0" stroke-linecap="round"/><line x1="-2.124778518500361" y1="40.82844478906588" x2="-7.12477851850036" y2="40.82844478906588" stroke="#d3d3d3" fill="none" stroke-width="2.0" stroke-linecap="round"/><text x="-8.12477851850036" y="39" fill="#d3d3d3" stroke-width="0.0" font-family="Arial" font-size="8.0pt">15</text><line x1="-12.12477851850036" y1="40.82844478906588" x2="-17.12477851850036" y2="40.82844478906588" stroke="#d3d3d3" fill="none" stroke-width="2.0" stroke-linecap="round"/><line x1="-22.12477851850036" y1="40.82844478906588" x2="-27.12477851850036" y2="40.82844478906588" stroke="#d3d3d3" fill="none" stroke-width="2.0" stroke-linecap="round"/><line x1="-32.12477851850036" y1="40.82844478906588" x2="-37.12477851850036" y2="40.82844478906588" stroke="#d3d3d3" fill="none" stroke-width="2.0" stroke-linecap="round"/><line x1="-42.12477851850036" y1="40.82844478906588" x2="-47.12477851850036" y2="40.82844478906588" stroke="#d3d3d3" fill="none" stroke-width="2.0" stroke-linecap="round"/><line x1="-52.12477851850036" y1="40.82844478906588" x2="-57.12477851850036" y2="40.82844478906588" stroke="#d3d3d3" fill="none" stroke-width="2.0" stroke-linecap="round"/><line x1="-62.12477851850036" y1="40.82844478906588" x2="-67.12477851850035" y2="40.82844478906588" stroke="#d3d3d3" fill="none" stroke-width="2.0" stroke-linecap="round"/><line x1="-72.12477851850035" y1="40.82844478906588" x2="-77.12477851850035" y2="40.82844478906588" stroke="#d3d3d3" fill="none" stroke-width="2.0" stroke-linecap="round"/><line x1="-82.12477851850035" y1="40.82844478906588" x2="-87.12477851850035" y2="40.82844478906588" stroke="#d3d3d3" fill="none" stroke-width="2.0" stroke-linecap="round"/><polyline points="-87.12477851850035,40.82844478906588 -127.12477851850034,40.82844478906587 -167.12477851850034,40.82844478906586" stroke="#004000" fill="none" stroke-width="2.0" stroke-linecap="round" stroke-linejoin="round"/><text x="-128.12477851850034" y="39" fill="#004000" stroke-width="0.0" font-family="Arial" font-size="8.0pt">16</text><line x1="-167.12477851850034" y1="45.82844478906586" x2="-167.12477851850034" y2="50.82844478906586" stroke="#d3d3d3" fill="none" stroke-width="2.0" stroke-linecap="round"/><line x1="-167.12477851850034" y1="55.82844478906586" x2="-167.12477851850034" y2="60.82844478906586" stroke="#d3d3d3" fill="none" stroke-width="2.0" stroke-linecap="round"/><line x1="-167.12477851850034" y1="65.82844478906586" x2="-167.12477851850034" y2="70.82844478906586" stroke="#d3d3d3" fill="none" stroke-width="2.0" stroke-linecap="round"/><text x="-168.12477851850034" y="69" fill="#d3d3d3" stroke-width="0.0" font-family="Arial" font-size="8.0pt">17</text><line x1="-167.12477851850034" y1="75.82844478906586" x2="-167.12477851850034" y2="80.82844478906586" stroke="#d3d3d3" fill="none" stroke-width="2.0" stroke-linecap="round"/><line x1="-167.12477851850034" y1="85.82844478906586" x2="-167.12477851850034" y2="90.82844478906586" stroke="#d3d3d3" fill="none" stroke-width="2.0" stroke-linecap="round"/><line x1="-167.12477851850034" y1="95.82844478906586" x2="-167.12477851850034" y2="100.82844478906586" stroke="#d3d3d3" fill="none" stroke-width="2.0" stroke-linecap="round"/><polyline points="-167.12477851850034,100.82844478906586 -127.12477851850034,100.82844478906587 -87.12477851850034,100.82844478906588" stroke="#004000" fill="none" stroke-width="2.0" stroke-linecap="round" stroke-linejoin="round"/><text x="-128.12477851850034" y="99" fill="#004000" stroke-width="0.0" font-family="Arial" font-size="8.0pt">18</text><line x1="-82.12477851850034" y1="100.82844478906588" x2="-77.12477851850034" y2="100.82844478906588" stroke="#d3d3d3" fill="none" stroke-width="2.0" stroke-linecap="round"/><line x1="-72.12477851850034" y1="100.82844478906588" x2="-67.12477851850034" y2="100.82844478906588" stroke="#d3d3d3" fill="none" stroke-width="2.0" stroke-linecap="round"/><line x1="-62.124778518500335" y1="100.82844478906588" x2="-57.124778518500335" y2="100.82844478906588" stroke="#d3d3d3" fill="none" stroke-width="2.0" stroke-linecap="round"/><line x1="-52.124778518500335" y1="100.82844478906588" x2="-47.124778518500335" y2="100.82844478906588" stroke="#d3d3d3" fill="none" stroke-width="2.0" stroke-linecap="round"/><line x1="-42.124778518500335" y1="100.82844478906588" x2="-37.124778518500335" y2="100.82844478906588" stroke="#d3d3d3" fill="none" stroke-width="2.0" stroke-linecap="round"/><line x1="-32.124778518500335" y1="100.82844478906588" x2="-27.124778518500335" y2="100.82844478906588" stroke="#d3d3d3" fill="none" stroke-width="2.0" stroke-linecap="round"/><line x1="-22.124778518500335" y1="100.82844478906588" x2="-17.124778518500335" y2="100.82844478906588" stroke="#d3d3d3" fill="none" stroke-width="2.0" stroke-linecap="round"/><line x1="-12.124778518500335" y1="100.82844478906588" x2="-7.124778518500336" y2="100.82844478906588" stroke="#d3d3d3" fill="none" stroke-width="2.0" stroke-linecap="round"/><text x="-8.124778518500335" y="99" fill="#d3d3d3" stroke-width="0.0" font-family="Arial" font-size="8.0pt">19</text><line x1="-2.124778518500337" y1="100.82844478906588" x2="2.875221481499662" y2="100.82844478906588" stroke="#d3d3d3" fill="none" stroke-width="2.0" stroke-linecap="round"/><line x1="7.875221481499661" y1="100.82844478906588" x2="12.875221481499661" y2="100.82844478906588" stroke="#d3d3d3" fill="none" stroke-width="2.0" stroke-linecap="round"/><line x1="17.87522148149966" y1="100.82844478906588" x2="22.87522148149966" y2="100.82844478906588" stroke="#d3d3d3" fill="none" stroke-width="2.0" stroke-linecap="round"/><line x1="27.87522148149966" y1="100.82844478906588" x2="32.87522148149966" y2="100.82844478906588" stroke="#d3d3d3" fill="none" stroke-width="2.0" stroke-linecap="round"/><line x1="37.87522148149966" y1="100.82844478906588" x2="42.87522148149966" y2="100.82844478906588" stroke="#d3d3d3" fill="none" stroke-width="2.0" stroke-linecap="round"/><line x1="47.87522148149966" y1="100.82844478906588" x2="52.87522148149966" y2="100.82844478906588" stroke="#d3d3d3" fill="none" stroke-width="2.0" stroke-linecap="round"/><line x1="57.87522148149966" y1="100.82844478906588" x2="62.87522148149966" y2="100.82844478906588" stroke="#d3d3d3" fill="none" stroke-width="2.0" stroke-linecap="round"/><line x1="67.87522148149965" y1="100.82844478906588" x2="72.87522148149965" y2="100.82844478906588" stroke="#d3d3d3" fill="none" stroke-width="2.0" stroke-linecap="round"/><polyline points="72.87522148149965,100.82844478906588 112.87522148149964,100.8284447890659 152.87522148149964,100.82844478906591" stroke="#004000" fill="none" stroke-width="2.0" stroke-linecap="round" stroke-linejoin="round"/><text x="111.87522148149964" y="99" fill="#004000" stroke-width="0.0" font-family="Arial" font-size="8.0pt">20</text><line x1="152.87522148149964" y1="105.82844478906591" x2="152.87522148149964" y2="110.82844478906591" stroke="#d3d3d3" fill="none" stroke-width="2.0" stroke-linecap="round"/><line x1="152.87522148149964" y1="115.82844478906591" x2="152.87522148149964" y2="120.82844478906591" stroke="#d3d3d3" fill="none" stroke-width="2.0" stroke-linecap="round"/><line x1="152.87522148149964" y1="125.82844478906591" x2="152.87522148149964" y2="130.8284447890659" stroke="#d3d3d3" fill="none" stroke-width="2.0" stroke-linecap="round"/><text x="151.87522148149964" y="129" fill="#d3d3d3" stroke-width="0.0" font-family="Arial" font-size="8.0pt">21</text><line x1="152.87522148149964" y1="135.8284447890659" x2="152.87522148149964" y2="140.8284447890659" stroke="#d3d3d3" fill="none" stroke-width="2.0" stroke-linecap="round"/><line x1="152.87522148149964" y1="145.8284447890659" x2="152.87522148149964" y2="150.8284447890659" stroke="#d3d3d3" fill="none" stroke-width="2.0" stroke-linecap="round"/><line x1="152.87522148149964" y1="155.8284447890659" x2="152.87522148149964" y2="160.8284447890659" stroke="#d3d3d3" fill="none" stroke-width="2.0" stroke-linecap="round"/><polyline points="152.87522148149964,160.8284447890659 112.87522148149964,160.8284447890659 72.87522148149964,160.8284447890659" stroke="#004000" fill="none" stroke-width="2.0" stroke-linecap="round" stroke-linejoin="round"/><text x="111.87522148149964" y="159" fill="#004000" stroke-width="0.0" font-family="Arial" font-size="8.0pt">22</text><line x1="67.87522148149964" y1="160.8284447890659" x2="62.875221481499636" y2="160.8284447890659" stroke="#d3d3d3" fill="none" stroke-width="2.0" stroke-linecap="round"/><line x1="57.875221481499636" y1="160.8284447890659" x2="52.875221481499636" y2="160.8284447890659" stroke="#d3d3d3" fill="none" stroke-width="2.0" stroke-linecap="round"/><line x1="47.875221481499636" y1="160.8284447890659" x2="42.875221481499636" y2="160.8284447890659" stroke="#d3d3d3" fill="none" stroke-width="2.0" stroke-linecap="round"/><line x1="37.875221481499636" y1="160.8284447890659" x2="32.875221481499636" y2="160.8284447890659" stroke="#d3d3d3" fill="none" stroke-width="2.0" stroke-linecap="round"/><line x1="27.875221481499636" y1="160.8284447890659" x2="22.875221481499636" y2="160.8284447890659" stroke="#d3d3d3" fill="none" stroke-width="2.0" stroke-linecap="round"/><line x1="17.875221481499636" y1="160.8284447890659" x2="12.875221481499636" y2="160.8284447890659" stroke="#d3d3d3" fill="none" stroke-width="2.0" stroke-linecap="round"/><line x1="7.875221481499637" y1="160.8284447890659" x2="2.875221481499638" y2="160.8284447890659" stroke="#d3d3d3" fill="none" stroke-width="2.0" stroke-linecap="round"/><line x1="-2.124778518500361" y1="160.8284447890659" x2="-7.12477851850036" y2="160.8284447890659" stroke="#d3d3d3" fill="none" stroke-width="2.0" stroke-linecap="round"/><text x="-8.12477851850036" y="159" fill="#d3d3d3" stroke-width="0.0" font-family="Arial" font-size="8.0pt">23</text><line x1="-12.12477851850036" y1="160.8284447890659" x2="-17.12477851850036" y2="160.8284447890659" stroke="#d3d3d3" fill="none" stroke-width="2.0" stroke-linecap="round"/><line x1="-22.12477851850036" y1="160.8284447890659" x2="-27.12477851850036" y2="160.8284447890659" stroke="#d3d3d3" fill="none" stroke-width="2.0" stroke-linecap="round"/><line x1="-32.12477851850036" y1="160.8284447890659" x2="-37.12477851850036" y2="160.8284447890659" stroke="#d3d3d3" fill="none" stroke-width="2.0" stroke-linecap="round"/><line x1="-42.12477851850036" y1="160.8284447890659" x2="-47.12477851850036" y2="160.8284447890659" stroke="#d3d3d3" fill="none" stroke-width="2.0" stroke-linecap="round"/><line x1="-52.12477851850036" y1="160.8284447890659" x2="-57.12477851850036" y2="160.8284447890659" stroke="#d3d3d3" fill="none" stroke-width="2.0" stroke-linecap="round"/><line x1="-62.12477851850036" y1="160.8284447890659" x2="-67.12477851850035" y2="160.8284447890659" stroke="#d3d3d3" fill="none" stroke-width="2.0" stroke-linecap="round"/><line x1="-72.12477851850035" y1="160.8284447890659" x2="-77.12477851850035" y2="160.8284447890659" stroke="#d3d3d3" fill="none" stroke-width="2.0" stroke-linecap="round"/><line x1="-82.12477851850035" y1="160.8284447890659" x2="-87.12477851850035" y2="160.8284447890659" stroke="#d3d3d3" fill="none" stroke-width="2.0" stroke-linecap="round"/><polyline points="-87.12477851850035,160.8284447890659 -127.12477851850034,160.8284447890659 -167.12477851850034,160.8284447890659" stroke="#008000" fill="none" stroke-width="2.0" stroke-linecap="round" stroke-linejoin="round"/><text x="-128.12477851850034" y="159" fill="#008000" stroke-width="0.0" font-family="Arial" font-size="8.0pt">24</text><polygon points="-167.12477851850034,160.8284447890659 -158.12477851850034,165.8284447890659 -160.12477851850034,160.8284447890659 -158.12477851850034,155.8284447890659" stroke="#008000" fill="#008000" fill-rule="evenodd" stroke-linejoin="round"/></svg>