<?xml version="1.0" ?><!DOCTYPE svg  PUBLIC '-//W3C//DTD SVG 1.1//EN'  'http://www.w3.org/Graphics/SVG/1.1/DTD/svg11.dtd'><svg xmlns="http://www.w3.org/2000/svg" width="107.000" height="319.000" viewBox="-52.000 -300.000 107.000 319.000"><line x1="0.0" y1="0.0" x2="0.0" y2="0.0" stroke="none" fill="none" stroke-width="2.0" stroke-linecap="round"/><line x1="0.0" y1="-0.0" x2="0.0" y2="-0.0" stroke="#808080" fill="none" stroke-width="8.0" stroke-linecap="round"/><line x1="3.061616997868383e-16" y1="-5.0" x2="6.123233995736766e-16" y2="-10.0" stroke="#d3d3d3" fill="none" stroke-width="2.0" stroke-linecap="round"/><line x1="9.18485099360515e-16" y1="-15.0" x2="1.2246467991473533e-15" y2="-20.0" stroke="#d3d3d3" fill="none" stroke-width="2.0" stroke-linecap="round"/><line x1="1.5308084989341915e-15" y1="-25.0" x2="1.83697019872103e-15" y2="-30.0" stroke="#d3d3d3" fill="none" stroke-width="2.0" stroke-linecap="round"/><line x1="2.1431318985078682e-15" y1="-35.0" x2="2.4492935982947065e-15" y2="-40.0" stroke="#d3d3d3" fill="none" stroke-width="2.0" stroke-linecap="round"/><line x1="2.7554552980815448e-15" y1="-45.0" x2="3.061616997868383e-15" y2="-50.0" stroke="#d3d3d3" fill="none" stroke-width="2.0" stroke-linecap="round"/><text x="-0.9999999999999969" y="-52" fill="#d3d3d3" stroke-width="0.0" font-family="Arial" font-size="8.0pt">0</text><line x1="3.3677786976552213e-15" y1="-55.0" x2="3.67394039744206e-15" y2="-60.0" stroke="#d3d3d3" fill="none" stroke-width="2.0" stroke-linecap="round"/><line x1="3.980102097228899e-15" y1="-65.0" x2="4.286263797015737e-15" y2="-70.0" stroke="#d3d3d3" fill="none" stroke-width="2.0" stroke-linecap="round"/><line x1="4.592425496802576e-15" y1="-75.0" x2="4.8985871965894146e-15" y2="-80.0" stroke="#d3d3d3" fill="none" stroke-width="2.0" stroke-linecap="round"/><line x1="5.204748896376253e-15" y1="-85.0" x2="5.510910596163092e-15" y2="-90.0" stroke="#d3d3d3" fill="none" stroke-width="2.0" stroke-linecap="round"/><line x1="5.8170722959499306e-15" y1="-95.0" x2="6.123233995736769e-15" y2="-100.0" stroke="#d3d3d3" fill="none" stroke-width="2.0" stroke-linecap="round"/><line x1="-4.999999999999994" y1="-100.0" x2="-9.999999999999993" y2="-100.0" stroke="#d3d3d3" fill="none" stroke-width="2.0" stroke-linecap="round"/><text x="-10.999999999999993" y="-102" fill="#d3d3d3" stroke-width="0.0" font-family="Arial" font-size="8.0pt">1</text><line x1="-14.999999999999993" y1="-100.0" x2="-19.999999999999993" y2="-100.0" stroke="#d3d3d3" fill="none" stroke-width="2.0" stroke-linecap="round"/><polyline points="-19.999999999999993,-100.0 -19.99999999999999,-180.0 -19.999999999999986,-260.0" stroke="#008000" fill="none" stroke-width="2.0" stroke-linecap="round" stroke-linejoin="round"/><text x="-20.99999999999999" y="-182" fill="#008000" stroke-width="0.0" font-family="Arial" font-size="8.0pt">2</text><polyline points="-19.999999999999986,-260.0 -29.999999999999986,-260.0 -39.999999999999986,-260.0 -39.999999999999986,-270.0 -39.999999999999986,-280.0 1.4210854715202004e-14,-280.0 40.000000000000014,-280.0 40.000000000000014,-270.0 40.000000000000014,-260.0 30.000000000000014,-260.0 20.000000000000014,-260.0" stroke="#00c000" fill="none" stroke-width="2.0" stroke-linecap="round" stroke-linejoin="round"/><text x="-30.999999999999986" y="-262" fill="#00c000" stroke-width="0.0" font-family="Arial" font-size="8.0pt">3</text><text x="-40.999999999999986" y="-272" fill="#00c000" stroke-width="0.0" font-family="Arial" font-size="8.0pt">4</text><text x="-0.9999999999999858" y="-282" fill="#00c000" stroke-width="0.0" font-family="Arial" font-size="8.0pt">5</text><text x="39.000000000000014" y="-272" fill="#00c000" stroke-width="0.0" font-family="Arial" font-size="8.0pt">6</text><text x="29.000000000000014" y="-262" fill="#00c000" stroke-width="0.0" font-family="Arial" font-size="8.0pt">7</text><polyline points="20.000000000000014,-260.0 20.000000000000018,-180.0 20.00000000000002,-100.0" stroke="#008000" fill="none" stroke-width="2.0" stroke-linecap="round" stroke-linejoin="round"/><text x="19.000000000000018" y="-182" fill="#008000" stroke-width="0.0" font-family="Arial" font-size="8.0pt">8</text><polygon points="20.00000000000002,-100.0 25.00000000000002,-109.0 20.00000000000002,-107.0 15.000000000000021,-109.0" stroke="#008000" fill="#008000" fill-rule="evenodd" stroke-linejoin="round"/></svg>