<?xml version="1.0" ?><!DOCTYPE svg  PUBLIC '-//W3C//DTD SVG 1.1//EN'  'http://www.w3.org/Graphics/SVG/1.1/DTD/svg11.dtd'><svg xmlns="http://www.w3.org/2000/svg" width="69.000" height="392.000" viewBox="-33.000 -373.000 69.000 392.000"><line x1="0.0" y1="0.0" x2="0.0" y2="0.0" stroke="none" fill="none" stroke-width="2.0" stroke-linecap="round"/><line x1="0.0" y1="-0.0" x2="0.0" y2="-0.0" stroke="#808080" fill="none" stroke-width="8.0" stroke-linecap="round"/><polyline points="0.0,-0.0 0.0,-0.0 0.0,-0.0 0.0,-0.0 0.0,-0.0 0.0,-0.0 0.0,-0.0 0.0,-0.0 0.0,-0.0" stroke="#d3d3d3" fill="none" stroke-width="2.0" stroke-linecap="round" stroke-linejoin="round"/><text x="-1.0" y="-2" fill="#d3d3d3" stroke-width="0.0" font-family="Arial" font-size="8.0pt">0</text><text x="-1.0" y="-2" fill="#d3d3d3" stroke-width="0.0" font-family="Arial" font-size="8.0pt">1</text><text x="-1.0" y="-2" fill="#d3d3d3" stroke-width="0.0" font-family="Arial" font-size="8.0pt">2</text><text x="-1.0" y="-2" fill="#d3d3d3" stroke-width="0.0" font-family="Arial" font-size="8.0pt">3</text><line x1="3.061616997868383e-16" y1="-5.0" x2="6.123233995736766e-16" y2="-10.0" stroke="#d3d3d3" fill="none" stroke-width="2.0" stroke-linecap="round"/><line x1="9.18485099360515e-16" y1="-15.0" x2="1.2246467991473533e-15" y2="-20.0" stroke="#d3d3d3" fill="none" stroke-width="2.0" stroke-linecap="round"/><line x1="1.5308084989341915e-15" y1="-25.0" x2="1.83697019872103e-15" y2="-30.0" stroke="#d3d3d3" fill="none" stroke-width="2.0" stroke-linecap="round"/><line x1="2.1431318985078682e-15" y1="-35.0" x2="2.4492935982947065e-15" y2="-40.0" stroke="#d3d3d3" fill="none" stroke-width="2.0" stroke-linecap="round"/><line x1="2.7554552980815448e-15" y1="-45.0" x2="3.061616997868383e-15" y2="-50.0" stroke="#d3d3d3" fill="none" stroke-width="2.0" stroke-linecap="round"/><line x1="3.3677786976552213e-15" y1="-55.0" x2="3.67394039744206e-15" y2="-60.0" stroke="#d3d3d3" fill="none" stroke-width="2.0" stroke-linecap="round"/><line x1="3.980102097228899e-15" y1="-65.0" x2="4.286263797015737e-15" y2="-70.0" stroke="#d3d3d3" fill="none" stroke-width="2.0" stroke-linecap="round"/><line x1="4.592425496802576e-15" y1="-75.0" x2="4.8985871965894146e-15" y2="-80.0" stroke="#d3d3d3" fill="none" stroke-width="2.0" stroke-linecap="round"/><line x1="5.204748896376253e-15" y1="-85.0" x2="5.510910596163092e-15" y2="-90.0" stroke="#d3d3d3" fill="none" stroke-width="2.0" stroke-linecap="round"/><line x1="5.8170722959499306e-15" y1="-95.0" x2="6.123233995736769e-15" y2="-100.0" stroke="#d3d3d3" fill="none" stroke-width="2.0" stroke-linecap="round"/><line x1="6.429395695523608e-15" y1="-105.0" x2="6.7355573953104466e-15" y2="-110.0" stroke="#d3d3d3" fill="none" stroke-width="2.0" stroke-linecap="round"/><line x1="7.041719095097285e-15" y1="-115.0" x2="7.347880794884123e-15" y2="-120.0" stroke="#d3d3d3" fill="none" stroke-width="2.0" stroke-linecap="round"/><line x1="7.654042494670961e-15" y1="-125.0" x2="7.960204194457799e-15" y2="-130.0" stroke="#d3d3d3" fill="none" stroke-width="2.0" stroke-linecap="round"/><line x1="8.266365894244637e-15" y1="-135.0" x2="8.572527594031475e-15" y2="-140.0" stroke="#d3d3d3" fill="none" stroke-width="2.0" stroke-linecap="round"/><line x1="8.878689293818312e-15" y1="-145.0" x2="9.18485099360515e-15" y2="-150.0" stroke="#d3d3d3" fill="none" stroke-width="2.0" stroke-linecap="round"/><line x1="9.491012693391988e-15" y1="-155.0" x2="9.797174393178826e-15" y2="-160.0" stroke="#d3d3d3" fill="none" stroke-width="2.0" stroke-linecap="round"/><line x1="1.0103336092965664e-14" y1="-165.0" x2="1.0409497792752502e-14" y2="-170.0" stroke="#d3d3d3" fill="none" stroke-width="2.0" stroke-linecap="round"/><line x1="1.071565949253934e-14" y1="-175.0" x2="1.1021821192326178e-14" y2="-180.0" stroke="#d3d3d3" fill="none" stroke-width="2.0" stroke-linecap="round"/><text x="-0.999999999999989" y="-182" fill="#d3d3d3" stroke-width="0.0" font-family="Arial" font-size="8.0pt">4</text><line x1="1.1327982892113015e-14" y1="-185.0" x2="1.1634144591899853e-14" y2="-190.0" stroke="#d3d3d3" fill="none" stroke-width="2.0" stroke-linecap="round"/><line x1="1.1940306291686691e-14" y1="-195.0" x2="1.2246467991473529e-14" y2="-200.0" stroke="#d3d3d3" fill="none" stroke-width="2.0" stroke-linecap="round"/><line x1="1.2552629691260367e-14" y1="-205.0" x2="1.2858791391047205e-14" y2="-210.0" stroke="#d3d3d3" fill="none" stroke-width="2.0" stroke-linecap="round"/><line x1="1.3164953090834043e-14" y1="-215.0" x2="1.347111479062088e-14" y2="-220.0" stroke="#d3d3d3" fill="none" stroke-width="2.0" stroke-linecap="round"/><line x1="1.3777276490407718e-14" y1="-225.0" x2="1.4083438190194556e-14" y2="-230.0" stroke="#d3d3d3" fill="none" stroke-width="2.0" stroke-linecap="round"/><line x1="1.4389599889981396e-14" y1="-235.0" x2="1.4695761589768234e-14" y2="-240.0" stroke="#d3d3d3" fill="none" stroke-width="2.0" stroke-linecap="round"/><line x1="1.500192328955507e-14" y1="-245.0" x2="1.530808498934191e-14" y2="-250.0" stroke="#d3d3d3" fill="none" stroke-width="2.0" stroke-linecap="round"/><line x1="1.5614246689128747e-14" y1="-255.0" x2="1.5920408388915585e-14" y2="-260.0" stroke="#d3d3d3" fill="none" stroke-width="2.0" stroke-linecap="round"/><line x1="1.6226570088702423e-14" y1="-265.0" x2="1.653273178848926e-14" y2="-270.0" stroke="#d3d3d3" fill="none" stroke-width="2.0" stroke-linecap="round"/><line x1="1.68388934882761e-14" y1="-275.0" x2="1.7145055188062937e-14" y2="-280.0" stroke="#d3d3d3" fill="none" stroke-width="2.0" stroke-linecap="round"/><line x1="1.7451216887849774e-14" y1="-285.0" x2="1.7757378587636612e-14" y2="-290.0" stroke="#d3d3d3" fill="none" stroke-width="2.0" stroke-linecap="round"/><line x1="1.806354028742345e-14" y1="-295.0" x2="1.8369701987210288e-14" y2="-300.0" stroke="#d3d3d3" fill="none" stroke-width="2.0" stroke-linecap="round"/><line x1="1.8675863686997126e-14" y1="-305.0" x2="1.8982025386783964e-14" y2="-310.0" stroke="#d3d3d3" fill="none" stroke-width="2.0" stroke-linecap="round"/><line x1="1.9288187086570802e-14" y1="-315.0" x2="1.959434878635764e-14" y2="-320.0" stroke="#d3d3d3" fill="none" stroke-width="2.0" stroke-linecap="round"/><line x1="1.9900510486144477e-14" y1="-325.0" x2="2.0206672185931315e-14" y2="-330.0" stroke="#d3d3d3" fill="none" stroke-width="2.0" stroke-linecap="round"/><line x1="2.0512833885718153e-14" y1="-335.0" x2="2.081899558550499e-14" y2="-340.0" stroke="#d3d3d3" fill="none" stroke-width="2.0" stroke-linecap="round"/><line x1="2.112515728529183e-14" y1="-345.0" x2="2.1431318985078667e-14" y2="-350.0" stroke="#d3d3d3" fill="none" stroke-width="2.0" stroke-linecap="round"/><line x1="2.1737480684865505e-14" y1="-355.0" x2="2.2043642384652342e-14" y2="-360.0" stroke="#d3d3d3" fill="none" stroke-width="2.0" stroke-linecap="round"/><polyline points="2.2043642384652342e-14,-360.0 4.495279120990968,-348.87379374519855 8.990558241981915,-337.7475874903971 8.990558241981919,-317.7475874903971 8.990558241981923,-297.7475874903971 16.061626053847398,-290.67651967853163 23.132693865712874,-283.60545186666616 1.1326938657128736,-283.60545186666616 -20.867306134287126,-283.60545186666616 -13.796238322421653,-290.67651967853163 -6.725170510556179,-297.7475874903971 -6.725170510556183,-317.7475874903971 -6.725170510556188,-337.7475874903971 -2.229891389565246,-348.87379374519855 2.2653877314256956,-360.0" stroke="#c0c000" fill="none" stroke-width="2.0" stroke-linecap="round" stroke-linejoin="round"/><text x="3.4952791209909684" y="-351" fill="#c0c000" stroke-width="0.0" font-family="Arial" font-size="8.0pt">5</text><text x="7.990558241981919" y="-320" fill="#c0c000" stroke-width="0.0" font-family="Arial" font-size="8.0pt">6</text><text x="15.061626053847398" y="-293" fill="#c0c000" stroke-width="0.0" font-family="Arial" font-size="8.0pt">7</text><text x="0.13269386571287356" y="-286" fill="#c0c000" stroke-width="0.0" font-family="Arial" font-size="8.0pt">8</text><text x="-14.796238322421653" y="-293" fill="#c0c000" stroke-width="0.0" font-family="Arial" font-size="8.0pt">9</text><text x="-7.725170510556183" y="-320" fill="#c0c000" stroke-width="0.0" font-family="Arial" font-size="8.0pt">10</text><text x="-3.229891389565246" y="-351" fill="#c0c000" stroke-width="0.0" font-family="Arial" font-size="8.0pt">11</text><polygon points="2.2653877314256956,-360.0 -5.741990882151448,-353.52837827597847 -0.3568584224856868,-353.50971301803247 3.5298476635164273,-349.78231234181936" stroke="#c0c000" fill="#c0c000" fill-rule="evenodd" stroke-linejoin="round"/></svg>