<?xml version="1.0" ?><!DOCTYPE svg  PUBLIC '-//W3C//DTD SVG 1.1//EN'  'http://www.w3.org/Graphics/SVG/1.1/DTD/svg11.dtd'><svg xmlns="http://www.w3.org/2000/svg" width="131.000" height="128.000" viewBox="-19.000 -35.000 131.000 128.000"><line x1="0.0" y1="0.0" x2="0.0" y2="0.0" stroke="none" fill="none" stroke-width="2.0" stroke-linecap="round"/><line x1="0.0" y1="-0.0" x2="0.0" y2="-0.0" stroke="#808080" fill="none" stroke-width="8.0" stroke-linecap="round"/><polyline points="0.0,-0.0 7.0710678118654755,-7.071067811865475 14.142135623730951,-14.14213562373095 54.14213562373095,-14.14213562373095 94.14213562373095,-14.14213562373095 94.14213562373095,25.85786437626905 94.14213562373095,65.85786437626905 87.07106781186548,72.92893218813452 80.0,80.0 40.0,80.00000000000001 0.0,80.00000000000003 -1.1331077795295958e-14,40.00000000000003 -2.2662155590591917e-14,2.842170943040401e-14" stroke="#00c0c0" fill="none" stroke-width="2.0" stroke-linecap="round" stroke-linejoin="round"/><text x="6.0710678118654755" y="-9" fill="#00c0c0" stroke-width="0.0" font-family="Arial" font-size="8.0pt">0</text><text x="53.14213562373095" y="-16" fill="#00c0c0" stroke-width="0.0" font-family="Arial" font-size="8.0pt">1</text><text x="93.14213562373095" y="24" fill="#00c0c0" stroke-width="0.0" font-family="Arial" font-size="8.0pt">2</text><text x="86.07106781186548" y="71" fill="#00c0c0" stroke-width="0.0" font-family="Arial" font-size="8.0pt">3</text><text x="39.0" y="78" fill="#00c0c0" stroke-width="0.0" font-family="Arial" font-size="8.0pt">4</text><text x="-1.0000000000000113" y="38" fill="#00c0c0" stroke-width="0.0" font-family="Arial" font-size="8.0pt">5</text><polyline points="-2.2662155590591917e-14,2.842170943040401e-14 39.597979746446654,39.597979746446676 79.19595949289334,79.19595949289332" stroke="#c00000" fill="none" stroke-width="2.0" stroke-linecap="round" stroke-linejoin="round"/><text x="38.597979746446654" y="38" fill="#c00000" stroke-width="0.0" font-family="Arial" font-size="8.0pt">6</text><polyline points="79.19595949289334,79.19595949289332 79.19595949289332,39.19595949289332 79.19595949289331,-0.8040405071066772 86.26702730475878,-7.875108318972155 93.33809511662426,-14.946176130837634" stroke="#00c0c0" fill="none" stroke-width="2.0" stroke-linecap="round" stroke-linejoin="round"/><text x="78.19595949289332" y="37" fill="#00c0c0" stroke-width="0.0" font-family="Arial" font-size="8.0pt">7</text><text x="85.26702730475878" y="-10" fill="#00c0c0" stroke-width="0.0" font-family="Arial" font-size="8.0pt">8</text><line x1="88.33809511662426" y1="-14.946176130837632" x2="83.33809511662426" y2="-14.94617613083763" stroke="#d3d3d3" fill="none" stroke-width="2.0" stroke-linecap="round"/><line x1="78.33809511662426" y1="-14.946176130837628" x2="73.33809511662426" y2="-14.946176130837626" stroke="#d3d3d3" fill="none" stroke-width="2.0" stroke-linecap="round"/><line x1="68.33809511662426" y1="-14.946176130837625" x2="63.33809511662426" y2="-14.946176130837623" stroke="#d3d3d3" fill="none" stroke-width="2.0" stroke-linecap="round"/><line x1="58.33809511662426" y1="-14.946176130837621" x2="53.33809511662426" y2="-14.94617613083762" stroke="#d3d3d3" fill="none" stroke-width="2.0" stroke-linecap="round"/><text x="52.33809511662426" y="-17" fill="#d3d3d3" stroke-width="0.0" font-family="Arial" font-size="8.0pt">9</text><line x1="48.33809511662426" y1="-14.946176130837618" x2="43.33809511662426" y2="-14.946176130837616" stroke="#d3d3d3" fill="none" stroke-width="2.0" stroke-linecap="round"/><line x1="38.33809511662426" y1="-14.946176130837614" x2="33.33809511662426" y2="-14.946176130837612" stroke="#d3d3d3" fill="none" stroke-width="2.0" stroke-linecap="round"/><line x1="28.33809511662426" y1="-14.94617613083761" x2="23.33809511662426" y2="-14.946176130837609" stroke="#d3d3d3" fill="none" stroke-width="2.0" stroke-linecap="round"/><line x1="18.33809511662426" y1="-14.946176130837607" x2="13.33809511662426" y2="-14.946176130837605" stroke="#d3d3d3" fill="none" stroke-width="2.0" stroke-linecap="round"/><polyline points="13.33809511662426,-14.946176130837605 13.338095116624268,25.053823869162393 13.338095116624277,65.05382386916239 6.267027304758804,72.12489168102786 -0.8040405071066701,79.19595949289334" stroke="#00c0c0" fill="none" stroke-width="2.0" stroke-linecap="round" stroke-linejoin="round"/><text x="12.338095116624268" y="23" fill="#00c0c0" stroke-width="0.0" font-family="Arial" font-size="8.0pt">10</text><text x="5.267027304758804" y="70" fill="#00c0c0" stroke-width="0.0" font-family="Arial" font-size="8.0pt">11</text><line x1="-0.8040405071066714" y1="74.19595949289334" x2="-0.8040405071066727" y2="69.19595949289334" stroke="#d3d3d3" fill="none" stroke-width="2.0" stroke-linecap="round"/><line x1="-0.8040405071066741" y1="64.19595949289334" x2="-0.8040405071066754" y2="59.19595949289334" stroke="#d3d3d3" fill="none" stroke-width="2.0" stroke-linecap="round"/><line x1="-0.8040405071066767" y1="54.19595949289334" x2="-0.8040405071066781" y2="49.19595949289334" stroke="#d3d3d3" fill="none" stroke-width="2.0" stroke-linecap="round"/><line x1="-0.8040405071066794" y1="44.19595949289334" x2="-0.8040405071066807" y2="39.19595949289334" stroke="#d3d3d3" fill="none" stroke-width="2.0" stroke-linecap="round"/><text x="-1.8040405071066807" y="37" fill="#d3d3d3" stroke-width="0.0" font-family="Arial" font-size="8.0pt">12</text><line x1="-0.8040405071066821" y1="34.19595949289334" x2="-0.8040405071066834" y2="29.195959492893337" stroke="#d3d3d3" fill="none" stroke-width="2.0" stroke-linecap="round"/><line x1="-0.8040405071066847" y1="24.195959492893337" x2="-0.8040405071066861" y2="19.195959492893337" stroke="#d3d3d3" fill="none" stroke-width="2.0" stroke-linecap="round"/><line x1="-0.8040405071066874" y1="14.195959492893337" x2="-0.8040405071066887" y2="9.195959492893337" stroke="#d3d3d3" fill="none" stroke-width="2.0" stroke-linecap="round"/><line x1="-0.8040405071066901" y1="4.195959492893337" x2="-0.8040405071066914" y2="-0.804040507106663" stroke="#d3d3d3" fill="none" stroke-width="2.0" stroke-linecap="round"/><polyline points="-0.8040405071066914,-0.804040507106663 39.19595949289331,-0.8040405071066765 79.19595949289331,-0.8040405071066901" stroke="#00c0c0" fill="none" stroke-width="2.0" stroke-linecap="round" stroke-linejoin="round"/><text x="38.19595949289331" y="-3" fill="#00c0c0" stroke-width="0.0" font-family="Arial" font-size="8.0pt">13</text><line x1="82.73149339882605" y1="-4.339574413039429" x2="86.26702730475878" y2="-7.875108318972168" stroke="#d3d3d3" fill="none" stroke-width="2.0" stroke-linecap="round"/><text x="85.26702730475878" y="-10" fill="#d3d3d3" stroke-width="0.0" font-family="Arial" font-size="8.0pt">14</text><line x1="89.80256121069152" y1="-11.410642224904906" x2="93.33809511662426" y2="-14.946176130837646" stroke="#d3d3d3" fill="none" stroke-width="2.0" stroke-linecap="round"/><line x1="93.33809511662426" y1="-9.946176130837646" x2="93.33809511662426" y2="-4.946176130837646" stroke="#d3d3d3" fill="none" stroke-width="2.0" stroke-linecap="round"/><line x1="93.33809511662426" y1="0.05382386916235404" x2="93.33809511662426" y2="5.053823869162354" stroke="#d3d3d3" fill="none" stroke-width="2.0" stroke-linecap="round"/><line x1="93.33809511662426" y1="10.053823869162354" x2="93.33809511662426" y2="15.053823869162354" stroke="#d3d3d3" fill="none" stroke-width="2.0" stroke-linecap="round"/><line x1="93.33809511662426" y1="20.053823869162354" x2="93.33809511662426" y2="25.053823869162354" stroke="#d3d3d3" fill="none" stroke-width="2.0" stroke-linecap="round"/><text x="92.33809511662426" y="23" fill="#d3d3d3" stroke-width="0.0" font-family="Arial" font-size="8.0pt">15</text><line x1="93.33809511662426" y1="30.053823869162354" x2="93.33809511662426" y2="35.05382386916236" stroke="#d3d3d3" fill="none" stroke-width="2.0" stroke-linecap="round"/><line x1="93.33809511662426" y1="40.05382386916236" x2="93.33809511662426" y2="45.05382386916236" stroke="#d3d3d3" fill="none" stroke-width="2.0" stroke-linecap="round"/><line x1="93.33809511662426" y1="50.05382386916236" x2="93.33809511662426" y2="55.05382386916236" stroke="#d3d3d3" fill="none" stroke-width="2.0" stroke-linecap="round"/><line x1="93.33809511662426" y1="60.05382386916236" x2="93.33809511662426" y2="65.05382386916236" stroke="#d3d3d3" fill="none" stroke-width="2.0" stroke-linecap="round"/><polyline points="93.33809511662426,65.05382386916236 53.33809511662426,65.05382386916237 13.33809511662426,65.05382386916239" stroke="#00c0c0" fill="none" stroke-width="2.0" stroke-linecap="round" stroke-linejoin="round"/><text x="52.33809511662426" y="63" fill="#00c0c0" stroke-width="0.0" font-family="Arial" font-size="8.0pt">16</text><polygon points="13.33809511662426,65.05382386916239 22.33809511662426,70.05382386916239 20.33809511662426,65.05382386916239 22.33809511662426,60.053823869162386" stroke="#00c0c0" fill="#00c0c0" fill-rule="evenodd" stroke-linejoin="round"/></svg>