<?xml version="1.0" ?><!DOCTYPE svg  PUBLIC '-//W3C//DTD SVG 1.1//EN'  'http://www.w3.org/Graphics/SVG/1.1/DTD/svg11.dtd'><svg xmlns="http://www.w3.org/2000/svg" width="393.000" height="393.000" viewBox="-19.000 -374.000 393.000 393.000"><line x1="0.0" y1="0.0" x2="0.0" y2="0.0" stroke="none" fill="none" stroke-width="2.0" stroke-linecap="round"/><line x1="0.0" y1="-0.0" x2="0.0" y2="-0.0" stroke="#808080" fill="none" stroke-width="8.0" stroke-linecap="round"/><polyline points="0.0,-0.0 1.1083053532283547e-14,-181.0 2.2166107064567093e-14,-362.0" stroke="#c0c0c0" fill="none" stroke-width="2.0" stroke-linecap="round" stroke-linejoin="round"/><text x="-0.9999999999999889" y="-183" fill="#c0c0c0" stroke-width="0.0" font-family="Arial" font-size="8.0pt">0</text><line x1="3.6062445840514146" y1="-358.3937554159486" x2="7.212489168102807" y2="-354.7875108318972" stroke="#d3d3d3" fill="none" stroke-width="2.0" stroke-linecap="round"/><line x1="10.818733752154198" y1="-351.18126624784577" x2="14.42497833620559" y2="-347.57502166379436" stroke="#d3d3d3" fill="none" stroke-width="2.0" stroke-linecap="round"/><line x1="18.031222920256983" y1="-343.96877707974295" x2="21.637467504308376" y2="-340.36253249569154" stroke="#d3d3d3" fill="none" stroke-width="2.0" stroke-linecap="round"/><line x1="25.243712088359768" y1="-336.75628791164013" x2="28.84995667241116" y2="-333.1500433275887" stroke="#d3d3d3" fill="none" stroke-width="2.0" stroke-linecap="round"/><line x1="32.45620125646255" y1="-329.5437987435373" x2="36.062445840513945" y2="-325.9375541594859" stroke="#d3d3d3" fill="none" stroke-width="2.0" stroke-linecap="round"/><line x1="39.66869042456534" y1="-322.3313095754345" x2="43.27493500861674" y2="-318.7250649913831" stroke="#d3d3d3" fill="none" stroke-width="2.0" stroke-linecap="round"/><line x1="46.88117959266813" y1="-315.11882040733167" x2="50.48742417671953" y2="-311.51257582328026" stroke="#d3d3d3" fill="none" stroke-width="2.0" stroke-linecap="round"/><line x1="54.093668760770925" y1="-307.90633123922885" x2="57.69991334482232" y2="-304.30008665517744" stroke="#d3d3d3" fill="none" stroke-width="2.0" stroke-linecap="round"/><line x1="61.306157928873716" y1="-300.693842071126" x2="64.91240251292511" y2="-297.0875974870746" stroke="#d3d3d3" fill="none" stroke-width="2.0" stroke-linecap="round"/><line x1="68.51864709697651" y1="-293.4813529030232" x2="72.1248916810279" y2="-289.8751083189718" stroke="#d3d3d3" fill="none" stroke-width="2.0" stroke-linecap="round"/><line x1="75.7311362650793" y1="-286.2688637349204" x2="79.3373808491307" y2="-282.662619150869" stroke="#d3d3d3" fill="none" stroke-width="2.0" stroke-linecap="round"/><line x1="82.94362543318209" y1="-279.05637456681757" x2="86.54987001723349" y2="-275.45012998276616" stroke="#d3d3d3" fill="none" stroke-width="2.0" stroke-linecap="round"/><line x1="90.15611460128488" y1="-271.84388539871475" x2="93.76235918533628" y2="-268.23764081466334" stroke="#d3d3d3" fill="none" stroke-width="2.0" stroke-linecap="round"/><line x1="97.36860376938768" y1="-264.6313962306119" x2="100.97484835343907" y2="-261.0251516465605" stroke="#d3d3d3" fill="none" stroke-width="2.0" stroke-linecap="round"/><line x1="104.58109293749047" y1="-257.4189070625091" x2="108.18733752154186" y2="-253.81266247845772" stroke="#d3d3d3" fill="none" stroke-width="2.0" stroke-linecap="round"/><line x1="111.79358210559326" y1="-250.20641789440634" x2="115.39982668964466" y2="-246.60017331035496" stroke="#d3d3d3" fill="none" stroke-width="2.0" stroke-linecap="round"/><line x1="119.00607127369605" y1="-242.99392872630358" x2="122.61231585774745" y2="-239.3876841422522" stroke="#d3d3d3" fill="none" stroke-width="2.0" stroke-linecap="round"/><line x1="126.21856044179884" y1="-235.78143955820082" x2="129.82480502585022" y2="-232.17519497414943" stroke="#d3d3d3" fill="none" stroke-width="2.0" stroke-linecap="round"/><line x1="133.4310496099016" y1="-228.56895039009805" x2="137.037294193953" y2="-224.96270580604667" stroke="#d3d3d3" fill="none" stroke-width="2.0" stroke-linecap="round"/><line x1="140.64353877800437" y1="-221.3564612219953" x2="144.24978336205575" y2="-217.7502166379439" stroke="#d3d3d3" fill="none" stroke-width="2.0" stroke-linecap="round"/><line x1="147.85602794610713" y1="-214.14397205389253" x2="151.46227253015851" y2="-210.53772746984114" stroke="#d3d3d3" fill="none" stroke-width="2.0" stroke-linecap="round"/><line x1="155.0685171142099" y1="-206.93148288578976" x2="158.67476169826128" y2="-203.32523830173838" stroke="#d3d3d3" fill="none" stroke-width="2.0" stroke-linecap="round"/><line x1="162.28100628231266" y1="-199.718993717687" x2="165.88725086636404" y2="-196.11274913363562" stroke="#d3d3d3" fill="none" stroke-width="2.0" stroke-linecap="round"/><line x1="169.49349545041542" y1="-192.50650454958424" x2="173.0997400344668" y2="-188.90025996553285" stroke="#d3d3d3" fill="none" stroke-width="2.0" stroke-linecap="round"/><line x1="176.7059846185182" y1="-185.29401538148147" x2="180.31222920256957" y2="-181.6877707974301" stroke="#d3d3d3" fill="none" stroke-width="2.0" stroke-linecap="round"/><text x="179.31222920256957" y="-184" fill="#d3d3d3" stroke-width="0.0" font-family="Arial" font-size="8.0pt">1</text><line x1="183.91847378662095" y1="-178.0815262133787" x2="187.52471837067233" y2="-174.47528162932733" stroke="#d3d3d3" fill="none" stroke-width="2.0" stroke-linecap="round"/><line x1="191.1309629547237" y1="-170.86903704527595" x2="194.7372075387751" y2="-167.26279246122456" stroke="#d3d3d3" fill="none" stroke-width="2.0" stroke-linecap="round"/><line x1="198.34345212282648" y1="-163.65654787717318" x2="201.94969670687786" y2="-160.0503032931218" stroke="#d3d3d3" fill="none" stroke-width="2.0" stroke-linecap="round"/><line x1="205.55594129092924" y1="-156.44405870907042" x2="209.16218587498062" y2="-152.83781412501904" stroke="#d3d3d3" fill="none" stroke-width="2.0" stroke-linecap="round"/><line x1="212.768430459032" y1="-149.23156954096766" x2="216.37467504308339" y2="-145.62532495691627" stroke="#d3d3d3" fill="none" stroke-width="2.0" stroke-linecap="round"/><line x1="219.98091962713477" y1="-142.0190803728649" x2="223.58716421118615" y2="-138.4128357888135" stroke="#d3d3d3" fill="none" stroke-width="2.0" stroke-linecap="round"/><line x1="227.19340879523753" y1="-134.80659120476213" x2="230.7996533792889" y2="-131.20034662071075" stroke="#d3d3d3" fill="none" stroke-width="2.0" stroke-linecap="round"/><line x1="234.4058979633403" y1="-127.59410203665935" x2="238.01214254739168" y2="-123.98785745260795" stroke="#d3d3d3" fill="none" stroke-width="2.0" stroke-linecap="round"/><line x1="241.61838713144306" y1="-120.38161286855656" x2="245.22463171549444" y2="-116.77536828450516" stroke="#d3d3d3" fill="none" stroke-width="2.0" stroke-linecap="round"/><line x1="248.83087629954582" y1="-113.16912370045377" x2="252.4371208835972" y2="-109.56287911640237" stroke="#d3d3d3" fill="none" stroke-width="2.0" stroke-linecap="round"/><line x1="256.0433654676486" y1="-105.95663453235098" x2="259.6496100517" y2="-102.35038994829958" stroke="#d3d3d3" fill="none" stroke-width="2.0" stroke-linecap="round"/><line x1="263.2558546357514" y1="-98.74414536424818" x2="266.8620992198028" y2="-95.13790078019679" stroke="#d3d3d3" fill="none" stroke-width="2.0" stroke-linecap="round"/><line x1="270.4683438038542" y1="-91.53165619614539" x2="274.07458838790564" y2="-87.925411612094" stroke="#d3d3d3" fill="none" stroke-width="2.0" stroke-linecap="round"/><line x1="277.68083297195705" y1="-84.3191670280426" x2="281.28707755600846" y2="-80.7129224439912" stroke="#d3d3d3" fill="none" stroke-width="2.0" stroke-linecap="round"/><line x1="284.89332214005987" y1="-77.10667785993981" x2="288.4995667241113" y2="-73.50043327588841" stroke="#d3d3d3" fill="none" stroke-width="2.0" stroke-linecap="round"/><line x1="292.1058113081627" y1="-69.89418869183702" x2="295.7120558922141" y2="-66.28794410778562" stroke="#d3d3d3" fill="none" stroke-width="2.0" stroke-linecap="round"/><line x1="299.3183004762655" y1="-62.68169952373423" x2="302.9245450603169" y2="-59.07545493968284" stroke="#d3d3d3" fill="none" stroke-width="2.0" stroke-linecap="round"/><line x1="306.5307896443683" y1="-55.46921035563145" x2="310.13703422841974" y2="-51.862965771580065" stroke="#d3d3d3" fill="none" stroke-width="2.0" stroke-linecap="round"/><line x1="313.74327881247115" y1="-48.256721187528676" x2="317.34952339652256" y2="-44.65047660347729" stroke="#d3d3d3" fill="none" stroke-width="2.0" stroke-linecap="round"/><line x1="320.95576798057397" y1="-41.0442320194259" x2="324.5620125646254" y2="-37.43798743537451" stroke="#d3d3d3" fill="none" stroke-width="2.0" stroke-linecap="round"/><line x1="328.1682571486768" y1="-33.83174285132312" x2="331.7745017327282" y2="-30.22549826727173" stroke="#d3d3d3" fill="none" stroke-width="2.0" stroke-linecap="round"/><line x1="335.3807463167796" y1="-26.619253683220336" x2="338.986990900831" y2="-23.013009099168944" stroke="#d3d3d3" fill="none" stroke-width="2.0" stroke-linecap="round"/><line x1="342.5932354848824" y1="-19.40676451511755" x2="346.19948006893384" y2="-15.800519931066159" stroke="#d3d3d3" fill="none" stroke-width="2.0" stroke-linecap="round"/><line x1="349.80572465298525" y1="-12.194275347014766" x2="353.41196923703666" y2="-8.588030762963374" stroke="#d3d3d3" fill="none" stroke-width="2.0" stroke-linecap="round"/><line x1="357.01821382108807" y1="-4.981786178911982" x2="360.6244584051395" y2="-1.3755415948605898" stroke="#d3d3d3" fill="none" stroke-width="2.0" stroke-linecap="round"/><polyline points="360.6244584051395,-1.3755415948605898 179.62445840513948,-1.3755415948605496 -1.3755415948605219,-1.3755415948605094" stroke="#c0c0c0" fill="none" stroke-width="2.0" stroke-linecap="round" stroke-linejoin="round"/><text x="178.62445840513948" y="-3" fill="#c0c0c0" stroke-width="0.0" font-family="Arial" font-size="8.0pt">2</text><polygon points="-1.3755415948605219,-1.3755415948605094 7.62445840513948,3.624458405139489 5.624458405139478,-1.375541594860511 7.624458405139476,-6.375541594860511" stroke="#c0c0c0" fill="#c0c0c0" fill-rule="evenodd" stroke-linejoin="round"/></svg>