<?xml version="1.0" ?><!DOCTYPE svg  PUBLIC '-//W3C//DTD SVG 1.1//EN'  'http://www.w3.org/Graphics/SVG/1.1/DTD/svg11.dtd'><svg xmlns="http://www.w3.org/2000/svg" width="65.000" height="65.000" viewBox="-31.000 -32.000 65.000 65.000"><line x1="0.0" y1="0.0" x2="0.0" y2="0.0" stroke="none" fill="none" stroke-width="2.0" stroke-linecap="round"/><line x1="0.0" y1="-0.0" x2="0.0" y2="-0.0" stroke="#808080" fill="none" stroke-width="8.0" stroke-linecap="round"/><line x1="3.061616997868383e-16" y1="5.0" x2="6.123233995736766e-16" y2="10.0" stroke="#d3d3d3" fill="none" stroke-width="2.0" stroke-linecap="round"/><text x="-0.9999999999999993" y="8" fill="#d3d3d3" stroke-width="0.0" font-family="Arial" font-size="8.0pt">0</text><line x1="9.18485099360515e-16" y1="15.0" x2="1.2246467991473533e-15" y2="20.0" stroke="#d3d3d3" fill="none" stroke-width="2.0" stroke-linecap="round"/><polyline points="1.2246467991473533e-15,20.0 -2.449293598294706e-15,-0.0 -6.123233995736765e-15,-20.0" stroke="#c0c0c0" fill="none" stroke-width="2.0" stroke-linecap="round" stroke-linejoin="round"/><text x="-1.0000000000000024" y="-2" fill="#c0c0c0" stroke-width="0.0" font-family="Arial" font-size="8.0pt">1</text><line x1="5.303300858899101" y1="-14.696699141100895" x2="10.60660171779821" y2="-9.39339828220179" stroke="#d3d3d3" fill="none" stroke-width="2.0" stroke-linecap="round"/><text x="9.60660171779821" y="-11" fill="#d3d3d3" stroke-width="0.0" font-family="Arial" font-size="8.0pt">2</text><line x1="15.909902576697316" y1="-4.090097423302685" x2="21.213203435596423" y2="1.2132034355964194" stroke="#d3d3d3" fill="none" stroke-width="2.0" stroke-linecap="round"/><polyline points="21.213203435596423,1.2132034355964194 1.213203435596423,1.213203435596425 -18.786796564403577,1.2132034355964305" stroke="#c0c000" fill="none" stroke-width="2.0" stroke-linecap="round" stroke-linejoin="round"/><text x="0.21320343559642296" y="-1" fill="#c0c000" stroke-width="0.0" font-family="Arial" font-size="8.0pt">3</text><polygon points="-18.786796564403577,1.2132034355964305 -9.786796564403575,6.213203435596428 -11.786796564403577,1.2132034355964285 -9.786796564403579,-3.786796564403572" stroke="#c0c000" fill="#c0c000" fill-rule="evenodd" stroke-linejoin="round"/></svg>