<?xml version="1.0" ?><!DOCTYPE svg  PUBLIC '-//W3C//DTD SVG 1.1//EN'  'http://www.w3.org/Graphics/SVG/1.1/DTD/svg11.dtd'><svg xmlns="http://www.w3.org/2000/svg" width="393.000" height="404.000" viewBox="-124.000 -20.000 393.000 404.000"><line x1="0.0" y1="0.0" x2="0.0" y2="0.0" stroke="none" fill="none" stroke-width="2.0" stroke-linecap="round"/><line x1="0.0" y1="-0.0" x2="0.0" y2="-0.0" stroke="#808080" fill="none" stroke-width="8.0" stroke-linecap="round"/><polyline points="0.0,-0.0 128.0,-0.0 256.0,-0.0 227.93231634661728,91.80525657245141 199.86463269323457,183.61051314490282 71.86463269323457,183.61051314490282 -56.13536730676543,183.61051314490282" stroke="#c000c0" fill="none" stroke-width="2.0" stroke-linecap="round" stroke-linejoin="round"/><text x="127.0" y="-2" fill="#c000c0" stroke-width="0.0" font-family="Arial" font-size="8.0pt">0</text><text x="226.93231634661728" y="90" fill="#c000c0" stroke-width="0.0" font-family="Arial" font-size="8.0pt">1</text><text x="70.86463269323457" y="182" fill="#c000c0" stroke-width="0.0" font-family="Arial" font-size="8.0pt">2</text><line x1="-50.802033973432096" y1="183.61051314490282" x2="-45.46870064009876" y2="183.61051314490282" stroke="#d3d3d3" fill="none" stroke-width="2.0" stroke-linecap="round"/><line x1="-40.135367306765424" y1="183.61051314490282" x2="-34.80203397343209" y2="183.61051314490282" stroke="#d3d3d3" fill="none" stroke-width="2.0" stroke-linecap="round"/><line x1="-29.468700640098756" y1="183.61051314490282" x2="-24.135367306765424" y2="183.61051314490282" stroke="#d3d3d3" fill="none" stroke-width="2.0" stroke-linecap="round"/><line x1="-18.802033973432092" y1="183.61051314490282" x2="-13.46870064009876" y2="183.61051314490282" stroke="#d3d3d3" fill="none" stroke-width="2.0" stroke-linecap="round"/><line x1="-8.135367306765428" y1="183.61051314490282" x2="-2.8020339734320947" y2="183.61051314490282" stroke="#d3d3d3" fill="none" stroke-width="2.0" stroke-linecap="round"/><line x1="2.5312993599012383" y1="183.61051314490282" x2="7.864632693234571" y2="183.61051314490282" stroke="#d3d3d3" fill="none" stroke-width="2.0" stroke-linecap="round"/><line x1="13.197966026567904" y1="183.61051314490282" x2="18.531299359901237" y2="183.61051314490282" stroke="#d3d3d3" fill="none" stroke-width="2.0" stroke-linecap="round"/><line x1="23.86463269323457" y1="183.61051314490282" x2="29.1979660265679" y2="183.61051314490282" stroke="#d3d3d3" fill="none" stroke-width="2.0" stroke-linecap="round"/><line x1="34.53129935990123" y1="183.61051314490282" x2="39.86463269323457" y2="183.61051314490282" stroke="#d3d3d3" fill="none" stroke-width="2.0" stroke-linecap="round"/><line x1="45.197966026567904" y1="183.61051314490282" x2="50.53129935990124" y2="183.61051314490282" stroke="#d3d3d3" fill="none" stroke-width="2.0" stroke-linecap="round"/><line x1="55.864632693234576" y1="183.61051314490282" x2="61.19796602656791" y2="183.61051314490282" stroke="#d3d3d3" fill="none" stroke-width="2.0" stroke-linecap="round"/><line x1="66.53129935990124" y1="183.61051314490282" x2="71.86463269323457" y2="183.61051314490282" stroke="#d3d3d3" fill="none" stroke-width="2.0" stroke-linecap="round"/><text x="70.86463269323457" y="182" fill="#d3d3d3" stroke-width="0.0" font-family="Arial" font-size="8.0pt">3</text><line x1="77.1979660265679" y1="183.61051314490282" x2="82.53129935990123" y2="183.61051314490282" stroke="#d3d3d3" fill="none" stroke-width="2.0" stroke-linecap="round"/><line x1="87.86463269323455" y1="183.61051314490282" x2="93.19796602656788" y2="183.61051314490282" stroke="#d3d3d3" fill="none" stroke-width="2.0" stroke-linecap="round"/><line x1="98.53129935990121" y1="183.61051314490282" x2="103.86463269323454" y2="183.61051314490282" stroke="#d3d3d3" fill="none" stroke-width="2.0" stroke-linecap="round"/><line x1="109.19796602656787" y1="183.61051314490282" x2="114.5312993599012" y2="183.61051314490282" stroke="#d3d3d3" fill="none" stroke-width="2.0" stroke-linecap="round"/><line x1="119.86463269323453" y1="183.61051314490282" x2="125.19796602656785" y2="183.61051314490282" stroke="#d3d3d3" fill="none" stroke-width="2.0" stroke-linecap="round"/><line x1="130.5312993599012" y1="183.61051314490282" x2="135.86463269323454" y2="183.61051314490282" stroke="#d3d3d3" fill="none" stroke-width="2.0" stroke-linecap="round"/><line x1="141.19796602656788" y1="183.61051314490282" x2="146.53129935990123" y2="183.61051314490282" stroke="#d3d3d3" fill="none" stroke-width="2.0" stroke-linecap="round"/><line x1="151.86463269323457" y1="183.61051314490282" x2="157.1979660265679" y2="183.61051314490282" stroke="#d3d3d3" fill="none" stroke-width="2.0" stroke-linecap="round"/><line x1="162.53129935990125" y1="183.61051314490282" x2="167.8646326932346" y2="183.61051314490282" stroke="#d3d3d3" fill="none" stroke-width="2.0" stroke-linecap="round"/><line x1="173.19796602656794" y1="183.61051314490282" x2="178.53129935990128" y2="183.61051314490282" stroke="#d3d3d3" fill="none" stroke-width="2.0" stroke-linecap="round"/><line x1="183.86463269323463" y1="183.61051314490282" x2="189.19796602656797" y2="183.61051314490282" stroke="#d3d3d3" fill="none" stroke-width="2.0" stroke-linecap="round"/><line x1="194.5312993599013" y1="183.61051314490282" x2="199.86463269323465" y2="183.61051314490282" stroke="#d3d3d3" fill="none" stroke-width="2.0" stroke-linecap="round"/><polyline points="199.86463269323465,183.61051314490282 171.79694903985197,275.41576971735424 143.72926538646928,367.22102628980565 15.72926538646928,367.2210262898057 -112.27073461353072,367.22102628980576" stroke="#c000c0" fill="none" stroke-width="2.0" stroke-linecap="round" stroke-linejoin="round"/><text x="170.79694903985197" y="273" fill="#c000c0" stroke-width="0.0" font-family="Arial" font-size="8.0pt">4</text><text x="14.72926538646928" y="365" fill="#c000c0" stroke-width="0.0" font-family="Arial" font-size="8.0pt">5</text><polygon points="-112.27073461353072,367.22102628980576 -103.27073461353072,372.22102628980576 -105.27073461353072,367.22102628980576 -103.27073461353072,362.22102628980576" stroke="#c000c0" fill="#c000c0" fill-rule="evenodd" stroke-linejoin="round"/></svg>