<?xml version="1.0" ?><!DOCTYPE svg  PUBLIC '-//W3C//DTD SVG 1.1//EN'  'http://www.w3.org/Graphics/SVG/1.1/DTD/svg11.dtd'><svg xmlns="http://www.w3.org/2000/svg" width="393.000" height="400.000" viewBox="-124.000 -20.000 393.000 400.000"><line x1="0.0" y1="0.0" x2="0.0" y2="0.0" stroke="none" fill="none" stroke-width="2.0" stroke-linecap="round"/><line x1="0.0" y1="-0.0" x2="0.0" y2="-0.0" stroke="#808080" fill="none" stroke-width="8.0" stroke-linecap="round"/><line x1="5.333333333333333" y1="-0.0" x2="10.666666666666666" y2="-0.0" stroke="#d3d3d3" fill="none" stroke-width="2.0" stroke-linecap="round"/><line x1="16.0" y1="-0.0" x2="21.333333333333332" y2="-0.0" stroke="#d3d3d3" fill="none" stroke-width="2.0" stroke-linecap="round"/><line x1="26.666666666666664" y1="-0.0" x2="31.999999999999996" y2="-0.0" stroke="#d3d3d3" fill="none" stroke-width="2.0" stroke-linecap="round"/><line x1="37.33333333333333" y1="-0.0" x2="42.666666666666664" y2="-0.0" stroke="#d3d3d3" fill="none" stroke-width="2.0" stroke-linecap="round"/><line x1="48.0" y1="-0.0" x2="53.333333333333336" y2="-0.0" stroke="#d3d3d3" fill="none" stroke-width="2.0" stroke-linecap="round"/><line x1="58.66666666666667" y1="-0.0" x2="64.0" y2="-0.0" stroke="#d3d3d3" fill="none" stroke-width="2.0" stroke-linecap="round"/><line x1="69.33333333333333" y1="-0.0" x2="74.66666666666666" y2="-0.0" stroke="#d3d3d3" fill="none" stroke-width="2.0" stroke-linecap="round"/><line x1="79.99999999999999" y1="-0.0" x2="85.33333333333331" y2="-0.0" stroke="#d3d3d3" fill="none" stroke-width="2.0" stroke-linecap="round"/><line x1="90.66666666666664" y1="-0.0" x2="95.99999999999997" y2="-0.0" stroke="#d3d3d3" fill="none" stroke-width="2.0" stroke-linecap="round"/><line x1="101.3333333333333" y1="-0.0" x2="106.66666666666663" y2="-0.0" stroke="#d3d3d3" fill="none" stroke-width="2.0" stroke-linecap="round"/><line x1="111.99999999999996" y1="-0.0" x2="117.33333333333329" y2="-0.0" stroke="#d3d3d3" fill="none" stroke-width="2.0" stroke-linecap="round"/><line x1="122.66666666666661" y1="-0.0" x2="127.99999999999994" y2="-0.0" stroke="#d3d3d3" fill="none" stroke-width="2.0" stroke-linecap="round"/><text x="126.99999999999994" y="-2" fill="#d3d3d3" stroke-width="0.0" font-family="Arial" font-size="8.0pt">0</text><line x1="133.3333333333333" y1="-0.0" x2="138.66666666666663" y2="-0.0" stroke="#d3d3d3" fill="none" stroke-width="2.0" stroke-linecap="round"/><line x1="143.99999999999997" y1="-0.0" x2="149.33333333333331" y2="-0.0" stroke="#d3d3d3" fill="none" stroke-width="2.0" stroke-linecap="round"/><line x1="154.66666666666666" y1="-0.0" x2="160.0" y2="-0.0" stroke="#d3d3d3" fill="none" stroke-width="2.0" stroke-linecap="round"/><line x1="165.33333333333334" y1="-0.0" x2="170.66666666666669" y2="-0.0" stroke="#d3d3d3" fill="none" stroke-width="2.0" stroke-linecap="round"/><line x1="176.00000000000003" y1="-0.0" x2="181.33333333333337" y2="-0.0" stroke="#d3d3d3" fill="none" stroke-width="2.0" stroke-linecap="round"/><line x1="186.6666666666667" y1="-0.0" x2="192.00000000000006" y2="-0.0" stroke="#d3d3d3" fill="none" stroke-width="2.0" stroke-linecap="round"/><line x1="197.3333333333334" y1="-0.0" x2="202.66666666666674" y2="-0.0" stroke="#d3d3d3" fill="none" stroke-width="2.0" stroke-linecap="round"/><line x1="208.00000000000009" y1="-0.0" x2="213.33333333333343" y2="-0.0" stroke="#d3d3d3" fill="none" stroke-width="2.0" stroke-linecap="round"/><line x1="218.66666666666677" y1="-0.0" x2="224.0000000000001" y2="-0.0" stroke="#d3d3d3" fill="none" stroke-width="2.0" stroke-linecap="round"/><line x1="229.33333333333346" y1="-0.0" x2="234.6666666666668" y2="-0.0" stroke="#d3d3d3" fill="none" stroke-width="2.0" stroke-linecap="round"/><line x1="240.00000000000014" y1="-0.0" x2="245.33333333333348" y2="-0.0" stroke="#d3d3d3" fill="none" stroke-width="2.0" stroke-linecap="round"/><line x1="250.66666666666683" y1="-0.0" x2="256.00000000000017" y2="-0.0" stroke="#d3d3d3" fill="none" stroke-width="2.0" stroke-linecap="round"/><polyline points="256.00000000000017,-0.0 128.00000000000017,1.567547902908612e-14 1.7053025658242404e-13,3.135095805817224e-14 -56.13536730676527,183.61051314490282 -112.2707346135307,367.22102628980565 15.72926538646928,367.22102628980565 143.72926538646925,367.22102628980565 171.79694903985197,275.41576971735424 199.86463269323468,183.61051314490285 71.86463269323468,183.61051314490282 -56.13536730676532,183.61051314490282" stroke="#c000c0" fill="none" stroke-width="2.0" stroke-linecap="round" stroke-linejoin="round"/><text x="127.00000000000017" y="-2" fill="#c000c0" stroke-width="0.0" font-family="Arial" font-size="8.0pt">1</text><text x="-57.13536730676527" y="182" fill="#c000c0" stroke-width="0.0" font-family="Arial" font-size="8.0pt">2</text><text x="14.72926538646928" y="365" fill="#c000c0" stroke-width="0.0" font-family="Arial" font-size="8.0pt">3</text><text x="170.79694903985197" y="273" fill="#c000c0" stroke-width="0.0" font-family="Arial" font-size="8.0pt">4</text><text x="70.86463269323468" y="182" fill="#c000c0" stroke-width="0.0" font-family="Arial" font-size="8.0pt">5</text><polygon points="-56.13536730676532,183.61051314490282 -47.13536730676532,188.61051314490282 -49.13536730676532,183.61051314490282 -47.13536730676532,178.61051314490282" stroke="#c000c0" fill="#c000c0" fill-rule="evenodd" stroke-linejoin="round"/></svg>