<?xml version="1.0" ?><!DOCTYPE svg  PUBLIC '-//W3C//DTD SVG 1.1//EN'  'http://www.w3.org/Graphics/SVG/1.1/DTD/svg11.dtd'><svg xmlns="http://www.w3.org/2000/svg" width="393.000" height="400.000" viewBox="-124.000 -20.000 393.000 400.000"><line x1="0.0" y1="0.0" x2="0.0" y2="0.0" stroke="none" fill="none" stroke-width="2.0" stroke-linecap="round"/><line x1="0.0" y1="-0.0" x2="0.0" y2="-0.0" stroke="#808080" fill="none" stroke-width="8.0" stroke-linecap="round"/><polyline points="0.0,-0.0 128.0,-0.0 256.0,-0.0 199.86463269323457,183.61051314490282 143.72926538646914,367.22102628980565 15.729265386469137,367.22102628980565 -112.27073461353086,367.22102628980565 -56.135367306765446,183.61051314490282 -2.842170943040401e-14,-0.0" stroke="#c000c0" fill="none" stroke-width="2.0" stroke-linecap="round" stroke-linejoin="round"/><text x="127.0" y="-2" fill="#c000c0" stroke-width="0.0" font-family="Arial" font-size="8.0pt">0</text><text x="198.86463269323457" y="182" fill="#c000c0" stroke-width="0.0" font-family="Arial" font-size="8.0pt">1</text><text x="14.729265386469137" y="365" fill="#c000c0" stroke-width="0.0" font-family="Arial" font-size="8.0pt">2</text><text x="-57.135367306765446" y="182" fill="#c000c0" stroke-width="0.0" font-family="Arial" font-size="8.0pt">3</text><line x1="5.333333333333304" y1="-1.1842378929335002e-15" x2="10.666666666666636" y2="-2.3684757858670005e-15" stroke="#d3d3d3" fill="none" stroke-width="2.0" stroke-linecap="round"/><line x1="15.999999999999968" y1="-3.552713678800501e-15" x2="21.3333333333333" y2="-4.736951571734001e-15" stroke="#d3d3d3" fill="none" stroke-width="2.0" stroke-linecap="round"/><line x1="26.666666666666632" y1="-5.921189464667501e-15" x2="31.999999999999964" y2="-7.105427357601001e-15" stroke="#d3d3d3" fill="none" stroke-width="2.0" stroke-linecap="round"/><line x1="37.3333333333333" y1="-8.289665250534501e-15" x2="42.66666666666663" y2="-9.473903143468002e-15" stroke="#d3d3d3" fill="none" stroke-width="2.0" stroke-linecap="round"/><line x1="47.99999999999996" y1="-1.0658141036401503e-14" x2="53.333333333333286" y2="-1.1842378929335004e-14" stroke="#d3d3d3" fill="none" stroke-width="2.0" stroke-linecap="round"/><line x1="58.666666666666615" y1="-1.3026616822268504e-14" x2="63.99999999999994" y2="-1.4210854715202004e-14" stroke="#d3d3d3" fill="none" stroke-width="2.0" stroke-linecap="round"/><line x1="69.33333333333327" y1="-1.5395092608135503e-14" x2="74.6666666666666" y2="-1.6579330501069002e-14" stroke="#d3d3d3" fill="none" stroke-width="2.0" stroke-linecap="round"/><line x1="79.99999999999993" y1="-1.77635683940025e-14" x2="85.33333333333326" y2="-1.8947806286936e-14" stroke="#d3d3d3" fill="none" stroke-width="2.0" stroke-linecap="round"/><line x1="90.66666666666659" y1="-2.01320441798695e-14" x2="95.99999999999991" y2="-2.1316282072803e-14" stroke="#d3d3d3" fill="none" stroke-width="2.0" stroke-linecap="round"/><line x1="101.33333333333324" y1="-2.25005199657365e-14" x2="106.66666666666657" y2="-2.3684757858669998e-14" stroke="#d3d3d3" fill="none" stroke-width="2.0" stroke-linecap="round"/><line x1="111.9999999999999" y1="-2.4868995751603497e-14" x2="117.33333333333323" y2="-2.6053233644536996e-14" stroke="#d3d3d3" fill="none" stroke-width="2.0" stroke-linecap="round"/><line x1="122.66666666666656" y1="-2.7237471537470496e-14" x2="127.99999999999989" y2="-2.8421709430403995e-14" stroke="#d3d3d3" fill="none" stroke-width="2.0" stroke-linecap="round"/><text x="126.99999999999989" y="-2" fill="#d3d3d3" stroke-width="0.0" font-family="Arial" font-size="8.0pt">4</text><line x1="133.33333333333323" y1="-2.96059473233375e-14" x2="138.66666666666657" y2="-3.0790185216271e-14" stroke="#d3d3d3" fill="none" stroke-width="2.0" stroke-linecap="round"/><line x1="143.99999999999991" y1="-3.19744231092045e-14" x2="149.33333333333326" y2="-3.3158661002138004e-14" stroke="#d3d3d3" fill="none" stroke-width="2.0" stroke-linecap="round"/><line x1="154.6666666666666" y1="-3.434289889507151e-14" x2="159.99999999999994" y2="-3.552713678800501e-14" stroke="#d3d3d3" fill="none" stroke-width="2.0" stroke-linecap="round"/><line x1="165.3333333333333" y1="-3.671137468093851e-14" x2="170.66666666666663" y2="-3.7895612573872014e-14" stroke="#d3d3d3" fill="none" stroke-width="2.0" stroke-linecap="round"/><line x1="175.99999999999997" y1="-3.9079850466805517e-14" x2="181.33333333333331" y2="-4.026408835973902e-14" stroke="#d3d3d3" fill="none" stroke-width="2.0" stroke-linecap="round"/><line x1="186.66666666666666" y1="-4.144832625267252e-14" x2="192.0" y2="-4.2632564145606024e-14" stroke="#d3d3d3" fill="none" stroke-width="2.0" stroke-linecap="round"/><line x1="197.33333333333334" y1="-4.3816802038539526e-14" x2="202.66666666666669" y2="-4.500103993147303e-14" stroke="#d3d3d3" fill="none" stroke-width="2.0" stroke-linecap="round"/><line x1="208.00000000000003" y1="-4.618527782440653e-14" x2="213.33333333333337" y2="-4.7369515717340033e-14" stroke="#d3d3d3" fill="none" stroke-width="2.0" stroke-linecap="round"/><line x1="218.6666666666667" y1="-4.8553753610273536e-14" x2="224.00000000000006" y2="-4.973799150320704e-14" stroke="#d3d3d3" fill="none" stroke-width="2.0" stroke-linecap="round"/><line x1="229.3333333333334" y1="-5.092222939614054e-14" x2="234.66666666666674" y2="-5.210646728907404e-14" stroke="#d3d3d3" fill="none" stroke-width="2.0" stroke-linecap="round"/><line x1="240.00000000000009" y1="-5.3290705182007545e-14" x2="245.33333333333343" y2="-5.447494307494105e-14" stroke="#d3d3d3" fill="none" stroke-width="2.0" stroke-linecap="round"/><line x1="250.66666666666677" y1="-5.565918096787455e-14" x2="256.0000000000001" y2="-5.684341886080805e-14" stroke="#d3d3d3" fill="none" stroke-width="2.0" stroke-linecap="round"/><line x1="254.44068424147886" y1="5.100292031802799" x2="252.8813684829576" y2="10.200584063605655" stroke="#d3d3d3" fill="none" stroke-width="2.0" stroke-linecap="round"/><line x1="251.32205272443636" y1="15.300876095408512" x2="249.7627369659151" y2="20.401168127211367" stroke="#d3d3d3" fill="none" stroke-width="2.0" stroke-linecap="round"/><line x1="248.20342120739386" y1="25.501460159014222" x2="246.6441054488726" y2="30.601752190817077" stroke="#d3d3d3" fill="none" stroke-width="2.0" stroke-linecap="round"/><line x1="245.08478969035136" y1="35.70204422261993" x2="243.5254739318301" y2="40.80233625442279" stroke="#d3d3d3" fill="none" stroke-width="2.0" stroke-linecap="round"/><line x1="241.96615817330886" y1="45.90262828622565" x2="240.4068424147876" y2="51.00292031802851" stroke="#d3d3d3" fill="none" stroke-width="2.0" stroke-linecap="round"/><line x1="238.84752665626635" y1="56.10321234983137" x2="237.2882108977451" y2="61.203504381634225" stroke="#d3d3d3" fill="none" stroke-width="2.0" stroke-linecap="round"/><line x1="235.72889513922385" y1="66.30379641343708" x2="234.1695793807026" y2="71.40408844523994" stroke="#d3d3d3" fill="none" stroke-width="2.0" stroke-linecap="round"/><line x1="232.61026362218135" y1="76.50438047704279" x2="231.0509478636601" y2="81.60467250884564" stroke="#d3d3d3" fill="none" stroke-width="2.0" stroke-linecap="round"/><line x1="229.49163210513885" y1="86.70496454064849" x2="227.9323163466176" y2="91.80525657245134" stroke="#d3d3d3" fill="none" stroke-width="2.0" stroke-linecap="round"/><text x="226.9323163466176" y="90" fill="#d3d3d3" stroke-width="0.0" font-family="Arial" font-size="8.0pt">5</text><line x1="226.37300058809635" y1="96.9055486042542" x2="224.8136848295751" y2="102.00584063605704" stroke="#d3d3d3" fill="none" stroke-width="2.0" stroke-linecap="round"/><line x1="223.25436907105384" y1="107.1061326678599" x2="221.6950533125326" y2="112.20642469966275" stroke="#d3d3d3" fill="none" stroke-width="2.0" stroke-linecap="round"/><line x1="220.13573755401134" y1="117.3067167314656" x2="218.5764217954901" y2="122.40700876326845" stroke="#d3d3d3" fill="none" stroke-width="2.0" stroke-linecap="round"/><line x1="217.01710603696884" y1="127.5073007950713" x2="215.4577902784476" y2="132.60759282687417" stroke="#d3d3d3" fill="none" stroke-width="2.0" stroke-linecap="round"/><line x1="213.89847451992634" y1="137.70788485867703" x2="212.3391587614051" y2="142.8081768904799" stroke="#d3d3d3" fill="none" stroke-width="2.0" stroke-linecap="round"/><line x1="210.77984300288384" y1="147.90846892228276" x2="209.2205272443626" y2="153.00876095408563" stroke="#d3d3d3" fill="none" stroke-width="2.0" stroke-linecap="round"/><line x1="207.66121148584133" y1="158.1090529858885" x2="206.10189572732008" y2="163.20934501769136" stroke="#d3d3d3" fill="none" stroke-width="2.0" stroke-linecap="round"/><line x1="204.54257996879883" y1="168.30963704949423" x2="202.98326421027758" y2="173.4099290812971" stroke="#d3d3d3" fill="none" stroke-width="2.0" stroke-linecap="round"/><line x1="201.42394845175633" y1="178.51022111309996" x2="199.86463269323508" y2="183.61051314490282" stroke="#d3d3d3" fill="none" stroke-width="2.0" stroke-linecap="round"/><polyline points="199.86463269323508,183.61051314490282 71.8646326932351,183.61051314490288 -56.13536730676489,183.61051314490294" stroke="#c000c0" fill="none" stroke-width="2.0" stroke-linecap="round" stroke-linejoin="round"/><text x="70.8646326932351" y="182" fill="#c000c0" stroke-width="0.0" font-family="Arial" font-size="8.0pt">6</text><polygon points="-56.13536730676489,183.61051314490294 -47.13536730676489,188.61051314490294 -49.13536730676489,183.61051314490294 -47.13536730676489,178.61051314490294" stroke="#c000c0" fill="#c000c0" fill-rule="evenodd" stroke-linejoin="round"/></svg>