<?xml version="1.0" ?><!DOCTYPE svg  PUBLIC '-//W3C//DTD SVG 1.1//EN'  'http://www.w3.org/Graphics/SVG/1.1/DTD/svg11.dtd'><svg xmlns="http://www.w3.org/2000/svg" width="393.000" height="404.000" viewBox="-124.000 -20.000 393.000 404.000"><line x1="0.0" y1="0.0" x2="0.0" y2="0.0" stroke="none" fill="none" stroke-width="2.0" stroke-linecap="round"/><line x1="0.0" y1="-0.0" x2="0.0" y2="-0.0" stroke="#808080" fill="none" stroke-width="8.0" stroke-linecap="round"/><line x1="5.333333333333333" y1="-0.0" x2="10.666666666666666" y2="-0.0" stroke="#d3d3d3" fill="none" stroke-width="2.0" stroke-linecap="round"/><line x1="16.0" y1="-0.0" x2="21.333333333333332" y2="-0.0" stroke="#d3d3d3" fill="none" stroke-width="2.0" stroke-linecap="round"/><line x1="26.666666666666664" y1="-0.0" x2="31.999999999999996" y2="-0.0" stroke="#d3d3d3" fill="none" stroke-width="2.0" stroke-linecap="round"/><line x1="37.33333333333333" y1="-0.0" x2="42.666666666666664" y2="-0.0" stroke="#d3d3d3" fill="none" stroke-width="2.0" stroke-linecap="round"/><line x1="48.0" y1="-0.0" x2="53.333333333333336" y2="-0.0" stroke="#d3d3d3" fill="none" stroke-width="2.0" stroke-linecap="round"/><line x1="58.66666666666667" y1="-0.0" x2="64.0" y2="-0.0" stroke="#d3d3d3" fill="none" stroke-width="2.0" stroke-linecap="round"/><line x1="69.33333333333333" y1="-0.0" x2="74.66666666666666" y2="-0.0" stroke="#d3d3d3" fill="none" stroke-width="2.0" stroke-linecap="round"/><line x1="79.99999999999999" y1="-0.0" x2="85.33333333333331" y2="-0.0" stroke="#d3d3d3" fill="none" stroke-width="2.0" stroke-linecap="round"/><line x1="90.66666666666664" y1="-0.0" x2="95.99999999999997" y2="-0.0" stroke="#d3d3d3" fill="none" stroke-width="2.0" stroke-linecap="round"/><line x1="101.3333333333333" y1="-0.0" x2="106.66666666666663" y2="-0.0" stroke="#d3d3d3" fill="none" stroke-width="2.0" stroke-linecap="round"/><line x1="111.99999999999996" y1="-0.0" x2="117.33333333333329" y2="-0.0" stroke="#d3d3d3" fill="none" stroke-width="2.0" stroke-linecap="round"/><line x1="122.66666666666661" y1="-0.0" x2="127.99999999999994" y2="-0.0" stroke="#d3d3d3" fill="none" stroke-width="2.0" stroke-linecap="round"/><text x="126.99999999999994" y="-2" fill="#d3d3d3" stroke-width="0.0" font-family="Arial" font-size="8.0pt">0</text><line x1="133.3333333333333" y1="-0.0" x2="138.66666666666663" y2="-0.0" stroke="#d3d3d3" fill="none" stroke-width="2.0" stroke-linecap="round"/><line x1="143.99999999999997" y1="-0.0" x2="149.33333333333331" y2="-0.0" stroke="#d3d3d3" fill="none" stroke-width="2.0" stroke-linecap="round"/><line x1="154.66666666666666" y1="-0.0" x2="160.0" y2="-0.0" stroke="#d3d3d3" fill="none" stroke-width="2.0" stroke-linecap="round"/><line x1="165.33333333333334" y1="-0.0" x2="170.66666666666669" y2="-0.0" stroke="#d3d3d3" fill="none" stroke-width="2.0" stroke-linecap="round"/><line x1="176.00000000000003" y1="-0.0" x2="181.33333333333337" y2="-0.0" stroke="#d3d3d3" fill="none" stroke-width="2.0" stroke-linecap="round"/><line x1="186.6666666666667" y1="-0.0" x2="192.00000000000006" y2="-0.0" stroke="#d3d3d3" fill="none" stroke-width="2.0" stroke-linecap="round"/><line x1="197.3333333333334" y1="-0.0" x2="202.66666666666674" y2="-0.0" stroke="#d3d3d3" fill="none" stroke-width="2.0" stroke-linecap="round"/><line x1="208.00000000000009" y1="-0.0" x2="213.33333333333343" y2="-0.0" stroke="#d3d3d3" fill="none" stroke-width="2.0" stroke-linecap="round"/><line x1="218.66666666666677" y1="-0.0" x2="224.0000000000001" y2="-0.0" stroke="#d3d3d3" fill="none" stroke-width="2.0" stroke-linecap="round"/><line x1="229.33333333333346" y1="-0.0" x2="234.6666666666668" y2="-0.0" stroke="#d3d3d3" fill="none" stroke-width="2.0" stroke-linecap="round"/><line x1="240.00000000000014" y1="-0.0" x2="245.33333333333348" y2="-0.0" stroke="#d3d3d3" fill="none" stroke-width="2.0" stroke-linecap="round"/><line x1="250.66666666666683" y1="-0.0" x2="256.00000000000017" y2="-0.0" stroke="#d3d3d3" fill="none" stroke-width="2.0" stroke-linecap="round"/><line x1="254.44068424147892" y1="5.100292031802856" x2="252.88136848295767" y2="10.200584063605712" stroke="#d3d3d3" fill="none" stroke-width="2.0" stroke-linecap="round"/><line x1="251.32205272443642" y1="15.300876095408569" x2="249.76273696591517" y2="20.401168127211424" stroke="#d3d3d3" fill="none" stroke-width="2.0" stroke-linecap="round"/><line x1="248.20342120739392" y1="25.50146015901428" x2="246.64410544887266" y2="30.601752190817134" stroke="#d3d3d3" fill="none" stroke-width="2.0" stroke-linecap="round"/><line x1="245.0847896903514" y1="35.70204422261999" x2="243.52547393183016" y2="40.80233625442285" stroke="#d3d3d3" fill="none" stroke-width="2.0" stroke-linecap="round"/><line x1="241.9661581733089" y1="45.902628286225706" x2="240.40684241478766" y2="51.002920318028565" stroke="#d3d3d3" fill="none" stroke-width="2.0" stroke-linecap="round"/><line x1="238.8475266562664" y1="56.10321234983142" x2="237.28821089774516" y2="61.20350438163428" stroke="#d3d3d3" fill="none" stroke-width="2.0" stroke-linecap="round"/><line x1="235.7288951392239" y1="66.30379641343714" x2="234.16957938070266" y2="71.40408844523999" stroke="#d3d3d3" fill="none" stroke-width="2.0" stroke-linecap="round"/><line x1="232.6102636221814" y1="76.50438047704284" x2="231.05094786366016" y2="81.6046725088457" stroke="#d3d3d3" fill="none" stroke-width="2.0" stroke-linecap="round"/><line x1="229.4916321051389" y1="86.70496454064855" x2="227.93231634661765" y2="91.8052565724514" stroke="#d3d3d3" fill="none" stroke-width="2.0" stroke-linecap="round"/><line x1="226.3730005880964" y1="96.90554860425425" x2="224.81368482957515" y2="102.0058406360571" stroke="#d3d3d3" fill="none" stroke-width="2.0" stroke-linecap="round"/><line x1="223.2543690710539" y1="107.10613266785995" x2="221.69505331253265" y2="112.2064246996628" stroke="#d3d3d3" fill="none" stroke-width="2.0" stroke-linecap="round"/><line x1="220.1357375540114" y1="117.30671673146566" x2="218.57642179549015" y2="122.40700876326851" stroke="#d3d3d3" fill="none" stroke-width="2.0" stroke-linecap="round"/><text x="217.57642179549015" y="120" fill="#d3d3d3" stroke-width="0.0" font-family="Arial" font-size="8.0pt">1</text><line x1="217.0171060369689" y1="127.50730079507136" x2="215.45779027844765" y2="132.60759282687422" stroke="#d3d3d3" fill="none" stroke-width="2.0" stroke-linecap="round"/><line x1="213.8984745199264" y1="137.7078848586771" x2="212.33915876140514" y2="142.80817689047996" stroke="#d3d3d3" fill="none" stroke-width="2.0" stroke-linecap="round"/><line x1="210.7798430028839" y1="147.90846892228282" x2="209.22052724436264" y2="153.0087609540857" stroke="#d3d3d3" fill="none" stroke-width="2.0" stroke-linecap="round"/><line x1="207.6612114858414" y1="158.10905298588855" x2="206.10189572732014" y2="163.20934501769142" stroke="#d3d3d3" fill="none" stroke-width="2.0" stroke-linecap="round"/><line x1="204.5425799687989" y1="168.30963704949428" x2="202.98326421027764" y2="173.40992908129715" stroke="#d3d3d3" fill="none" stroke-width="2.0" stroke-linecap="round"/><line x1="201.4239484517564" y1="178.51022111310002" x2="199.86463269323514" y2="183.61051314490288" stroke="#d3d3d3" fill="none" stroke-width="2.0" stroke-linecap="round"/><line x1="198.3053169347139" y1="188.71080517670575" x2="196.74600117619264" y2="193.8110972085086" stroke="#d3d3d3" fill="none" stroke-width="2.0" stroke-linecap="round"/><line x1="195.18668541767138" y1="198.91138924031148" x2="193.62736965915013" y2="204.01168127211434" stroke="#d3d3d3" fill="none" stroke-width="2.0" stroke-linecap="round"/><line x1="192.06805390062888" y1="209.1119733039172" x2="190.50873814210763" y2="214.21226533572008" stroke="#d3d3d3" fill="none" stroke-width="2.0" stroke-linecap="round"/><line x1="188.94942238358638" y1="219.31255736752294" x2="187.39010662506513" y2="224.4128493993258" stroke="#d3d3d3" fill="none" stroke-width="2.0" stroke-linecap="round"/><line x1="185.83079086654388" y1="229.51314143112867" x2="184.27147510802263" y2="234.61343346293154" stroke="#d3d3d3" fill="none" stroke-width="2.0" stroke-linecap="round"/><line x1="182.71215934950138" y1="239.7137254947344" x2="181.15284359098013" y2="244.81401752653727" stroke="#d3d3d3" fill="none" stroke-width="2.0" stroke-linecap="round"/><polyline points="181.15284359098013,244.81401752653727 53.152843590980126,244.81401752653727 -74.84715640901987,244.81401752653727 -37.423578204509596,122.40700876326872 6.821210263296962e-13,1.7053025658242404e-13 128.00000000000068,1.4210854715202004e-13 256.0000000000007,1.1368683772161603e-13 199.8646326932353,183.61051314490294 143.72926538646993,367.22102628980576 15.729265386469947,367.2210262898058 -112.27073461353004,367.2210262898059" stroke="#c000c0" fill="none" stroke-width="2.0" stroke-linecap="round" stroke-linejoin="round"/><text x="52.152843590980126" y="243" fill="#c000c0" stroke-width="0.0" font-family="Arial" font-size="8.0pt">2</text><text x="-38.423578204509596" y="120" fill="#c000c0" stroke-width="0.0" font-family="Arial" font-size="8.0pt">3</text><text x="127.00000000000068" y="-2" fill="#c000c0" stroke-width="0.0" font-family="Arial" font-size="8.0pt">4</text><text x="198.8646326932353" y="182" fill="#c000c0" stroke-width="0.0" font-family="Arial" font-size="8.0pt">5</text><text x="14.729265386469947" y="365" fill="#c000c0" stroke-width="0.0" font-family="Arial" font-size="8.0pt">6</text><polygon points="-112.27073461353004,367.2210262898059 -103.27073461353004,372.2210262898059 -105.27073461353004,367.2210262898059 -103.27073461353004,362.2210262898059" stroke="#c000c0" fill="#c000c0" fill-rule="evenodd" stroke-linejoin="round"/></svg>