<?xml version="1.0" ?><!DOCTYPE svg  PUBLIC '-//W3C//DTD SVG 1.1//EN'  'http://www.w3.org/Graphics/SVG/1.1/DTD/svg11.dtd'><svg xmlns="http://www.w3.org/2000/svg" width="221.000" height="432.000" viewBox="-117.000 -413.000 221.000 432.000"><line x1="0.0" y1="0.0" x2="0.0" y2="0.0" stroke="none" fill="none" stroke-width="2.0" stroke-linecap="round"/><line x1="0.0" y1="-0.0" x2="0.0" y2="-0.0" stroke="#808080" fill="none" stroke-width="8.0" stroke-linecap="round"/><line x1="-1.1247552717193252" y1="-4.871850323926176" x2="-2.2495105434386504" y2="-9.743700647852352" stroke="#d3d3d3" fill="none" stroke-width="2.0" stroke-linecap="round"/><line x1="-3.3742658151579756" y1="-14.615550971778529" x2="-4.499021086877301" y2="-19.487401295704704" stroke="#d3d3d3" fill="none" stroke-width="2.0" stroke-linecap="round"/><line x1="-5.623776358596626" y1="-24.35925161963088" x2="-6.74853163031595" y2="-29.231101943557054" stroke="#d3d3d3" fill="none" stroke-width="2.0" stroke-linecap="round"/><line x1="-7.873286902035275" y1="-34.10295226748323" x2="-8.9980421737546" y2="-38.97480259140941" stroke="#d3d3d3" fill="none" stroke-width="2.0" stroke-linecap="round"/><line x1="-10.122797445473925" y1="-43.84665291533558" x2="-11.24755271719325" y2="-48.71850323926176" stroke="#d3d3d3" fill="none" stroke-width="2.0" stroke-linecap="round"/><line x1="-12.372307988912574" y1="-53.59035356318793" x2="-13.497063260631899" y2="-58.46220388711411" stroke="#d3d3d3" fill="none" stroke-width="2.0" stroke-linecap="round"/><line x1="-14.621818532351224" y1="-63.33405421104028" x2="-15.746573804070549" y2="-68.20590453496646" stroke="#d3d3d3" fill="none" stroke-width="2.0" stroke-linecap="round"/><line x1="-16.871329075789873" y1="-73.07775485889265" x2="-17.9960843475092" y2="-77.94960518281883" stroke="#d3d3d3" fill="none" stroke-width="2.0" stroke-linecap="round"/><line x1="-19.120839619228526" y1="-82.82145550674501" x2="-20.245594890947853" y2="-87.69330583067119" stroke="#d3d3d3" fill="none" stroke-width="2.0" stroke-linecap="round"/><line x1="-21.37035016266718" y1="-92.56515615459737" x2="-22.495105434386506" y2="-97.43700647852356" stroke="#d3d3d3" fill="none" stroke-width="2.0" stroke-linecap="round"/><line x1="-23.619860706105833" y1="-102.30885680244974" x2="-24.74461597782516" y2="-107.18070712637592" stroke="#d3d3d3" fill="none" stroke-width="2.0" stroke-linecap="round"/><line x1="-25.869371249544486" y1="-112.0525574503021" x2="-26.994126521263812" y2="-116.92440777422829" stroke="#d3d3d3" fill="none" stroke-width="2.0" stroke-linecap="round"/><line x1="-28.11888179298314" y1="-121.79625809815447" x2="-29.243637064702465" y2="-126.66810842208065" stroke="#d3d3d3" fill="none" stroke-width="2.0" stroke-linecap="round"/><line x1="-30.368392336421792" y1="-131.53995874600682" x2="-31.49314760814112" y2="-136.41180906993299" stroke="#d3d3d3" fill="none" stroke-width="2.0" stroke-linecap="round"/><text x="-32.493147608141115" y="-138" fill="#d3d3d3" stroke-width="0.0" font-family="Arial" font-size="8.0pt">0</text><line x1="-32.617902879860445" y1="-141.28365939385915" x2="-33.74265815157977" y2="-146.15550971778532" stroke="#d3d3d3" fill="none" stroke-width="2.0" stroke-linecap="round"/><line x1="-34.86741342329909" y1="-151.0273600417115" x2="-35.992168695018414" y2="-155.89921036563766" stroke="#d3d3d3" fill="none" stroke-width="2.0" stroke-linecap="round"/><line x1="-37.11692396673774" y1="-160.77106068956383" x2="-38.24167923845706" y2="-165.64291101349" stroke="#d3d3d3" fill="none" stroke-width="2.0" stroke-linecap="round"/><line x1="-39.36643451017638" y1="-170.51476133741616" x2="-40.491189781895706" y2="-175.38661166134233" stroke="#d3d3d3" fill="none" stroke-width="2.0" stroke-linecap="round"/><line x1="-41.61594505361503" y1="-180.2584619852685" x2="-42.74070032533435" y2="-185.13031230919466" stroke="#d3d3d3" fill="none" stroke-width="2.0" stroke-linecap="round"/><line x1="-43.865455597053675" y1="-190.00216263312083" x2="-44.990210868773" y2="-194.874012957047" stroke="#d3d3d3" fill="none" stroke-width="2.0" stroke-linecap="round"/><line x1="-46.11496614049232" y1="-199.74586328097317" x2="-47.239721412211644" y2="-204.61771360489934" stroke="#d3d3d3" fill="none" stroke-width="2.0" stroke-linecap="round"/><line x1="-48.36447668393097" y1="-209.4895639288255" x2="-49.48923195565029" y2="-214.36141425275167" stroke="#d3d3d3" fill="none" stroke-width="2.0" stroke-linecap="round"/><line x1="-50.61398722736961" y1="-219.23326457667784" x2="-51.738742499088936" y2="-224.105114900604" stroke="#d3d3d3" fill="none" stroke-width="2.0" stroke-linecap="round"/><line x1="-52.86349777080826" y1="-228.97696522453018" x2="-53.98825304252758" y2="-233.84881554845634" stroke="#d3d3d3" fill="none" stroke-width="2.0" stroke-linecap="round"/><line x1="-55.113008314246905" y1="-238.7206658723825" x2="-56.23776358596623" y2="-243.59251619630868" stroke="#d3d3d3" fill="none" stroke-width="2.0" stroke-linecap="round"/><line x1="-57.36251885768555" y1="-248.46436652023485" x2="-58.487274129404874" y2="-253.33621684416102" stroke="#d3d3d3" fill="none" stroke-width="2.0" stroke-linecap="round"/><line x1="-59.6120294011242" y1="-258.2080671680872" x2="-60.73678467284352" y2="-263.0799174920134" stroke="#d3d3d3" fill="none" stroke-width="2.0" stroke-linecap="round"/><line x1="-61.86153994456284" y1="-267.9517678159396" x2="-62.986295216282166" y2="-272.8236181398658" stroke="#d3d3d3" fill="none" stroke-width="2.0" stroke-linecap="round"/><polyline points="-62.986295216282166,-272.8236181398658 -84.1994986518786,-294.0368215754622 -105.41270208747503,-315.25002501105865 -85.41270208747503,-315.25002501105865 -65.41270208747503,-315.25002501105865 -65.41270208747503,-335.25002501105865 -65.41270208747503,-355.25002501105865 -51.270566463744075,-341.1078893873277 -37.128430840013124,-326.96575376359675 -22.14416710337665,-364.05310794626826 -7.159903366740174,-401.14046212893976 7.824360369896306,-364.05310794626826 22.808624106532786,-326.96575376359675 36.950759730263734,-341.1078893873277 51.092895353994685,-355.25002501105865 51.09289535399469,-335.25002501105865 51.0928953539947,-315.25002501105865 71.09289535399469,-315.25002501105865 91.09289535399469,-315.25002501105865 69.87969191839827,-294.0368215754622 48.666488482801846,-272.8236181398658" stroke="#c00000" fill="none" stroke-width="2.0" stroke-linecap="round" stroke-linejoin="round"/><text x="-85.1994986518786" y="-296" fill="#c00000" stroke-width="0.0" font-family="Arial" font-size="8.0pt">1</text><text x="-86.41270208747503" y="-317" fill="#c00000" stroke-width="0.0" font-family="Arial" font-size="8.0pt">2</text><text x="-66.41270208747503" y="-337" fill="#c00000" stroke-width="0.0" font-family="Arial" font-size="8.0pt">3</text><text x="-52.270566463744075" y="-343" fill="#c00000" stroke-width="0.0" font-family="Arial" font-size="8.0pt">4</text><text x="-23.14416710337665" y="-366" fill="#c00000" stroke-width="0.0" font-family="Arial" font-size="8.0pt">5</text><text x="6.824360369896306" y="-366" fill="#c00000" stroke-width="0.0" font-family="Arial" font-size="8.0pt">6</text><text x="35.950759730263734" y="-343" fill="#c00000" stroke-width="0.0" font-family="Arial" font-size="8.0pt">7</text><text x="50.09289535399469" y="-337" fill="#c00000" stroke-width="0.0" font-family="Arial" font-size="8.0pt">8</text><text x="70.09289535399469" y="-317" fill="#c00000" stroke-width="0.0" font-family="Arial" font-size="8.0pt">9</text><text x="68.87969191839827" y="-296" fill="#c00000" stroke-width="0.0" font-family="Arial" font-size="8.0pt">10</text><polygon points="48.666488482801846,-272.8236181398658 58.56598341941351,-275.652045264612 53.616235951107676,-277.7733656081716 51.49491560754803,-282.7231130764775" stroke="#c00000" fill="#c00000" fill-rule="evenodd" stroke-linejoin="round"/></svg>