<?xml version="1.0" ?><!DOCTYPE svg  PUBLIC '-//W3C//DTD SVG 1.1//EN'  'http://www.w3.org/Graphics/SVG/1.1/DTD/svg11.dtd'><svg xmlns="http://www.w3.org/2000/svg" width="424.000" height="431.000" viewBox="-208.000 -217.000 424.000 431.000"><line x1="0.0" y1="0.0" x2="0.0" y2="0.0" stroke="none" fill="none" stroke-width="2.0" stroke-linecap="round"/><line x1="0.0" y1="-0.0" x2="0.0" y2="-0.0" stroke="#808080" fill="none" stroke-width="8.0" stroke-linecap="round"/><polyline points="0.0,-0.0 10.648976575756894,-7.456493672563599 21.297953151513788,-14.912987345127197 111.29795315151378,-14.912987345127197 201.29795315151375,-14.912987345127197 201.29795315151375,-4.912987345127199 201.29795315151375,5.087012654872799 111.29795315151377,5.08701265487281 21.29795315151378,5.0870126548728205 2.8878560824649746,-2.7276099149126516 -15.522240986583832,-10.542232484698124 -105.52224098658382,-10.542232484698113 -195.52224098658382,-10.542232484698102 -195.52224098658382,-0.5422324846981024 -195.52224098658382,9.457767515301898 -105.52224098658382,9.4577675153019 -15.522240986583824,9.457767515301901 -6.25040244091595,5.711701581142782 3.021436104751924,1.9656356469836616 6.7675020389110445,11.237474192651536 10.513567973070165,20.50931273831941 10.51356797307017,110.50931273831941 10.513567973070176,200.5093127383194 0.5135679730701757,200.5093127383194 -9.486432026929824,200.5093127383194 -9.48643202692984,110.50931273831941 -9.486432026929856,20.50931273831941 -1.994300158611619,1.9656356469836567 5.4978317097066185,-16.578041444352095 5.497831709706599,-106.5780414443521 5.497831709706579,-196.5780414443521 -4.502168290293421,-196.5780414443521 -14.50216829029342,-196.5780414443521 -14.502168290293412,-106.5780414443521 -14.502168290293403,-16.578041444352095 -10.756102356134281,-7.306202898684221 -7.01003642197516,1.9656356469836531" stroke="#00c0c0" fill="none" stroke-width="2.0" stroke-linecap="round" stroke-linejoin="round"/><text x="9.648976575756894" y="-9" fill="#00c0c0" stroke-width="0.0" font-family="Arial" font-size="8.0pt">0</text><text x="110.29795315151378" y="-17" fill="#00c0c0" stroke-width="0.0" font-family="Arial" font-size="8.0pt">1</text><text x="200.29795315151375" y="-7" fill="#00c0c0" stroke-width="0.0" font-family="Arial" font-size="8.0pt">2</text><text x="110.29795315151377" y="3" fill="#00c0c0" stroke-width="0.0" font-family="Arial" font-size="8.0pt">3</text><text x="1.8878560824649746" y="-5" fill="#00c0c0" stroke-width="0.0" font-family="Arial" font-size="8.0pt">4</text><text x="-106.52224098658382" y="-13" fill="#00c0c0" stroke-width="0.0" font-family="Arial" font-size="8.0pt">5</text><text x="-196.52224098658382" y="-3" fill="#00c0c0" stroke-width="0.0" font-family="Arial" font-size="8.0pt">6</text><text x="-106.52224098658382" y="7" fill="#00c0c0" stroke-width="0.0" font-family="Arial" font-size="8.0pt">7</text><text x="-7.25040244091595" y="4" fill="#00c0c0" stroke-width="0.0" font-family="Arial" font-size="8.0pt">8</text><text x="5.7675020389110445" y="9" fill="#00c0c0" stroke-width="0.0" font-family="Arial" font-size="8.0pt">9</text><text x="9.51356797307017" y="109" fill="#00c0c0" stroke-width="0.0" font-family="Arial" font-size="8.0pt">10</text><text x="-0.48643202692982435" y="199" fill="#00c0c0" stroke-width="0.0" font-family="Arial" font-size="8.0pt">11</text><text x="-10.48643202692984" y="109" fill="#00c0c0" stroke-width="0.0" font-family="Arial" font-size="8.0pt">12</text><text x="-2.994300158611619" y="0" fill="#00c0c0" stroke-width="0.0" font-family="Arial" font-size="8.0pt">13</text><text x="4.497831709706599" y="-109" fill="#00c0c0" stroke-width="0.0" font-family="Arial" font-size="8.0pt">14</text><text x="-5.502168290293421" y="-199" fill="#00c0c0" stroke-width="0.0" font-family="Arial" font-size="8.0pt">15</text><text x="-15.502168290293412" y="-109" fill="#00c0c0" stroke-width="0.0" font-family="Arial" font-size="8.0pt">16</text><text x="-11.756102356134281" y="-9" fill="#00c0c0" stroke-width="0.0" font-family="Arial" font-size="8.0pt">17</text><polygon points="-7.01003642197516,1.9656356469836531 -5.7455764898844315,-8.252052011196994 -9.632282575886546,-4.524651334983859 -15.017415035552306,-4.505986077037874" stroke="#00c0c0" fill="#00c0c0" fill-rule="evenodd" stroke-linejoin="round"/></svg>