<?xml version="1.0" ?><!DOCTYPE svg  PUBLIC '-//W3C//DTD SVG 1.1//EN'  'http://www.w3.org/Graphics/SVG/1.1/DTD/svg11.dtd'><svg xmlns="http://www.w3.org/2000/svg" width="443.000" height="207.000" viewBox="-159.000 -105.000 443.000 207.000"><line x1="0.0" y1="0.0" x2="0.0" y2="0.0" stroke="none" fill="none" stroke-width="2.0" stroke-linecap="round"/><line x1="0.0" y1="-0.0" x2="0.0" y2="-0.0" stroke="#808080" fill="none" stroke-width="8.0" stroke-linecap="round"/><line x1="-3.2499999999999987" y1="-5.6291651245988525" x2="-6.499999999999997" y2="-11.258330249197705" stroke="#d3d3d3" fill="none" stroke-width="2.0" stroke-linecap="round"/><line x1="-9.749999999999996" y1="-16.887495373796558" x2="-12.999999999999995" y2="-22.51666049839541" stroke="#d3d3d3" fill="none" stroke-width="2.0" stroke-linecap="round"/><text x="-13.999999999999995" y="-25" fill="#d3d3d3" stroke-width="0.0" font-family="Arial" font-size="8.0pt">0</text><line x1="-16.249999999999993" y1="-28.145825622994263" x2="-19.499999999999993" y2="-33.774990747593115" stroke="#d3d3d3" fill="none" stroke-width="2.0" stroke-linecap="round"/><line x1="-22.749999999999993" y1="-39.404155872191964" x2="-25.999999999999993" y2="-45.03332099679082" stroke="#d3d3d3" fill="none" stroke-width="2.0" stroke-linecap="round"/><polyline points="-25.999999999999993,-45.03332099679082 -25.99999999999999,-65.03332099679082 -25.999999999999986,-85.03332099679082 -5.999999999999986,-85.03332099679082 14.000000000000014,-85.03332099679082 21.492131868318253,-66.48964390545507 28.984263736636493,-47.945966814119316 78.98426373663649,-47.94596681411931 128.98426373663648,-47.9459668141193 128.98426373663648,-17.945966814119302 128.98426373663648,12.054033185880698 188.98426373663648,12.054033185880705 248.98426373663648,12.054033185880712 248.98426373663648,-27.945966814119288 248.98426373663648,-67.94596681411929 258.9842637366365,-67.94596681411929 268.9842637366365,-67.94596681411929 268.9842637366365,2.054033185880712 268.9842637366365,72.05403318588071 258.9842637366365,72.05403318588071 248.98426373663648,72.05403318588071 248.98426373663648,32.05403318588071 248.98426373663648,-7.945966814119288 188.98426373663648,-7.945966814119287 128.98426373663648,-7.945966814119286 128.98426373663648,22.054033185880712 128.98426373663648,52.05403318588071 78.98426373663648,52.05403318588071 28.98426373663648,52.05403318588071 21.169641166851004,70.46413025492951 13.35501859706553,88.87422732397832 -6.644981402934469,88.87422732397832 -26.64498140293447,88.87422732397832 -26.644981402934473,21.874227323978317 -26.644981402934476,-45.12577267602168 -46.64498140293448,-45.12577267602168 -66.64498140293448,-45.12577267602168 -66.64498140293448,-5.125772676021683 -66.64498140293448,34.87422732397832 -96.64498140293448,34.87422732397832 -126.64498140293448,34.87422732397832 -126.64498140293448,14.874227323978317 -126.64498140293448,-5.125772676021683" stroke="#00c0c0" fill="none" stroke-width="2.0" stroke-linecap="round" stroke-linejoin="round"/><text x="-26.99999999999999" y="-67" fill="#00c0c0" stroke-width="0.0" font-family="Arial" font-size="8.0pt">1</text><text x="-6.999999999999986" y="-87" fill="#00c0c0" stroke-width="0.0" font-family="Arial" font-size="8.0pt">2</text><text x="20.492131868318253" y="-68" fill="#00c0c0" stroke-width="0.0" font-family="Arial" font-size="8.0pt">3</text><text x="77.98426373663649" y="-50" fill="#00c0c0" stroke-width="0.0" font-family="Arial" font-size="8.0pt">4</text><text x="127.98426373663648" y="-20" fill="#00c0c0" stroke-width="0.0" font-family="Arial" font-size="8.0pt">5</text><text x="187.98426373663648" y="10" fill="#00c0c0" stroke-width="0.0" font-family="Arial" font-size="8.0pt">6</text><text x="247.98426373663648" y="-30" fill="#00c0c0" stroke-width="0.0" font-family="Arial" font-size="8.0pt">7</text><text x="257.9842637366365" y="-70" fill="#00c0c0" stroke-width="0.0" font-family="Arial" font-size="8.0pt">8</text><text x="267.9842637366365" y="0" fill="#00c0c0" stroke-width="0.0" font-family="Arial" font-size="8.0pt">9</text><text x="257.9842637366365" y="70" fill="#00c0c0" stroke-width="0.0" font-family="Arial" font-size="8.0pt">10</text><text x="247.98426373663648" y="30" fill="#00c0c0" stroke-width="0.0" font-family="Arial" font-size="8.0pt">11</text><text x="187.98426373663648" y="-10" fill="#00c0c0" stroke-width="0.0" font-family="Arial" font-size="8.0pt">12</text><text x="127.98426373663648" y="20" fill="#00c0c0" stroke-width="0.0" font-family="Arial" font-size="8.0pt">13</text><text x="77.98426373663648" y="50" fill="#00c0c0" stroke-width="0.0" font-family="Arial" font-size="8.0pt">14</text><text x="20.169641166851004" y="68" fill="#00c0c0" stroke-width="0.0" font-family="Arial" font-size="8.0pt">15</text><text x="-7.644981402934469" y="87" fill="#00c0c0" stroke-width="0.0" font-family="Arial" font-size="8.0pt">16</text><text x="-27.644981402934473" y="20" fill="#00c0c0" stroke-width="0.0" font-family="Arial" font-size="8.0pt">17</text><text x="-47.64498140293448" y="-47" fill="#00c0c0" stroke-width="0.0" font-family="Arial" font-size="8.0pt">18</text><text x="-67.64498140293448" y="-7" fill="#00c0c0" stroke-width="0.0" font-family="Arial" font-size="8.0pt">19</text><text x="-97.64498140293448" y="33" fill="#00c0c0" stroke-width="0.0" font-family="Arial" font-size="8.0pt">20</text><text x="-127.64498140293448" y="13" fill="#00c0c0" stroke-width="0.0" font-family="Arial" font-size="8.0pt">21</text><polyline points="-126.64498140293448,-5.125772676021683 -136.6449814029345,-5.125772676021683 -146.6449814029345,-5.125772676021683 -146.6449814029345,4.874227323978317 -146.6449814029345,14.874227323978317 -136.6449814029345,14.87422732397832 -126.64498140293449,14.874227323978321 -126.64498140293449,-5.125772676021679 -126.64498140293449,-25.12577267602168 -96.64498140293449,-25.125772676021676 -66.64498140293449,-25.125772676021672 -66.64498140293449,14.874227323978328 -66.64498140293449,54.87422732397833 -46.64498140293449,54.87422732397833 -26.64498140293449,54.87422732397833" stroke="#00c0c0" fill="none" stroke-width="2.0" stroke-linecap="round" stroke-linejoin="round"/><text x="-137.6449814029345" y="-7" fill="#00c0c0" stroke-width="0.0" font-family="Arial" font-size="8.0pt">22</text><text x="-147.6449814029345" y="3" fill="#00c0c0" stroke-width="0.0" font-family="Arial" font-size="8.0pt">23</text><text x="-137.6449814029345" y="13" fill="#00c0c0" stroke-width="0.0" font-family="Arial" font-size="8.0pt">24</text><text x="-127.64498140293449" y="-7" fill="#00c0c0" stroke-width="0.0" font-family="Arial" font-size="8.0pt">25</text><text x="-97.64498140293449" y="-27" fill="#00c0c0" stroke-width="0.0" font-family="Arial" font-size="8.0pt">26</text><text x="-67.64498140293449" y="13" fill="#00c0c0" stroke-width="0.0" font-family="Arial" font-size="8.0pt">27</text><text x="-47.64498140293449" y="53" fill="#00c0c0" stroke-width="0.0" font-family="Arial" font-size="8.0pt">28</text><polygon points="-26.64498140293449,54.87422732397833 -35.64498140293449,49.87422732397833 -33.64498140293449,54.87422732397833 -35.64498140293449,59.87422732397833" stroke="#00c0c0" fill="#00c0c0" fill-rule="evenodd" stroke-linejoin="round"/></svg>