<?xml version="1.0" ?><!DOCTYPE svg  PUBLIC '-//W3C//DTD SVG 1.1//EN'  'http://www.w3.org/Graphics/SVG/1.1/DTD/svg11.dtd'><svg xmlns="http://www.w3.org/2000/svg" width="126.000" height="128.000" viewBox="-53.000 -75.000 126.000 128.000"><line x1="0.0" y1="0.0" x2="0.0" y2="0.0" stroke="none" fill="none" stroke-width="2.0" stroke-linecap="round"/><line x1="0.0" y1="-0.0" x2="0.0" y2="-0.0" stroke="#808080" fill="none" stroke-width="8.0" stroke-linecap="round"/><line x1="-4.949747468305832" y1="-4.949747468305833" x2="-9.899494936611664" y2="-9.899494936611665" stroke="#d3d3d3" fill="none" stroke-width="2.0" stroke-linecap="round"/><line x1="-14.849242404917495" y1="-14.849242404917497" x2="-19.798989873223327" y2="-19.79898987322333" stroke="#d3d3d3" fill="none" stroke-width="2.0" stroke-linecap="round"/><text x="-20.798989873223327" y="-22" fill="#d3d3d3" stroke-width="0.0" font-family="Arial" font-size="8.0pt">0</text><line x1="-24.748737341529157" y1="-24.748737341529164" x2="-29.698484809834987" y2="-29.698484809834998" stroke="#d3d3d3" fill="none" stroke-width="2.0" stroke-linecap="round"/><line x1="-34.64823227814082" y1="-34.64823227814083" x2="-39.59797974644665" y2="-39.59797974644666" stroke="#d3d3d3" fill="none" stroke-width="2.0" stroke-linecap="round"/><polyline points="-39.59797974644665,-39.59797974644666 -32.52691193458117,-46.66904755831214 -25.455844122715696,-53.74011537017761 14.544155877284304,-53.74011537017761 54.544155877284304,-53.74011537017761 54.544155877284304,-13.740115370177612 54.544155877284304,26.259884629822388 47.47308806541883,33.33095244168786 40.40202025355335,40.40202025355334 0.4020202535533528,40.402020253553346 -39.59797974644665,40.40202025355335 -39.59797974644666,0.4020202535533528 -39.597979746446676,-39.59797974644665" stroke="#00c0c0" fill="none" stroke-width="2.0" stroke-linecap="round" stroke-linejoin="round"/><text x="-33.52691193458117" y="-49" fill="#00c0c0" stroke-width="0.0" font-family="Arial" font-size="8.0pt">1</text><text x="13.544155877284304" y="-56" fill="#00c0c0" stroke-width="0.0" font-family="Arial" font-size="8.0pt">2</text><text x="53.544155877284304" y="-16" fill="#00c0c0" stroke-width="0.0" font-family="Arial" font-size="8.0pt">3</text><text x="46.47308806541883" y="31" fill="#00c0c0" stroke-width="0.0" font-family="Arial" font-size="8.0pt">4</text><text x="-0.5979797464466472" y="38" fill="#00c0c0" stroke-width="0.0" font-family="Arial" font-size="8.0pt">5</text><text x="-40.59797974644666" y="-2" fill="#00c0c0" stroke-width="0.0" font-family="Arial" font-size="8.0pt">6</text><polyline points="-39.597979746446676,-39.59797974644665 0.0,-0.0 39.597979746446676,39.59797974644665" stroke="#00c000" fill="none" stroke-width="2.0" stroke-linecap="round" stroke-linejoin="round"/><text x="-1.0" y="-2" fill="#00c000" stroke-width="0.0" font-family="Arial" font-size="8.0pt">7</text><polyline points="39.597979746446676,39.59797974644665 39.59797974644666,-0.4020202535533528 39.59797974644665,-40.40202025355335 46.669047558312116,-47.47308806541883 53.74011537017759,-54.544155877284304" stroke="#00c0c0" fill="none" stroke-width="2.0" stroke-linecap="round" stroke-linejoin="round"/><text x="38.59797974644666" y="-2" fill="#00c0c0" stroke-width="0.0" font-family="Arial" font-size="8.0pt">8</text><text x="45.669047558312116" y="-49" fill="#00c0c0" stroke-width="0.0" font-family="Arial" font-size="8.0pt">9</text><line x1="48.74011537017759" y1="-54.544155877284304" x2="43.74011537017759" y2="-54.544155877284304" stroke="#d3d3d3" fill="none" stroke-width="2.0" stroke-linecap="round"/><line x1="38.74011537017759" y1="-54.544155877284304" x2="33.74011537017759" y2="-54.544155877284304" stroke="#d3d3d3" fill="none" stroke-width="2.0" stroke-linecap="round"/><line x1="28.74011537017759" y1="-54.544155877284304" x2="23.74011537017759" y2="-54.544155877284304" stroke="#d3d3d3" fill="none" stroke-width="2.0" stroke-linecap="round"/><line x1="18.74011537017759" y1="-54.544155877284304" x2="13.740115370177591" y2="-54.544155877284304" stroke="#d3d3d3" fill="none" stroke-width="2.0" stroke-linecap="round"/><text x="12.740115370177591" y="-57" fill="#d3d3d3" stroke-width="0.0" font-family="Arial" font-size="8.0pt">10</text><line x1="8.740115370177591" y1="-54.544155877284304" x2="3.740115370177591" y2="-54.544155877284304" stroke="#d3d3d3" fill="none" stroke-width="2.0" stroke-linecap="round"/><line x1="-1.259884629822409" y1="-54.544155877284304" x2="-6.259884629822409" y2="-54.544155877284304" stroke="#d3d3d3" fill="none" stroke-width="2.0" stroke-linecap="round"/><line x1="-11.259884629822409" y1="-54.544155877284304" x2="-16.25988462982241" y2="-54.544155877284304" stroke="#d3d3d3" fill="none" stroke-width="2.0" stroke-linecap="round"/><line x1="-21.25988462982241" y1="-54.544155877284304" x2="-26.25988462982241" y2="-54.544155877284304" stroke="#d3d3d3" fill="none" stroke-width="2.0" stroke-linecap="round"/><polyline points="-26.25988462982241,-54.544155877284304 -26.259884629822402,-14.544155877284304 -26.259884629822395,25.455844122715696 -33.33095244168787,32.52691193458117 -40.402020253553346,39.59797974644665" stroke="#00c0c0" fill="none" stroke-width="2.0" stroke-linecap="round" stroke-linejoin="round"/><text x="-27.259884629822402" y="-17" fill="#00c0c0" stroke-width="0.0" font-family="Arial" font-size="8.0pt">11</text><text x="-34.33095244168787" y="31" fill="#00c0c0" stroke-width="0.0" font-family="Arial" font-size="8.0pt">12</text><line x1="-40.402020253553346" y1="34.59797974644665" x2="-40.402020253553346" y2="29.597979746446647" stroke="#d3d3d3" fill="none" stroke-width="2.0" stroke-linecap="round"/><line x1="-40.402020253553346" y1="24.597979746446647" x2="-40.402020253553346" y2="19.597979746446647" stroke="#d3d3d3" fill="none" stroke-width="2.0" stroke-linecap="round"/><line x1="-40.402020253553346" y1="14.597979746446647" x2="-40.402020253553346" y2="9.597979746446647" stroke="#d3d3d3" fill="none" stroke-width="2.0" stroke-linecap="round"/><line x1="-40.402020253553346" y1="4.597979746446647" x2="-40.402020253553346" y2="-0.4020202535533528" stroke="#d3d3d3" fill="none" stroke-width="2.0" stroke-linecap="round"/><text x="-41.402020253553346" y="-2" fill="#d3d3d3" stroke-width="0.0" font-family="Arial" font-size="8.0pt">13</text><line x1="-40.402020253553346" y1="-5.402020253553353" x2="-40.402020253553346" y2="-10.402020253553353" stroke="#d3d3d3" fill="none" stroke-width="2.0" stroke-linecap="round"/><line x1="-40.402020253553346" y1="-15.402020253553353" x2="-40.402020253553346" y2="-20.402020253553353" stroke="#d3d3d3" fill="none" stroke-width="2.0" stroke-linecap="round"/><line x1="-40.402020253553346" y1="-25.402020253553353" x2="-40.402020253553346" y2="-30.402020253553353" stroke="#d3d3d3" fill="none" stroke-width="2.0" stroke-linecap="round"/><line x1="-40.402020253553346" y1="-35.40202025355335" x2="-40.402020253553346" y2="-40.40202025355335" stroke="#d3d3d3" fill="none" stroke-width="2.0" stroke-linecap="round"/><polyline points="-40.402020253553346,-40.40202025355335 -0.4020202535533457,-40.40202025355337 39.597979746446654,-40.40202025355338" stroke="#00c0c0" fill="none" stroke-width="2.0" stroke-linecap="round" stroke-linejoin="round"/><text x="-1.4020202535533457" y="-42" fill="#00c0c0" stroke-width="0.0" font-family="Arial" font-size="8.0pt">14</text><line x1="43.13351365237939" y1="-43.93755415948612" x2="46.66904755831213" y2="-47.47308806541886" stroke="#d3d3d3" fill="none" stroke-width="2.0" stroke-linecap="round"/><text x="45.66904755831213" y="-49" fill="#d3d3d3" stroke-width="0.0" font-family="Arial" font-size="8.0pt">15</text><line x1="50.20458146424487" y1="-51.008621971351594" x2="53.740115370177605" y2="-54.54415587728433" stroke="#d3d3d3" fill="none" stroke-width="2.0" stroke-linecap="round"/><line x1="53.740115370177605" y1="-49.54415587728433" x2="53.740115370177605" y2="-44.54415587728433" stroke="#d3d3d3" fill="none" stroke-width="2.0" stroke-linecap="round"/><line x1="53.740115370177605" y1="-39.54415587728433" x2="53.740115370177605" y2="-34.54415587728433" stroke="#d3d3d3" fill="none" stroke-width="2.0" stroke-linecap="round"/><line x1="53.740115370177605" y1="-29.544155877284332" x2="53.740115370177605" y2="-24.544155877284332" stroke="#d3d3d3" fill="none" stroke-width="2.0" stroke-linecap="round"/><line x1="53.740115370177605" y1="-19.544155877284332" x2="53.740115370177605" y2="-14.544155877284332" stroke="#d3d3d3" fill="none" stroke-width="2.0" stroke-linecap="round"/><text x="52.740115370177605" y="-17" fill="#d3d3d3" stroke-width="0.0" font-family="Arial" font-size="8.0pt">16</text><line x1="53.740115370177605" y1="-9.544155877284332" x2="53.740115370177605" y2="-4.544155877284332" stroke="#d3d3d3" fill="none" stroke-width="2.0" stroke-linecap="round"/><line x1="53.740115370177605" y1="0.45584412271566777" x2="53.740115370177605" y2="5.455844122715668" stroke="#d3d3d3" fill="none" stroke-width="2.0" stroke-linecap="round"/><line x1="53.740115370177605" y1="10.455844122715668" x2="53.740115370177605" y2="15.455844122715668" stroke="#d3d3d3" fill="none" stroke-width="2.0" stroke-linecap="round"/><line x1="53.740115370177605" y1="20.455844122715668" x2="53.740115370177605" y2="25.455844122715668" stroke="#d3d3d3" fill="none" stroke-width="2.0" stroke-linecap="round"/><polyline points="53.740115370177605,25.455844122715668 13.740115370177605,25.455844122715682 -26.259884629822395,25.455844122715696" stroke="#00c0c0" fill="none" stroke-width="2.0" stroke-linecap="round" stroke-linejoin="round"/><text x="12.740115370177605" y="23" fill="#00c0c0" stroke-width="0.0" font-family="Arial" font-size="8.0pt">17</text><polygon points="-26.259884629822395,25.455844122715696 -17.259884629822395,30.455844122715693 -19.259884629822395,25.455844122715693 -17.259884629822395,20.455844122715693" stroke="#00c0c0" fill="#00c0c0" fill-rule="evenodd" stroke-linejoin="round"/></svg>