<?xml version="1.0" ?><!DOCTYPE svg  PUBLIC '-//W3C//DTD SVG 1.1//EN'  'http://www.w3.org/Graphics/SVG/1.1/DTD/svg11.dtd'><svg xmlns="http://www.w3.org/2000/svg" width="542.000" height="1562.000" viewBox="-523.000 -19.000 542.000 1562.000"><line x1="0.0" y1="0.0" x2="0.0" y2="0.0" stroke="none" fill="none" stroke-width="2.0" stroke-linecap="round"/><line x1="0.0" y1="-0.0" x2="0.0" y2="-0.0" stroke="#808080" fill="none" stroke-width="8.0" stroke-linecap="round"/><polyline points="0.0,-0.0 1.5614246689128753e-14,255.0 3.122849337825751e-14,510.0 3.122849337825751e-14,510.0 3.122849337825751e-14,510.0 3.122849337825751e-14,510.0 3.122849337825751e-14,510.0 -254.99999999999997,510.00000000000006 -510.0,510.0000000000001" stroke="#c0c0c0" fill="none" stroke-width="2.0" stroke-linecap="round" stroke-linejoin="round"/><text x="-0.9999999999999843" y="253" fill="#c0c0c0" stroke-width="0.0" font-family="Arial" font-size="8.0pt">0</text><text x="-0.9999999999999688" y="508" fill="#c0c0c0" stroke-width="0.0" font-family="Arial" font-size="8.0pt">1</text><text x="-0.9999999999999688" y="508" fill="#c0c0c0" stroke-width="0.0" font-family="Arial" font-size="8.0pt">2</text><text x="-255.99999999999997" y="508" fill="#c0c0c0" stroke-width="0.0" font-family="Arial" font-size="8.0pt">3</text><line x1="-510.0" y1="515.1000000000001" x2="-510.0" y2="520.2000000000002" stroke="#d3d3d3" fill="none" stroke-width="2.0" stroke-linecap="round"/><line x1="-510.0" y1="525.3000000000002" x2="-510.0" y2="530.4000000000002" stroke="#d3d3d3" fill="none" stroke-width="2.0" stroke-linecap="round"/><line x1="-510.0" y1="535.5000000000002" x2="-510.0" y2="540.6000000000003" stroke="#d3d3d3" fill="none" stroke-width="2.0" stroke-linecap="round"/><line x1="-510.0" y1="545.7000000000003" x2="-510.0" y2="550.8000000000003" stroke="#d3d3d3" fill="none" stroke-width="2.0" stroke-linecap="round"/><line x1="-510.0" y1="555.9000000000003" x2="-510.0" y2="561.0000000000003" stroke="#d3d3d3" fill="none" stroke-width="2.0" stroke-linecap="round"/><line x1="-510.0" y1="566.1000000000004" x2="-510.0" y2="571.2000000000004" stroke="#d3d3d3" fill="none" stroke-width="2.0" stroke-linecap="round"/><line x1="-510.0" y1="576.3000000000004" x2="-510.0" y2="581.4000000000004" stroke="#d3d3d3" fill="none" stroke-width="2.0" stroke-linecap="round"/><line x1="-510.0" y1="586.5000000000005" x2="-510.0" y2="591.6000000000005" stroke="#d3d3d3" fill="none" stroke-width="2.0" stroke-linecap="round"/><line x1="-510.0" y1="596.7000000000005" x2="-510.0" y2="601.8000000000005" stroke="#d3d3d3" fill="none" stroke-width="2.0" stroke-linecap="round"/><line x1="-510.0" y1="606.9000000000005" x2="-510.0" y2="612.0000000000006" stroke="#d3d3d3" fill="none" stroke-width="2.0" stroke-linecap="round"/><line x1="-510.0" y1="617.1000000000006" x2="-510.0" y2="622.2000000000006" stroke="#d3d3d3" fill="none" stroke-width="2.0" stroke-linecap="round"/><line x1="-510.0" y1="627.3000000000006" x2="-510.0" y2="632.4000000000007" stroke="#d3d3d3" fill="none" stroke-width="2.0" stroke-linecap="round"/><line x1="-510.0" y1="637.5000000000007" x2="-510.0" y2="642.6000000000007" stroke="#d3d3d3" fill="none" stroke-width="2.0" stroke-linecap="round"/><line x1="-510.0" y1="647.7000000000007" x2="-510.0" y2="652.8000000000008" stroke="#d3d3d3" fill="none" stroke-width="2.0" stroke-linecap="round"/><line x1="-510.0" y1="657.9000000000008" x2="-510.0" y2="663.0000000000008" stroke="#d3d3d3" fill="none" stroke-width="2.0" stroke-linecap="round"/><line x1="-510.0" y1="668.1000000000008" x2="-510.0" y2="673.2000000000008" stroke="#d3d3d3" fill="none" stroke-width="2.0" stroke-linecap="round"/><line x1="-510.0" y1="678.3000000000009" x2="-510.0" y2="683.4000000000009" stroke="#d3d3d3" fill="none" stroke-width="2.0" stroke-linecap="round"/><line x1="-510.0" y1="688.5000000000009" x2="-510.0" y2="693.6000000000009" stroke="#d3d3d3" fill="none" stroke-width="2.0" stroke-linecap="round"/><line x1="-510.0" y1="698.700000000001" x2="-510.0" y2="703.800000000001" stroke="#d3d3d3" fill="none" stroke-width="2.0" stroke-linecap="round"/><line x1="-510.0" y1="708.900000000001" x2="-510.0" y2="714.000000000001" stroke="#d3d3d3" fill="none" stroke-width="2.0" stroke-linecap="round"/><line x1="-510.0" y1="719.100000000001" x2="-510.0" y2="724.2000000000011" stroke="#d3d3d3" fill="none" stroke-width="2.0" stroke-linecap="round"/><line x1="-510.0" y1="729.3000000000011" x2="-510.0" y2="734.4000000000011" stroke="#d3d3d3" fill="none" stroke-width="2.0" stroke-linecap="round"/><line x1="-510.0" y1="739.5000000000011" x2="-510.0" y2="744.6000000000012" stroke="#d3d3d3" fill="none" stroke-width="2.0" stroke-linecap="round"/><line x1="-510.0" y1="749.7000000000012" x2="-510.0" y2="754.8000000000012" stroke="#d3d3d3" fill="none" stroke-width="2.0" stroke-linecap="round"/><line x1="-510.0" y1="759.9000000000012" x2="-510.0" y2="765.0000000000013" stroke="#d3d3d3" fill="none" stroke-width="2.0" stroke-linecap="round"/><text x="-511.0" y="763" fill="#d3d3d3" stroke-width="0.0" font-family="Arial" font-size="8.0pt">4</text><line x1="-510.0" y1="770.1000000000013" x2="-510.0" y2="775.2000000000013" stroke="#d3d3d3" fill="none" stroke-width="2.0" stroke-linecap="round"/><line x1="-510.0" y1="780.3000000000013" x2="-510.0" y2="785.4000000000013" stroke="#d3d3d3" fill="none" stroke-width="2.0" stroke-linecap="round"/><line x1="-510.0" y1="790.5000000000014" x2="-510.0" y2="795.6000000000014" stroke="#d3d3d3" fill="none" stroke-width="2.0" stroke-linecap="round"/><line x1="-510.0" y1="800.7000000000014" x2="-510.0" y2="805.8000000000014" stroke="#d3d3d3" fill="none" stroke-width="2.0" stroke-linecap="round"/><line x1="-510.0" y1="810.9000000000015" x2="-510.0" y2="816.0000000000015" stroke="#d3d3d3" fill="none" stroke-width="2.0" stroke-linecap="round"/><line x1="-510.0" y1="821.1000000000015" x2="-510.0" y2="826.2000000000015" stroke="#d3d3d3" fill="none" stroke-width="2.0" stroke-linecap="round"/><line x1="-510.0" y1="831.3000000000015" x2="-510.0" y2="836.4000000000016" stroke="#d3d3d3" fill="none" stroke-width="2.0" stroke-linecap="round"/><line x1="-510.0" y1="841.5000000000016" x2="-510.0" y2="846.6000000000016" stroke="#d3d3d3" fill="none" stroke-width="2.0" stroke-linecap="round"/><line x1="-510.0" y1="851.7000000000016" x2="-510.0" y2="856.8000000000017" stroke="#d3d3d3" fill="none" stroke-width="2.0" stroke-linecap="round"/><line x1="-510.0" y1="861.9000000000017" x2="-510.0" y2="867.0000000000017" stroke="#d3d3d3" fill="none" stroke-width="2.0" stroke-linecap="round"/><line x1="-510.0" y1="872.1000000000017" x2="-510.0" y2="877.2000000000018" stroke="#d3d3d3" fill="none" stroke-width="2.0" stroke-linecap="round"/><line x1="-510.0" y1="882.3000000000018" x2="-510.0" y2="887.4000000000018" stroke="#d3d3d3" fill="none" stroke-width="2.0" stroke-linecap="round"/><line x1="-510.0" y1="892.5000000000018" x2="-510.0" y2="897.6000000000018" stroke="#d3d3d3" fill="none" stroke-width="2.0" stroke-linecap="round"/><line x1="-510.0" y1="902.7000000000019" x2="-510.0" y2="907.8000000000019" stroke="#d3d3d3" fill="none" stroke-width="2.0" stroke-linecap="round"/><line x1="-510.0" y1="912.9000000000019" x2="-510.0" y2="918.0000000000019" stroke="#d3d3d3" fill="none" stroke-width="2.0" stroke-linecap="round"/><line x1="-510.0" y1="923.100000000002" x2="-510.0" y2="928.200000000002" stroke="#d3d3d3" fill="none" stroke-width="2.0" stroke-linecap="round"/><line x1="-510.0" y1="933.300000000002" x2="-510.0" y2="938.400000000002" stroke="#d3d3d3" fill="none" stroke-width="2.0" stroke-linecap="round"/><line x1="-510.0" y1="943.500000000002" x2="-510.0" y2="948.6000000000021" stroke="#d3d3d3" fill="none" stroke-width="2.0" stroke-linecap="round"/><line x1="-510.0" y1="953.7000000000021" x2="-510.0" y2="958.8000000000021" stroke="#d3d3d3" fill="none" stroke-width="2.0" stroke-linecap="round"/><line x1="-510.0" y1="963.9000000000021" x2="-510.0" y2="969.0000000000022" stroke="#d3d3d3" fill="none" stroke-width="2.0" stroke-linecap="round"/><line x1="-510.0" y1="974.1000000000022" x2="-510.0" y2="979.2000000000022" stroke="#d3d3d3" fill="none" stroke-width="2.0" stroke-linecap="round"/><line x1="-510.0" y1="984.3000000000022" x2="-510.0" y2="989.4000000000023" stroke="#d3d3d3" fill="none" stroke-width="2.0" stroke-linecap="round"/><line x1="-510.0" y1="994.5000000000023" x2="-510.0" y2="999.6000000000023" stroke="#d3d3d3" fill="none" stroke-width="2.0" stroke-linecap="round"/><line x1="-510.0" y1="1004.7000000000023" x2="-510.0" y2="1009.8000000000023" stroke="#d3d3d3" fill="none" stroke-width="2.0" stroke-linecap="round"/><line x1="-510.0" y1="1014.9000000000024" x2="-510.0" y2="1020.0000000000024" stroke="#d3d3d3" fill="none" stroke-width="2.0" stroke-linecap="round"/><polyline points="-510.0,1020.0000000000024 -255.0,1020.0000000000024 0.0,1020.0000000000024 1.5614246689128753e-14,1275.0000000000023 3.122849337825751e-14,1530.0000000000023 3.122849337825751e-14,1530.0000000000023 3.122849337825751e-14,1530.0000000000023 3.122849337825751e-14,1530.0000000000023 3.122849337825751e-14,1530.0000000000023" stroke="#c0c0c0" fill="none" stroke-width="2.0" stroke-linecap="round" stroke-linejoin="round"/><text x="-256.0" y="1018" fill="#c0c0c0" stroke-width="0.0" font-family="Arial" font-size="8.0pt">5</text><text x="-0.9999999999999843" y="1273" fill="#c0c0c0" stroke-width="0.0" font-family="Arial" font-size="8.0pt">6</text><text x="-0.9999999999999688" y="1528" fill="#c0c0c0" stroke-width="0.0" font-family="Arial" font-size="8.0pt">7</text><text x="-0.9999999999999688" y="1528" fill="#c0c0c0" stroke-width="0.0" font-family="Arial" font-size="8.0pt">8</text><polygon points="3.122849337825751e-14,1530.0000000000023 5.00000000000003,1521.0000000000023 3.0799866998555934e-14,1523.0000000000023 -4.99999999999997,1521.0000000000023" stroke="#c0c0c0" fill="#c0c0c0" fill-rule="evenodd" stroke-linejoin="round"/></svg>