<?xml version="1.0" ?><!DOCTYPE svg  PUBLIC '-//W3C//DTD SVG 1.1//EN'  'http://www.w3.org/Graphics/SVG/1.1/DTD/svg11.dtd'><svg xmlns="http://www.w3.org/2000/svg" width="544.000" height="1563.000" viewBox="-19.000 -20.000 544.000 1563.000"><line x1="0.0" y1="0.0" x2="0.0" y2="0.0" stroke="none" fill="none" stroke-width="2.0" stroke-linecap="round"/><line x1="0.0" y1="-0.0" x2="0.0" y2="-0.0" stroke="#808080" fill="none" stroke-width="8.0" stroke-linecap="round"/><polyline points="0.0,-0.0 0.0,-0.0 0.0,-0.0 0.0,-0.0 0.0,-0.0 0.0,-0.0 0.0,-0.0 255.0,-0.0 510.0,-0.0" stroke="#c0c0c0" fill="none" stroke-width="2.0" stroke-linecap="round" stroke-linejoin="round"/><text x="-1.0" y="-2" fill="#c0c0c0" stroke-width="0.0" font-family="Arial" font-size="8.0pt">0</text><text x="-1.0" y="-2" fill="#c0c0c0" stroke-width="0.0" font-family="Arial" font-size="8.0pt">1</text><text x="-1.0" y="-2" fill="#c0c0c0" stroke-width="0.0" font-family="Arial" font-size="8.0pt">2</text><text x="254.0" y="-2" fill="#c0c0c0" stroke-width="0.0" font-family="Arial" font-size="8.0pt">3</text><line x1="510.0" y1="5.1" x2="510.0" y2="10.2" stroke="#d3d3d3" fill="none" stroke-width="2.0" stroke-linecap="round"/><line x1="510.0" y1="15.299999999999999" x2="510.0" y2="20.4" stroke="#d3d3d3" fill="none" stroke-width="2.0" stroke-linecap="round"/><line x1="510.0" y1="25.5" x2="510.0" y2="30.6" stroke="#d3d3d3" fill="none" stroke-width="2.0" stroke-linecap="round"/><line x1="510.0" y1="35.7" x2="510.0" y2="40.800000000000004" stroke="#d3d3d3" fill="none" stroke-width="2.0" stroke-linecap="round"/><line x1="510.0" y1="45.900000000000006" x2="510.0" y2="51.00000000000001" stroke="#d3d3d3" fill="none" stroke-width="2.0" stroke-linecap="round"/><line x1="510.0" y1="56.10000000000001" x2="510.0" y2="61.20000000000001" stroke="#d3d3d3" fill="none" stroke-width="2.0" stroke-linecap="round"/><line x1="510.0" y1="66.30000000000001" x2="510.0" y2="71.4" stroke="#d3d3d3" fill="none" stroke-width="2.0" stroke-linecap="round"/><line x1="510.0" y1="76.5" x2="510.0" y2="81.6" stroke="#d3d3d3" fill="none" stroke-width="2.0" stroke-linecap="round"/><line x1="510.0" y1="86.69999999999999" x2="510.0" y2="91.79999999999998" stroke="#d3d3d3" fill="none" stroke-width="2.0" stroke-linecap="round"/><line x1="510.0" y1="96.89999999999998" x2="510.0" y2="101.99999999999997" stroke="#d3d3d3" fill="none" stroke-width="2.0" stroke-linecap="round"/><line x1="510.0" y1="107.09999999999997" x2="510.0" y2="112.19999999999996" stroke="#d3d3d3" fill="none" stroke-width="2.0" stroke-linecap="round"/><line x1="510.0" y1="117.29999999999995" x2="510.0" y2="122.39999999999995" stroke="#d3d3d3" fill="none" stroke-width="2.0" stroke-linecap="round"/><line x1="510.0" y1="127.49999999999994" x2="510.0" y2="132.59999999999994" stroke="#d3d3d3" fill="none" stroke-width="2.0" stroke-linecap="round"/><line x1="510.0" y1="137.69999999999993" x2="510.0" y2="142.79999999999993" stroke="#d3d3d3" fill="none" stroke-width="2.0" stroke-linecap="round"/><line x1="510.0" y1="147.89999999999992" x2="510.0" y2="152.99999999999991" stroke="#d3d3d3" fill="none" stroke-width="2.0" stroke-linecap="round"/><line x1="510.0" y1="158.0999999999999" x2="510.0" y2="163.1999999999999" stroke="#d3d3d3" fill="none" stroke-width="2.0" stroke-linecap="round"/><line x1="510.0" y1="168.2999999999999" x2="510.0" y2="173.3999999999999" stroke="#d3d3d3" fill="none" stroke-width="2.0" stroke-linecap="round"/><line x1="510.0" y1="178.4999999999999" x2="510.0" y2="183.59999999999988" stroke="#d3d3d3" fill="none" stroke-width="2.0" stroke-linecap="round"/><line x1="510.0" y1="188.69999999999987" x2="510.0" y2="193.79999999999987" stroke="#d3d3d3" fill="none" stroke-width="2.0" stroke-linecap="round"/><line x1="510.0" y1="198.89999999999986" x2="510.0" y2="203.99999999999986" stroke="#d3d3d3" fill="none" stroke-width="2.0" stroke-linecap="round"/><line x1="510.0" y1="209.09999999999985" x2="510.0" y2="214.19999999999985" stroke="#d3d3d3" fill="none" stroke-width="2.0" stroke-linecap="round"/><line x1="510.0" y1="219.29999999999984" x2="510.0" y2="224.39999999999984" stroke="#d3d3d3" fill="none" stroke-width="2.0" stroke-linecap="round"/><line x1="510.0" y1="229.49999999999983" x2="510.0" y2="234.59999999999982" stroke="#d3d3d3" fill="none" stroke-width="2.0" stroke-linecap="round"/><line x1="510.0" y1="239.69999999999982" x2="510.0" y2="244.7999999999998" stroke="#d3d3d3" fill="none" stroke-width="2.0" stroke-linecap="round"/><line x1="510.0" y1="249.8999999999998" x2="510.0" y2="254.9999999999998" stroke="#d3d3d3" fill="none" stroke-width="2.0" stroke-linecap="round"/><text x="509.0" y="253" fill="#d3d3d3" stroke-width="0.0" font-family="Arial" font-size="8.0pt">4</text><line x1="510.0" y1="260.0999999999998" x2="510.0" y2="265.1999999999998" stroke="#d3d3d3" fill="none" stroke-width="2.0" stroke-linecap="round"/><line x1="510.0" y1="270.29999999999984" x2="510.0" y2="275.39999999999986" stroke="#d3d3d3" fill="none" stroke-width="2.0" stroke-linecap="round"/><line x1="510.0" y1="280.4999999999999" x2="510.0" y2="285.5999999999999" stroke="#d3d3d3" fill="none" stroke-width="2.0" stroke-linecap="round"/><line x1="510.0" y1="290.69999999999993" x2="510.0" y2="295.79999999999995" stroke="#d3d3d3" fill="none" stroke-width="2.0" stroke-linecap="round"/><line x1="510.0" y1="300.9" x2="510.0" y2="306.0" stroke="#d3d3d3" fill="none" stroke-width="2.0" stroke-linecap="round"/><line x1="510.0" y1="311.1" x2="510.0" y2="316.20000000000005" stroke="#d3d3d3" fill="none" stroke-width="2.0" stroke-linecap="round"/><line x1="510.0" y1="321.30000000000007" x2="510.0" y2="326.4000000000001" stroke="#d3d3d3" fill="none" stroke-width="2.0" stroke-linecap="round"/><line x1="510.0" y1="331.5000000000001" x2="510.0" y2="336.60000000000014" stroke="#d3d3d3" fill="none" stroke-width="2.0" stroke-linecap="round"/><line x1="510.0" y1="341.70000000000016" x2="510.0" y2="346.8000000000002" stroke="#d3d3d3" fill="none" stroke-width="2.0" stroke-linecap="round"/><line x1="510.0" y1="351.9000000000002" x2="510.0" y2="357.0000000000002" stroke="#d3d3d3" fill="none" stroke-width="2.0" stroke-linecap="round"/><line x1="510.0" y1="362.10000000000025" x2="510.0" y2="367.2000000000003" stroke="#d3d3d3" fill="none" stroke-width="2.0" stroke-linecap="round"/><line x1="510.0" y1="372.3000000000003" x2="510.0" y2="377.4000000000003" stroke="#d3d3d3" fill="none" stroke-width="2.0" stroke-linecap="round"/><line x1="510.0" y1="382.50000000000034" x2="510.0" y2="387.60000000000036" stroke="#d3d3d3" fill="none" stroke-width="2.0" stroke-linecap="round"/><line x1="510.0" y1="392.7000000000004" x2="510.0" y2="397.8000000000004" stroke="#d3d3d3" fill="none" stroke-width="2.0" stroke-linecap="round"/><line x1="510.0" y1="402.90000000000043" x2="510.0" y2="408.00000000000045" stroke="#d3d3d3" fill="none" stroke-width="2.0" stroke-linecap="round"/><line x1="510.0" y1="413.1000000000005" x2="510.0" y2="418.2000000000005" stroke="#d3d3d3" fill="none" stroke-width="2.0" stroke-linecap="round"/><line x1="510.0" y1="423.3000000000005" x2="510.0" y2="428.40000000000055" stroke="#d3d3d3" fill="none" stroke-width="2.0" stroke-linecap="round"/><line x1="510.0" y1="433.50000000000057" x2="510.0" y2="438.6000000000006" stroke="#d3d3d3" fill="none" stroke-width="2.0" stroke-linecap="round"/><line x1="510.0" y1="443.7000000000006" x2="510.0" y2="448.80000000000064" stroke="#d3d3d3" fill="none" stroke-width="2.0" stroke-linecap="round"/><line x1="510.0" y1="453.90000000000066" x2="510.0" y2="459.0000000000007" stroke="#d3d3d3" fill="none" stroke-width="2.0" stroke-linecap="round"/><line x1="510.0" y1="464.1000000000007" x2="510.0" y2="469.2000000000007" stroke="#d3d3d3" fill="none" stroke-width="2.0" stroke-linecap="round"/><line x1="510.0" y1="474.30000000000075" x2="510.0" y2="479.4000000000008" stroke="#d3d3d3" fill="none" stroke-width="2.0" stroke-linecap="round"/><line x1="510.0" y1="484.5000000000008" x2="510.0" y2="489.6000000000008" stroke="#d3d3d3" fill="none" stroke-width="2.0" stroke-linecap="round"/><line x1="510.0" y1="494.70000000000084" x2="510.0" y2="499.80000000000086" stroke="#d3d3d3" fill="none" stroke-width="2.0" stroke-linecap="round"/><line x1="510.0" y1="504.9000000000009" x2="510.0" y2="510.0000000000009" stroke="#d3d3d3" fill="none" stroke-width="2.0" stroke-linecap="round"/><polyline points="510.0,510.0000000000009 255.0,510.00000000000097 0.0,510.000000000001 1.5614246689128753e-14,765.000000000001 3.122849337825751e-14,1020.000000000001 4.684274006738626e-14,1275.000000000001 6.245698675651501e-14,1530.000000000001 6.245698675651501e-14,1530.000000000001 6.245698675651501e-14,1530.000000000001" stroke="#c0c0c0" fill="none" stroke-width="2.0" stroke-linecap="round" stroke-linejoin="round"/><text x="254.0" y="508" fill="#c0c0c0" stroke-width="0.0" font-family="Arial" font-size="8.0pt">5</text><text x="-0.9999999999999843" y="763" fill="#c0c0c0" stroke-width="0.0" font-family="Arial" font-size="8.0pt">6</text><text x="-0.9999999999999531" y="1273" fill="#c0c0c0" stroke-width="0.0" font-family="Arial" font-size="8.0pt">7</text><text x="-0.9999999999999375" y="1528" fill="#c0c0c0" stroke-width="0.0" font-family="Arial" font-size="8.0pt">8</text><polygon points="6.245698675651501e-14,1530.000000000001 5.000000000000061,1521.000000000001 6.202836037681344e-14,1523.000000000001 -4.999999999999939,1521.000000000001" stroke="#c0c0c0" fill="#c0c0c0" fill-rule="evenodd" stroke-linejoin="round"/></svg>