<?xml version="1.0" ?><!DOCTYPE svg  PUBLIC '-//W3C//DTD SVG 1.1//EN'  'http://www.w3.org/Graphics/SVG/1.1/DTD/svg11.dtd'><svg xmlns="http://www.w3.org/2000/svg" width="187.000" height="197.000" viewBox="-93.000 -99.000 187.000 197.000"><line x1="0.0" y1="0.0" x2="0.0" y2="0.0" stroke="none" fill="none" stroke-width="2.0" stroke-linecap="round"/><line x1="0.0" y1="-0.0" x2="0.0" y2="-0.0" stroke="#808080" fill="none" stroke-width="8.0" stroke-linecap="round"/><line x1="-4.030508652763321" y1="4.030508652763321" x2="-8.061017305526642" y2="8.061017305526642" stroke="#d3d3d3" fill="none" stroke-width="2.0" stroke-linecap="round"/><line x1="-12.091525958289964" y1="12.091525958289964" x2="-16.122034611053284" y2="16.122034611053284" stroke="#d3d3d3" fill="none" stroke-width="2.0" stroke-linecap="round"/><line x1="-20.152543263816604" y1="20.152543263816604" x2="-24.183051916579924" y2="24.183051916579924" stroke="#d3d3d3" fill="none" stroke-width="2.0" stroke-linecap="round"/><line x1="-28.213560569343244" y1="28.213560569343244" x2="-32.24406922210657" y2="32.24406922210657" stroke="#d3d3d3" fill="none" stroke-width="2.0" stroke-linecap="round"/><line x1="-36.27457787486989" y1="36.27457787486989" x2="-40.305086527633215" y2="40.305086527633215" stroke="#d3d3d3" fill="none" stroke-width="2.0" stroke-linecap="round"/><text x="-41.305086527633215" y="38" fill="#d3d3d3" stroke-width="0.0" font-family="Arial" font-size="8.0pt">0</text><line x1="-44.33559518039654" y1="44.33559518039654" x2="-48.36610383315986" y2="48.36610383315986" stroke="#d3d3d3" fill="none" stroke-width="2.0" stroke-linecap="round"/><line x1="-52.396612485923185" y1="52.396612485923185" x2="-56.42712113868651" y2="56.42712113868651" stroke="#d3d3d3" fill="none" stroke-width="2.0" stroke-linecap="round"/><line x1="-60.45762979144983" y1="60.45762979144983" x2="-64.48813844421315" y2="64.48813844421315" stroke="#d3d3d3" fill="none" stroke-width="2.0" stroke-linecap="round"/><line x1="-68.51864709697647" y1="68.51864709697647" x2="-72.54915574973978" y2="72.54915574973978" stroke="#d3d3d3" fill="none" stroke-width="2.0" stroke-linecap="round"/><line x1="-76.5796644025031" y1="76.5796644025031" x2="-80.61017305526642" y2="80.61017305526642" stroke="#d3d3d3" fill="none" stroke-width="2.0" stroke-linecap="round"/><polyline points="-80.61017305526642,80.61017305526642 -80.61017305526643,0.6101730552664151 -80.61017305526644,-79.38982694473358 -0.6101730552664435,-79.38982694473361 79.38982694473356,-79.38982694473364 79.38982694473358,0.6101730552663582 79.38982694473361,80.61017305526636 -0.6101730552663867,80.61017305526639 -80.61017305526639,80.61017305526642" stroke="#c000c0" fill="none" stroke-width="2.0" stroke-linecap="round" stroke-linejoin="round"/><text x="-81.61017305526643" y="-1" fill="#c000c0" stroke-width="0.0" font-family="Arial" font-size="8.0pt">1</text><text x="-1.6101730552664435" y="-81" fill="#c000c0" stroke-width="0.0" font-family="Arial" font-size="8.0pt">2</text><text x="78.38982694473358" y="-1" fill="#c000c0" stroke-width="0.0" font-family="Arial" font-size="8.0pt">3</text><text x="-1.6101730552663867" y="79" fill="#c000c0" stroke-width="0.0" font-family="Arial" font-size="8.0pt">4</text><polygon points="-80.61017305526639,80.61017305526642 -71.61017305526639,85.61017305526642 -73.61017305526639,80.61017305526642 -71.61017305526639,75.61017305526642" stroke="#c000c0" fill="#c000c0" fill-rule="evenodd" stroke-linejoin="round"/></svg>