<?xml version="1.0" ?><!DOCTYPE svg  PUBLIC '-//W3C//DTD SVG 1.1//EN'  'http://www.w3.org/Graphics/SVG/1.1/DTD/svg11.dtd'><svg xmlns="http://www.w3.org/2000/svg" width="253.000" height="243.000" viewBox="-125.000 -121.000 253.000 243.000"><line x1="0.0" y1="0.0" x2="0.0" y2="0.0" stroke="none" fill="none" stroke-width="2.0" stroke-linecap="round"/><line x1="0.0" y1="-0.0" x2="0.0" y2="-0.0" stroke="#808080" fill="none" stroke-width="8.0" stroke-linecap="round"/><line x1="-4.790449915261735" y1="1.9354673993155467" x2="-9.58089983052347" y2="3.8709347986310934" stroke="#d3d3d3" fill="none" stroke-width="2.0" stroke-linecap="round"/><line x1="-14.371349745785203" y1="5.80640219794664" x2="-19.16179966104694" y2="7.741869597262187" stroke="#d3d3d3" fill="none" stroke-width="2.0" stroke-linecap="round"/><line x1="-23.952249576308674" y1="9.677336996577733" x2="-28.74269949157041" y2="11.61280439589328" stroke="#d3d3d3" fill="none" stroke-width="2.0" stroke-linecap="round"/><text x="-29.74269949157041" y="10" fill="#d3d3d3" stroke-width="0.0" font-family="Arial" font-size="8.0pt">0</text><line x1="-33.533149406832145" y1="13.548271795208827" x2="-38.32359932209388" y2="15.483739194524373" stroke="#d3d3d3" fill="none" stroke-width="2.0" stroke-linecap="round"/><line x1="-43.11404923735561" y1="17.41920659383992" x2="-47.90449915261734" y2="19.354673993155465" stroke="#d3d3d3" fill="none" stroke-width="2.0" stroke-linecap="round"/><line x1="-52.69494906787907" y1="21.29014139247101" x2="-57.485398983140804" y2="23.225608791786556" stroke="#d3d3d3" fill="none" stroke-width="2.0" stroke-linecap="round"/><polyline points="-57.485398983140804,23.225608791786556 -85.10054458671402,11.50367493710835 -112.71569019028723,-0.21825891756985527 -84.90017455328362,-11.456456720047228 -57.08465891628,-22.6946545225246" stroke="#c00000" fill="none" stroke-width="2.0" stroke-linecap="round" stroke-linejoin="round"/><text x="-86.10054458671402" y="10" fill="#c00000" stroke-width="0.0" font-family="Arial" font-size="8.0pt">1</text><text x="-85.90017455328362" y="-13" fill="#c00000" stroke-width="0.0" font-family="Arial" font-size="8.0pt">2</text><polyline points="-57.08465891628,-22.6946545225246 -57.08465891628001,-42.6946545225246 -57.08465891628003,-62.6946545225246 -42.94252329254907,-48.552518898793664 -28.80038766881811,-34.41038327506273" stroke="#c0c000" fill="none" stroke-width="2.0" stroke-linecap="round" stroke-linejoin="round"/><text x="-58.08465891628001" y="-45" fill="#c0c000" stroke-width="0.0" font-family="Arial" font-size="8.0pt">3</text><text x="-43.94252329254907" y="-51" fill="#c0c000" stroke-width="0.0" font-family="Arial" font-size="8.0pt">4</text><polyline points="-28.80038766881811,-34.41038327506273 -13.816123932181657,-71.49773745773423 1.1681398044547961,-108.58509164040574 16.152403541091296,-71.49773745773425 31.136667277727796,-34.410383275062756" stroke="#c00000" fill="none" stroke-width="2.0" stroke-linecap="round" stroke-linejoin="round"/><text x="-14.816123932181657" y="-73" fill="#c00000" stroke-width="0.0" font-family="Arial" font-size="8.0pt">5</text><text x="15.152403541091296" y="-73" fill="#c00000" stroke-width="0.0" font-family="Arial" font-size="8.0pt">6</text><polyline points="31.136667277727796,-34.410383275062756 45.27880290145874,-48.552518898793714 59.42093852518968,-62.69465452252467 59.4209385251897,-42.69465452252467 59.42093852518971,-22.694654522524672" stroke="#c0c000" fill="none" stroke-width="2.0" stroke-linecap="round" stroke-linejoin="round"/><text x="44.27880290145874" y="-51" fill="#c0c000" stroke-width="0.0" font-family="Arial" font-size="8.0pt">7</text><text x="58.4209385251897" y="-45" fill="#c0c000" stroke-width="0.0" font-family="Arial" font-size="8.0pt">8</text><polyline points="59.42093852518971,-22.694654522524672 87.03608412876292,-10.97272066784648 114.65122973233613,0.7492131868317138 86.83571409533252,11.987410989309096 59.020198458328906,23.225608791786478" stroke="#c00000" fill="none" stroke-width="2.0" stroke-linecap="round" stroke-linejoin="round"/><text x="86.03608412876292" y="-13" fill="#c00000" stroke-width="0.0" font-family="Arial" font-size="8.0pt">9</text><text x="85.83571409533252" y="10" fill="#c00000" stroke-width="0.0" font-family="Arial" font-size="8.0pt">10</text><polyline points="59.020198458328906,23.225608791786478 59.02019845832892,43.22560879178647 59.020198458328935,63.22560879178647 44.87806283459797,49.083473168055534 30.735927210867008,34.9413375443246" stroke="#c0c000" fill="none" stroke-width="2.0" stroke-linecap="round" stroke-linejoin="round"/><text x="58.02019845832892" y="41" fill="#c0c000" stroke-width="0.0" font-family="Arial" font-size="8.0pt">11</text><text x="43.87806283459797" y="47" fill="#c0c000" stroke-width="0.0" font-family="Arial" font-size="8.0pt">12</text><polyline points="30.735927210867008,34.9413375443246 15.106682071296099,71.76153168242223 -0.5225630682748097,108.58172582051986 -15.50682680491133,71.49437163784839 -30.49109054154785,34.40701745517692" stroke="#c00000" fill="none" stroke-width="2.0" stroke-linecap="round" stroke-linejoin="round"/><text x="14.106682071296099" y="70" fill="#c00000" stroke-width="0.0" font-family="Arial" font-size="8.0pt">13</text><text x="-16.50682680491133" y="69" fill="#c00000" stroke-width="0.0" font-family="Arial" font-size="8.0pt">14</text><polyline points="-30.49109054154785,34.40701745517692 -44.633226165278785,48.54915307890788 -58.775361789009715,62.69128870263884 -58.775361789009736,42.69128870263885 -58.77536178900976,22.691288702638857" stroke="#c0c000" fill="none" stroke-width="2.0" stroke-linecap="round" stroke-linejoin="round"/><text x="-45.633226165278785" y="47" fill="#c0c000" stroke-width="0.0" font-family="Arial" font-size="8.0pt">15</text><text x="-59.775361789009736" y="41" fill="#c0c000" stroke-width="0.0" font-family="Arial" font-size="8.0pt">16</text><polygon points="-58.77536178900976,22.691288702638857 -63.77536178900975,31.691288702638865 -58.77536178900975,29.691288702638857 -53.77536178900975,31.69128870263885" stroke="#c0c000" fill="#c0c000" fill-rule="evenodd" stroke-linejoin="round"/></svg>