<?xml version="1.0" ?><!DOCTYPE svg  PUBLIC '-//W3C//DTD SVG 1.1//EN'  'http://www.w3.org/Graphics/SVG/1.1/DTD/svg11.dtd'><svg xmlns="http://www.w3.org/2000/svg" width="43.000" height="495.000" viewBox="-24.000 -476.000 43.000 495.000"><line x1="0.0" y1="0.0" x2="0.0" y2="0.0" stroke="none" fill="none" stroke-width="2.0" stroke-linecap="round"/><line x1="0.0" y1="-0.0" x2="0.0" y2="-0.0" stroke="#808080" fill="none" stroke-width="8.0" stroke-linecap="round"/><polyline points="0.0,-0.0 0.0,-0.0 0.0,-0.0 -1.9987816540381915,-0.06979899340500151 -3.997563308076383,-0.13959798681000302" stroke="#d3d3d3" fill="none" stroke-width="2.0" stroke-linecap="round" stroke-linejoin="round"/><text x="-1.0" y="-2" fill="#d3d3d3" stroke-width="0.0" font-family="Arial" font-size="8.0pt">0</text><text x="-2.9987816540381917" y="-2" fill="#d3d3d3" stroke-width="0.0" font-family="Arial" font-size="8.0pt">1</text><line x1="-3.997563308076385" y1="-5.3214161686281845" x2="-3.9975633080763866" y2="-10.503234350446366" stroke="#d3d3d3" fill="none" stroke-width="2.0" stroke-linecap="round"/><line x1="-3.9975633080763884" y1="-15.685052532264548" x2="-3.99756330807639" y2="-20.86687071408273" stroke="#d3d3d3" fill="none" stroke-width="2.0" stroke-linecap="round"/><line x1="-3.997563308076392" y1="-26.04868889590091" x2="-3.9975633080763937" y2="-31.23050707771909" stroke="#d3d3d3" fill="none" stroke-width="2.0" stroke-linecap="round"/><line x1="-3.9975633080763955" y1="-36.41232525953727" x2="-3.9975633080763973" y2="-41.59414344135545" stroke="#d3d3d3" fill="none" stroke-width="2.0" stroke-linecap="round"/><line x1="-3.997563308076399" y1="-46.77596162317363" x2="-3.997563308076401" y2="-51.95777980499181" stroke="#d3d3d3" fill="none" stroke-width="2.0" stroke-linecap="round"/><line x1="-3.9975633080764026" y1="-57.13959798680999" x2="-3.9975633080764044" y2="-62.32141616862817" stroke="#d3d3d3" fill="none" stroke-width="2.0" stroke-linecap="round"/><line x1="-3.997563308076406" y1="-67.50323435044635" x2="-3.997563308076408" y2="-72.68505253226454" stroke="#d3d3d3" fill="none" stroke-width="2.0" stroke-linecap="round"/><line x1="-3.9975633080764097" y1="-77.86687071408272" x2="-3.9975633080764115" y2="-83.04868889590091" stroke="#d3d3d3" fill="none" stroke-width="2.0" stroke-linecap="round"/><line x1="-3.9975633080764132" y1="-88.2305070777191" x2="-3.997563308076415" y2="-93.41232525953728" stroke="#d3d3d3" fill="none" stroke-width="2.0" stroke-linecap="round"/><line x1="-3.997563308076417" y1="-98.59414344135547" x2="-3.9975633080764186" y2="-103.77596162317366" stroke="#d3d3d3" fill="none" stroke-width="2.0" stroke-linecap="round"/><line x1="-3.9975633080764204" y1="-108.95777980499184" x2="-3.997563308076422" y2="-114.13959798681003" stroke="#d3d3d3" fill="none" stroke-width="2.0" stroke-linecap="round"/><line x1="-3.997563308076424" y1="-119.32141616862822" x2="-3.9975633080764257" y2="-124.5032343504464" stroke="#d3d3d3" fill="none" stroke-width="2.0" stroke-linecap="round"/><line x1="-3.9975633080764275" y1="-129.6850525322646" x2="-3.9975633080764292" y2="-134.86687071408278" stroke="#d3d3d3" fill="none" stroke-width="2.0" stroke-linecap="round"/><line x1="-3.997563308076431" y1="-140.04868889590097" x2="-3.997563308076433" y2="-145.23050707771915" stroke="#d3d3d3" fill="none" stroke-width="2.0" stroke-linecap="round"/><line x1="-3.9975633080764346" y1="-150.41232525953734" x2="-3.9975633080764363" y2="-155.59414344135553" stroke="#d3d3d3" fill="none" stroke-width="2.0" stroke-linecap="round"/><line x1="-3.997563308076438" y1="-160.7759616231737" x2="-3.99756330807644" y2="-165.9577798049919" stroke="#d3d3d3" fill="none" stroke-width="2.0" stroke-linecap="round"/><line x1="-3.9975633080764417" y1="-171.1395979868101" x2="-3.9975633080764434" y2="-176.32141616862828" stroke="#d3d3d3" fill="none" stroke-width="2.0" stroke-linecap="round"/><line x1="-3.997563308076445" y1="-181.50323435044646" x2="-3.997563308076447" y2="-186.68505253226465" stroke="#d3d3d3" fill="none" stroke-width="2.0" stroke-linecap="round"/><line x1="-3.9975633080764488" y1="-191.86687071408284" x2="-3.9975633080764506" y2="-197.04868889590102" stroke="#d3d3d3" fill="none" stroke-width="2.0" stroke-linecap="round"/><line x1="-3.9975633080764523" y1="-202.2305070777192" x2="-3.997563308076454" y2="-207.4123252595374" stroke="#d3d3d3" fill="none" stroke-width="2.0" stroke-linecap="round"/><line x1="-3.997563308076456" y1="-212.59414344135558" x2="-3.9975633080764577" y2="-217.77596162317377" stroke="#d3d3d3" fill="none" stroke-width="2.0" stroke-linecap="round"/><line x1="-3.9975633080764594" y1="-222.95777980499196" x2="-3.997563308076461" y2="-228.13959798681014" stroke="#d3d3d3" fill="none" stroke-width="2.0" stroke-linecap="round"/><text x="-4.997563308076462" y="-230" fill="#d3d3d3" stroke-width="0.0" font-family="Arial" font-size="8.0pt">2</text><line x1="-3.997563308076463" y1="-233.32141616862833" x2="-3.9975633080764648" y2="-238.50323435044652" stroke="#d3d3d3" fill="none" stroke-width="2.0" stroke-linecap="round"/><line x1="-3.9975633080764665" y1="-243.6850525322647" x2="-3.9975633080764683" y2="-248.8668707140829" stroke="#d3d3d3" fill="none" stroke-width="2.0" stroke-linecap="round"/><line x1="-3.99756330807647" y1="-254.04868889590108" x2="-3.997563308076472" y2="-259.23050707771927" stroke="#d3d3d3" fill="none" stroke-width="2.0" stroke-linecap="round"/><line x1="-3.9975633080764736" y1="-264.41232525953745" x2="-3.9975633080764754" y2="-269.59414344135564" stroke="#d3d3d3" fill="none" stroke-width="2.0" stroke-linecap="round"/><line x1="-3.997563308076477" y1="-274.7759616231738" x2="-3.997563308076479" y2="-279.957779804992" stroke="#d3d3d3" fill="none" stroke-width="2.0" stroke-linecap="round"/><line x1="-3.9975633080764807" y1="-285.1395979868102" x2="-3.9975633080764825" y2="-290.3214161686284" stroke="#d3d3d3" fill="none" stroke-width="2.0" stroke-linecap="round"/><line x1="-3.9975633080764843" y1="-295.5032343504466" x2="-3.997563308076486" y2="-300.68505253226476" stroke="#d3d3d3" fill="none" stroke-width="2.0" stroke-linecap="round"/><line x1="-3.997563308076488" y1="-305.86687071408295" x2="-3.9975633080764896" y2="-311.04868889590114" stroke="#d3d3d3" fill="none" stroke-width="2.0" stroke-linecap="round"/><line x1="-3.9975633080764914" y1="-316.2305070777193" x2="-3.997563308076493" y2="-321.4123252595375" stroke="#d3d3d3" fill="none" stroke-width="2.0" stroke-linecap="round"/><line x1="-3.997563308076495" y1="-326.5941434413557" x2="-3.9975633080764967" y2="-331.7759616231739" stroke="#d3d3d3" fill="none" stroke-width="2.0" stroke-linecap="round"/><line x1="-3.9975633080764985" y1="-336.9577798049921" x2="-3.9975633080765003" y2="-342.13959798681026" stroke="#d3d3d3" fill="none" stroke-width="2.0" stroke-linecap="round"/><line x1="-3.997563308076502" y1="-347.32141616862845" x2="-3.997563308076504" y2="-352.50323435044663" stroke="#d3d3d3" fill="none" stroke-width="2.0" stroke-linecap="round"/><line x1="-3.9975633080765056" y1="-357.6850525322648" x2="-3.9975633080765074" y2="-362.866870714083" stroke="#d3d3d3" fill="none" stroke-width="2.0" stroke-linecap="round"/><line x1="-3.997563308076509" y1="-368.0486888959012" x2="-3.997563308076511" y2="-373.2305070777194" stroke="#d3d3d3" fill="none" stroke-width="2.0" stroke-linecap="round"/><line x1="-3.9975633080765127" y1="-378.41232525953757" x2="-3.9975633080765145" y2="-383.59414344135575" stroke="#d3d3d3" fill="none" stroke-width="2.0" stroke-linecap="round"/><line x1="-3.9975633080765163" y1="-388.77596162317394" x2="-3.997563308076518" y2="-393.95777980499213" stroke="#d3d3d3" fill="none" stroke-width="2.0" stroke-linecap="round"/><line x1="-3.99756330807652" y1="-399.1395979868103" x2="-3.9975633080765216" y2="-404.3214161686285" stroke="#d3d3d3" fill="none" stroke-width="2.0" stroke-linecap="round"/><line x1="-3.9975633080765234" y1="-409.5032343504467" x2="-3.997563308076525" y2="-414.6850525322649" stroke="#d3d3d3" fill="none" stroke-width="2.0" stroke-linecap="round"/><line x1="-3.997563308076527" y1="-419.86687071408306" x2="-3.9975633080765287" y2="-425.04868889590125" stroke="#d3d3d3" fill="none" stroke-width="2.0" stroke-linecap="round"/><line x1="-3.9975633080765305" y1="-430.23050707771944" x2="-3.9975633080765323" y2="-435.4123252595376" stroke="#d3d3d3" fill="none" stroke-width="2.0" stroke-linecap="round"/><line x1="-3.997563308076534" y1="-440.5941434413558" x2="-3.997563308076536" y2="-445.775961623174" stroke="#d3d3d3" fill="none" stroke-width="2.0" stroke-linecap="round"/><polyline points="-3.9975633080765376,-450.9577798049922 -3.9975633080765394,-456.1395979868104 -3.278223507737888,-455.44493961635135 -2.5588837073992368,-454.7502812458923" stroke="#d3d3d3" fill="none" stroke-width="2.0" stroke-linecap="round" stroke-linejoin="round"/><text x="-4.278223507737888" y="-457" fill="#d3d3d3" stroke-width="0.0" font-family="Arial" font-size="8.0pt">3</text><polygon points="-2.5588837073992368,-454.7502812458923 -5.559650058152112,-464.59890558171656 -7.594262309769796,-459.6128898391053 -12.506233762742085,-457.40550757833006" stroke="#d3d3d3" fill="#d3d3d3" fill-rule="evenodd" stroke-linejoin="round"/></svg>