<?xml version="1.0" ?><!DOCTYPE svg  PUBLIC '-//W3C//DTD SVG 1.1//EN'  'http://www.w3.org/Graphics/SVG/1.1/DTD/svg11.dtd'><svg xmlns="http://www.w3.org/2000/svg" width="43.000" height="497.000" viewBox="-19.000 -478.000 43.000 497.000"><line x1="0.0" y1="0.0" x2="0.0" y2="0.0" stroke="none" fill="none" stroke-width="2.0" stroke-linecap="round"/><line x1="0.0" y1="-0.0" x2="0.0" y2="-0.0" stroke="#808080" fill="none" stroke-width="8.0" stroke-linecap="round"/><polyline points="0.0,-0.0 0.0,-0.0 0.0,-0.0 1.9987816540381913,-0.06979899340500201 3.9975633080763826,-0.13959798681000402" stroke="#d3d3d3" fill="none" stroke-width="2.0" stroke-linecap="round" stroke-linejoin="round"/><text x="-1.0" y="-2" fill="#d3d3d3" stroke-width="0.0" font-family="Arial" font-size="8.0pt">0</text><text x="0.9987816540381913" y="-2" fill="#d3d3d3" stroke-width="0.0" font-family="Arial" font-size="8.0pt">1</text><line x1="3.997563308076383" y1="-5.344143441355458" x2="3.9975633080763835" y2="-10.548688895900913" stroke="#d3d3d3" fill="none" stroke-width="2.0" stroke-linecap="round"/><line x1="3.997563308076384" y1="-15.753234350446366" x2="3.9975633080763844" y2="-20.95777980499182" stroke="#d3d3d3" fill="none" stroke-width="2.0" stroke-linecap="round"/><line x1="3.997563308076385" y1="-26.162325259537273" x2="3.9975633080763853" y2="-31.366870714082726" stroke="#d3d3d3" fill="none" stroke-width="2.0" stroke-linecap="round"/><line x1="3.9975633080763857" y1="-36.57141616862818" x2="3.997563308076386" y2="-41.775961623173636" stroke="#d3d3d3" fill="none" stroke-width="2.0" stroke-linecap="round"/><line x1="3.9975633080763866" y1="-46.98050707771909" x2="3.997563308076387" y2="-52.18505253226454" stroke="#d3d3d3" fill="none" stroke-width="2.0" stroke-linecap="round"/><line x1="3.9975633080763875" y1="-57.389597986809996" x2="3.997563308076388" y2="-62.59414344135545" stroke="#d3d3d3" fill="none" stroke-width="2.0" stroke-linecap="round"/><line x1="3.9975633080763884" y1="-67.79868889590091" x2="3.997563308076389" y2="-73.00323435044636" stroke="#d3d3d3" fill="none" stroke-width="2.0" stroke-linecap="round"/><line x1="3.9975633080763893" y1="-78.20777980499182" x2="3.9975633080763897" y2="-83.41232525953727" stroke="#d3d3d3" fill="none" stroke-width="2.0" stroke-linecap="round"/><line x1="3.99756330807639" y1="-88.61687071408272" x2="3.9975633080763906" y2="-93.82141616862818" stroke="#d3d3d3" fill="none" stroke-width="2.0" stroke-linecap="round"/><line x1="3.997563308076391" y1="-99.02596162317363" x2="3.9975633080763915" y2="-104.23050707771908" stroke="#d3d3d3" fill="none" stroke-width="2.0" stroke-linecap="round"/><line x1="3.997563308076392" y1="-109.43505253226454" x2="3.9975633080763924" y2="-114.63959798680999" stroke="#d3d3d3" fill="none" stroke-width="2.0" stroke-linecap="round"/><line x1="3.997563308076393" y1="-119.84414344135544" x2="3.9975633080763933" y2="-125.0486888959009" stroke="#d3d3d3" fill="none" stroke-width="2.0" stroke-linecap="round"/><line x1="3.9975633080763937" y1="-130.25323435044635" x2="3.997563308076394" y2="-135.45777980499182" stroke="#d3d3d3" fill="none" stroke-width="2.0" stroke-linecap="round"/><line x1="3.9975633080763946" y1="-140.66232525953728" x2="3.997563308076395" y2="-145.86687071408275" stroke="#d3d3d3" fill="none" stroke-width="2.0" stroke-linecap="round"/><line x1="3.9975633080763955" y1="-151.07141616862822" x2="3.997563308076396" y2="-156.27596162317369" stroke="#d3d3d3" fill="none" stroke-width="2.0" stroke-linecap="round"/><line x1="3.9975633080763964" y1="-161.48050707771915" x2="3.997563308076397" y2="-166.68505253226462" stroke="#d3d3d3" fill="none" stroke-width="2.0" stroke-linecap="round"/><line x1="3.9975633080763973" y1="-171.8895979868101" x2="3.9975633080763977" y2="-177.09414344135556" stroke="#d3d3d3" fill="none" stroke-width="2.0" stroke-linecap="round"/><line x1="3.997563308076398" y1="-182.29868889590102" x2="3.9975633080763986" y2="-187.5032343504465" stroke="#d3d3d3" fill="none" stroke-width="2.0" stroke-linecap="round"/><line x1="3.997563308076399" y1="-192.70777980499196" x2="3.9975633080763995" y2="-197.91232525953743" stroke="#d3d3d3" fill="none" stroke-width="2.0" stroke-linecap="round"/><line x1="3.9975633080764" y1="-203.1168707140829" x2="3.9975633080764004" y2="-208.32141616862836" stroke="#d3d3d3" fill="none" stroke-width="2.0" stroke-linecap="round"/><line x1="3.997563308076401" y1="-213.52596162317383" x2="3.9975633080764013" y2="-218.7305070777193" stroke="#d3d3d3" fill="none" stroke-width="2.0" stroke-linecap="round"/><line x1="3.9975633080764017" y1="-223.93505253226476" x2="3.997563308076402" y2="-229.13959798681023" stroke="#d3d3d3" fill="none" stroke-width="2.0" stroke-linecap="round"/><text x="2.997563308076402" y="-231" fill="#d3d3d3" stroke-width="0.0" font-family="Arial" font-size="8.0pt">2</text><line x1="3.9975633080764026" y1="-234.3441434413557" x2="3.997563308076403" y2="-239.54868889590117" stroke="#d3d3d3" fill="none" stroke-width="2.0" stroke-linecap="round"/><line x1="3.9975633080764035" y1="-244.75323435044663" x2="3.997563308076404" y2="-249.9577798049921" stroke="#d3d3d3" fill="none" stroke-width="2.0" stroke-linecap="round"/><line x1="3.9975633080764044" y1="-255.16232525953757" x2="3.997563308076405" y2="-260.366870714083" stroke="#d3d3d3" fill="none" stroke-width="2.0" stroke-linecap="round"/><line x1="3.9975633080764053" y1="-265.57141616862845" x2="3.9975633080764057" y2="-270.7759616231739" stroke="#d3d3d3" fill="none" stroke-width="2.0" stroke-linecap="round"/><line x1="3.997563308076406" y1="-275.9805070777193" x2="3.9975633080764066" y2="-281.18505253226476" stroke="#d3d3d3" fill="none" stroke-width="2.0" stroke-linecap="round"/><line x1="3.997563308076407" y1="-286.3895979868102" x2="3.9975633080764075" y2="-291.59414344135564" stroke="#d3d3d3" fill="none" stroke-width="2.0" stroke-linecap="round"/><line x1="3.997563308076408" y1="-296.7986888959011" x2="3.9975633080764084" y2="-302.0032343504465" stroke="#d3d3d3" fill="none" stroke-width="2.0" stroke-linecap="round"/><line x1="3.997563308076409" y1="-307.20777980499196" x2="3.9975633080764092" y2="-312.4123252595374" stroke="#d3d3d3" fill="none" stroke-width="2.0" stroke-linecap="round"/><line x1="3.9975633080764097" y1="-317.61687071408284" x2="3.99756330807641" y2="-322.8214161686283" stroke="#d3d3d3" fill="none" stroke-width="2.0" stroke-linecap="round"/><line x1="3.9975633080764106" y1="-328.0259616231737" x2="3.997563308076411" y2="-333.23050707771915" stroke="#d3d3d3" fill="none" stroke-width="2.0" stroke-linecap="round"/><line x1="3.9975633080764115" y1="-338.4350525322646" x2="3.997563308076412" y2="-343.63959798681003" stroke="#d3d3d3" fill="none" stroke-width="2.0" stroke-linecap="round"/><line x1="3.9975633080764124" y1="-348.84414344135547" x2="3.997563308076413" y2="-354.0486888959009" stroke="#d3d3d3" fill="none" stroke-width="2.0" stroke-linecap="round"/><line x1="3.9975633080764132" y1="-359.25323435044635" x2="3.9975633080764137" y2="-364.4577798049918" stroke="#d3d3d3" fill="none" stroke-width="2.0" stroke-linecap="round"/><line x1="3.997563308076414" y1="-369.6623252595372" x2="3.9975633080764146" y2="-374.86687071408267" stroke="#d3d3d3" fill="none" stroke-width="2.0" stroke-linecap="round"/><line x1="3.997563308076415" y1="-380.0714161686281" x2="3.9975633080764155" y2="-385.27596162317354" stroke="#d3d3d3" fill="none" stroke-width="2.0" stroke-linecap="round"/><line x1="3.997563308076416" y1="-390.480507077719" x2="3.9975633080764164" y2="-395.6850525322644" stroke="#d3d3d3" fill="none" stroke-width="2.0" stroke-linecap="round"/><line x1="3.997563308076417" y1="-400.88959798680986" x2="3.9975633080764172" y2="-406.0941434413553" stroke="#d3d3d3" fill="none" stroke-width="2.0" stroke-linecap="round"/><line x1="3.9975633080764177" y1="-411.29868889590074" x2="3.997563308076418" y2="-416.5032343504462" stroke="#d3d3d3" fill="none" stroke-width="2.0" stroke-linecap="round"/><line x1="3.9975633080764186" y1="-421.7077798049916" x2="3.997563308076419" y2="-426.91232525953706" stroke="#d3d3d3" fill="none" stroke-width="2.0" stroke-linecap="round"/><line x1="3.9975633080764195" y1="-432.1168707140825" x2="3.99756330807642" y2="-437.32141616862793" stroke="#d3d3d3" fill="none" stroke-width="2.0" stroke-linecap="round"/><line x1="3.9975633080764204" y1="-442.5259616231734" x2="3.997563308076421" y2="-447.7305070777188" stroke="#d3d3d3" fill="none" stroke-width="2.0" stroke-linecap="round"/><polyline points="3.9975633080764212,-452.93505253226425 3.9975633080764217,-458.1395979868097 3.0578706872905133,-458.48161813013536 2.118178066504605,-458.82363827346103" stroke="#d3d3d3" fill="none" stroke-width="2.0" stroke-linecap="round" stroke-linejoin="round"/><text x="2.0578706872905133" y="-460" fill="#d3d3d3" stroke-width="0.0" font-family="Arial" font-size="8.0pt">3</text><polygon points="2.118178066504605,-458.82363827346103 8.865310936949435,-451.04699387960045 8.696026412005963,-456.42949727018134 12.285512370206124,-460.44392008745956" stroke="#d3d3d3" fill="#d3d3d3" fill-rule="evenodd" stroke-linejoin="round"/></svg>