<?xml version="1.0" ?><!DOCTYPE svg  PUBLIC '-//W3C//DTD SVG 1.1//EN'  'http://www.w3.org/Graphics/SVG/1.1/DTD/svg11.dtd'><svg xmlns="http://www.w3.org/2000/svg" width="544.000" height="55.000" viewBox="-19.000 -19.000 544.000 55.000"><line x1="0.0" y1="0.0" x2="0.0" y2="0.0" stroke="none" fill="none" stroke-width="2.0" stroke-linecap="round"/><line x1="0.0" y1="-0.0" x2="0.0" y2="-0.0" stroke="#808080" fill="none" stroke-width="8.0" stroke-linecap="round"/><polyline points="0.0,-0.0 1.2246467991473532e-16,2.0 2.4492935982947064e-16,4.0 3.6739403974420594e-16,6.0 4.898587196589413e-16,8.0" stroke="#000" fill="none" stroke-width="2.0" stroke-linecap="round" stroke-linejoin="round"/><text x="-0.9999999999999999" y="0" fill="#000" stroke-width="0.0" font-family="Arial" font-size="8.0pt">0</text><text x="-0.9999999999999997" y="4" fill="#000" stroke-width="0.0" font-family="Arial" font-size="8.0pt">1</text><line x1="5.099223245297596" y1="8.089007272830147" x2="10.198446490595192" y2="8.178014545660293" stroke="#d3d3d3" fill="none" stroke-width="2.0" stroke-linecap="round"/><line x1="15.297669735892786" y1="8.26702181849044" x2="20.39689298119038" y2="8.356029091320586" stroke="#d3d3d3" fill="none" stroke-width="2.0" stroke-linecap="round"/><line x1="25.496116226487974" y1="8.445036364150733" x2="30.595339471785568" y2="8.53404363698088" stroke="#d3d3d3" fill="none" stroke-width="2.0" stroke-linecap="round"/><line x1="35.694562717083166" y1="8.623050909811026" x2="40.79378596238076" y2="8.712058182641172" stroke="#d3d3d3" fill="none" stroke-width="2.0" stroke-linecap="round"/><line x1="45.893009207678354" y1="8.801065455471319" x2="50.99223245297595" y2="8.890072728301465" stroke="#d3d3d3" fill="none" stroke-width="2.0" stroke-linecap="round"/><line x1="56.09145569827354" y1="8.979080001131612" x2="61.190678943571136" y2="9.068087273961758" stroke="#d3d3d3" fill="none" stroke-width="2.0" stroke-linecap="round"/><line x1="66.28990218886874" y1="9.157094546791905" x2="71.38912543416633" y2="9.246101819622051" stroke="#d3d3d3" fill="none" stroke-width="2.0" stroke-linecap="round"/><line x1="76.48834867946393" y1="9.335109092452198" x2="81.58757192476152" y2="9.424116365282345" stroke="#d3d3d3" fill="none" stroke-width="2.0" stroke-linecap="round"/><line x1="86.68679517005911" y1="9.513123638112491" x2="91.78601841535671" y2="9.602130910942638" stroke="#d3d3d3" fill="none" stroke-width="2.0" stroke-linecap="round"/><line x1="96.8852416606543" y1="9.691138183772784" x2="101.9844649059519" y2="9.78014545660293" stroke="#d3d3d3" fill="none" stroke-width="2.0" stroke-linecap="round"/><line x1="107.08368815124949" y1="9.869152729433077" x2="112.18291139654708" y2="9.958160002263224" stroke="#d3d3d3" fill="none" stroke-width="2.0" stroke-linecap="round"/><line x1="117.28213464184468" y1="10.04716727509337" x2="122.38135788714227" y2="10.136174547923517" stroke="#d3d3d3" fill="none" stroke-width="2.0" stroke-linecap="round"/><line x1="127.48058113243987" y1="10.225181820753663" x2="132.57980437773747" y2="10.31418909358381" stroke="#d3d3d3" fill="none" stroke-width="2.0" stroke-linecap="round"/><line x1="137.67902762303507" y1="10.403196366413956" x2="142.77825086833266" y2="10.492203639244103" stroke="#d3d3d3" fill="none" stroke-width="2.0" stroke-linecap="round"/><line x1="147.87747411363026" y1="10.58121091207425" x2="152.97669735892785" y2="10.670218184904396" stroke="#d3d3d3" fill="none" stroke-width="2.0" stroke-linecap="round"/><line x1="158.07592060422544" y1="10.759225457734543" x2="163.17514384952304" y2="10.848232730564689" stroke="#d3d3d3" fill="none" stroke-width="2.0" stroke-linecap="round"/><line x1="168.27436709482063" y1="10.937240003394836" x2="173.37359034011823" y2="11.026247276224982" stroke="#d3d3d3" fill="none" stroke-width="2.0" stroke-linecap="round"/><line x1="178.47281358541582" y1="11.115254549055129" x2="183.57203683071342" y2="11.204261821885275" stroke="#d3d3d3" fill="none" stroke-width="2.0" stroke-linecap="round"/><line x1="188.671260076011" y1="11.293269094715422" x2="193.7704833213086" y2="11.382276367545568" stroke="#d3d3d3" fill="none" stroke-width="2.0" stroke-linecap="round"/><line x1="198.8697065666062" y1="11.471283640375715" x2="203.9689298119038" y2="11.560290913205861" stroke="#d3d3d3" fill="none" stroke-width="2.0" stroke-linecap="round"/><line x1="209.06815305720139" y1="11.649298186036008" x2="214.16737630249898" y2="11.738305458866154" stroke="#d3d3d3" fill="none" stroke-width="2.0" stroke-linecap="round"/><line x1="219.26659954779657" y1="11.827312731696301" x2="224.36582279309417" y2="11.916320004526447" stroke="#d3d3d3" fill="none" stroke-width="2.0" stroke-linecap="round"/><line x1="229.46504603839176" y1="12.005327277356594" x2="234.56426928368936" y2="12.09433455018674" stroke="#d3d3d3" fill="none" stroke-width="2.0" stroke-linecap="round"/><line x1="239.66349252898695" y1="12.183341823016887" x2="244.76271577428454" y2="12.272349095847034" stroke="#d3d3d3" fill="none" stroke-width="2.0" stroke-linecap="round"/><line x1="249.86193901958214" y1="12.36135636867718" x2="254.96116226487973" y2="12.450363641507327" stroke="#d3d3d3" fill="none" stroke-width="2.0" stroke-linecap="round"/><text x="253.96116226487973" y="10" fill="#d3d3d3" stroke-width="0.0" font-family="Arial" font-size="8.0pt">2</text><line x1="260.06038551017735" y1="12.539370914337473" x2="265.15960875547495" y2="12.62837818716762" stroke="#d3d3d3" fill="none" stroke-width="2.0" stroke-linecap="round"/><line x1="270.25883200077254" y1="12.717385459997766" x2="275.35805524607014" y2="12.806392732827913" stroke="#d3d3d3" fill="none" stroke-width="2.0" stroke-linecap="round"/><line x1="280.45727849136773" y1="12.89540000565806" x2="285.5565017366653" y2="12.984407278488206" stroke="#d3d3d3" fill="none" stroke-width="2.0" stroke-linecap="round"/><line x1="290.6557249819629" y1="13.073414551318352" x2="295.7549482272605" y2="13.162421824148499" stroke="#d3d3d3" fill="none" stroke-width="2.0" stroke-linecap="round"/><line x1="300.8541714725581" y1="13.251429096978645" x2="305.9533947178557" y2="13.340436369808792" stroke="#d3d3d3" fill="none" stroke-width="2.0" stroke-linecap="round"/><line x1="311.0526179631533" y1="13.429443642638939" x2="316.1518412084509" y2="13.518450915469085" stroke="#d3d3d3" fill="none" stroke-width="2.0" stroke-linecap="round"/><line x1="321.2510644537485" y1="13.607458188299232" x2="326.3502876990461" y2="13.696465461129378" stroke="#d3d3d3" fill="none" stroke-width="2.0" stroke-linecap="round"/><line x1="331.4495109443437" y1="13.785472733959525" x2="336.54873418964127" y2="13.874480006789671" stroke="#d3d3d3" fill="none" stroke-width="2.0" stroke-linecap="round"/><line x1="341.64795743493886" y1="13.963487279619818" x2="346.74718068023645" y2="14.052494552449964" stroke="#d3d3d3" fill="none" stroke-width="2.0" stroke-linecap="round"/><line x1="351.84640392553405" y1="14.14150182528011" x2="356.94562717083164" y2="14.230509098110257" stroke="#d3d3d3" fill="none" stroke-width="2.0" stroke-linecap="round"/><line x1="362.04485041612924" y1="14.319516370940404" x2="367.14407366142683" y2="14.40852364377055" stroke="#d3d3d3" fill="none" stroke-width="2.0" stroke-linecap="round"/><line x1="372.2432969067244" y1="14.497530916600697" x2="377.342520152022" y2="14.586538189430843" stroke="#d3d3d3" fill="none" stroke-width="2.0" stroke-linecap="round"/><line x1="382.4417433973196" y1="14.67554546226099" x2="387.5409666426172" y2="14.764552735091137" stroke="#d3d3d3" fill="none" stroke-width="2.0" stroke-linecap="round"/><line x1="392.6401898879148" y1="14.853560007921283" x2="397.7394131332124" y2="14.94256728075143" stroke="#d3d3d3" fill="none" stroke-width="2.0" stroke-linecap="round"/><line x1="402.83863637851" y1="15.031574553581576" x2="407.9378596238076" y2="15.120581826411723" stroke="#d3d3d3" fill="none" stroke-width="2.0" stroke-linecap="round"/><line x1="413.0370828691052" y1="15.20958909924187" x2="418.13630611440277" y2="15.298596372072016" stroke="#d3d3d3" fill="none" stroke-width="2.0" stroke-linecap="round"/><line x1="423.23552935970037" y1="15.387603644902162" x2="428.33475260499796" y2="15.476610917732309" stroke="#d3d3d3" fill="none" stroke-width="2.0" stroke-linecap="round"/><line x1="433.43397585029555" y1="15.565618190562455" x2="438.53319909559315" y2="15.654625463392602" stroke="#d3d3d3" fill="none" stroke-width="2.0" stroke-linecap="round"/><line x1="443.63242234089074" y1="15.743632736222748" x2="448.73164558618834" y2="15.832640009052895" stroke="#d3d3d3" fill="none" stroke-width="2.0" stroke-linecap="round"/><line x1="453.83086883148593" y1="15.921647281883041" x2="458.9300920767835" y2="16.010654554713188" stroke="#d3d3d3" fill="none" stroke-width="2.0" stroke-linecap="round"/><line x1="464.0293153220811" y1="16.099661827543333" x2="469.1285385673787" y2="16.188669100373478" stroke="#d3d3d3" fill="none" stroke-width="2.0" stroke-linecap="round"/><line x1="474.2277618126763" y1="16.277676373203622" x2="479.3269850579739" y2="16.366683646033767" stroke="#d3d3d3" fill="none" stroke-width="2.0" stroke-linecap="round"/><line x1="484.4262083032715" y1="16.45569091886391" x2="489.5254315485691" y2="16.544698191694057" stroke="#d3d3d3" fill="none" stroke-width="2.0" stroke-linecap="round"/><line x1="494.6246547938667" y1="16.6337054645242" x2="499.7238780391643" y2="16.722712737354346" stroke="#d3d3d3" fill="none" stroke-width="2.0" stroke-linecap="round"/><line x1="504.82310128446187" y1="16.81172001018449" x2="509.92232452975946" y2="16.900727283014636" stroke="#d3d3d3" fill="none" stroke-width="2.0" stroke-linecap="round"/><polyline points="509.92232452975946,16.900727283014636 509.92232452975946,16.900727283014636 509.92232452975946,16.900727283014636" stroke="#c0c0c0" fill="none" stroke-width="2.0" stroke-linecap="round" stroke-linejoin="round"/><text x="508.92232452975946" y="15" fill="#c0c0c0" stroke-width="0.0" font-family="Arial" font-size="8.0pt">3</text><polygon points="509.92232452975946,16.900727283014636 500.028238674973,14.053436448183245 503.1017340762628,18.47538466342169 502.27774921841166,23.7971370960356" stroke="#c0c0c0" fill="#c0c0c0" fill-rule="evenodd" stroke-linejoin="round"/></svg>